{"glyphs":{"0":{"ha":747,"x_min":51,"x_max":697,"o":"m 375 -18 q 210 31 283 -18 q 94 183 136 81 q 51 443 51 285 q 94 707 51 603 q 210 862 136 811 q 375 913 283 913 q 540 863 467 913 q 655 711 613 814 q 697 449 697 608 q 655 187 697 290 q 540 33 613 83 q 375 -18 467 -18 m 375 54 q 445 76 415 54 q 495 144 475 97 q 526 266 515 192 q 536 446 536 340 q 526 628 536 553 q 495 750 515 703 q 445 819 475 797 q 375 840 415 840 q 304 819 335 840 q 253 750 274 797 q 223 628 233 703 q 213 446 213 553 q 223 265 213 340 q 253 144 233 190 q 304 76 274 97 q 375 54 335 54 z "},"1":{"ha":747,"x_min":114,"x_max":644,"o":"m 114 0 l 114 74 l 328 90 l 435 90 l 644 74 l 644 0 l 114 0 m 301 0 q 303 119 303 60 q 303 240 303 179 q 304 360 304 300 l 304 768 l 128 744 l 128 821 l 422 900 l 464 893 l 461 597 l 461 360 q 461 240 461 300 q 462 119 461 179 q 463 0 463 60 l 301 0 z "},"2":{"ha":747,"x_min":65,"x_max":685,"o":"m 76 0 l 76 106 q 183 205 131 156 q 285 301 236 254 q 405 436 358 375 q 474 553 451 497 q 496 663 496 608 q 449 794 496 746 q 321 843 403 843 q 252 838 285 843 q 186 822 219 833 l 271 869 l 242 747 q 220 689 233 713 q 189 654 207 665 q 146 643 171 643 q 93 660 113 643 q 65 699 74 678 q 116 814 75 767 q 222 887 157 861 q 365 913 286 913 q 522 884 457 913 q 622 801 588 856 q 657 672 657 747 q 628 550 657 608 q 538 426 600 492 q 371 275 475 361 q 306 225 339 250 q 237 175 272 200 q 165 124 201 150 l 185 168 l 185 132 l 685 132 l 685 0 l 76 0 z "},"3":{"ha":747,"x_min":63,"x_max":689,"o":"m 347 -18 q 155 31 229 -18 q 63 176 81 79 q 90 218 71 201 q 139 235 110 235 q 198 212 176 235 q 232 133 219 189 l 254 22 l 190 69 q 253 57 219 61 q 325 53 286 53 q 440 76 394 53 q 508 142 485 99 q 531 246 531 186 q 507 344 531 303 q 435 406 483 385 q 315 428 388 428 l 254 428 l 254 504 l 304 504 q 419 526 374 504 q 486 588 464 547 q 508 683 508 628 q 489 770 508 735 q 431 824 469 806 q 332 843 392 843 q 269 839 299 843 q 208 828 239 835 l 279 869 l 256 765 q 224 695 244 717 q 165 674 203 674 q 117 689 135 674 q 92 729 99 704 q 142 830 104 789 q 238 892 179 871 q 369 913 296 913 q 525 885 458 913 q 628 810 592 858 q 665 697 665 763 q 633 587 665 636 q 543 507 601 538 q 404 467 485 476 l 404 468 q 562 435 499 463 q 657 360 625 408 q 689 242 689 313 q 649 110 689 169 q 532 17 608 51 q 347 -18 456 -18 z "},"4":{"ha":747,"x_min":31,"x_max":721,"o":"m 426 -19 l 426 244 l 429 269 l 429 772 l 392 772 l 449 800 l 282 531 l 94 289 l 113 353 l 113 311 l 721 311 l 721 201 l 31 201 l 31 296 l 458 903 l 576 903 l 576 -19 l 426 -19 z "},"5":{"ha":747,"x_min":57,"x_max":690,"o":"m 339 -18 q 147 33 218 -18 q 56 175 75 83 q 84 218 64 201 q 135 235 104 235 q 194 213 172 235 q 228 135 215 192 l 250 28 l 188 78 q 256 59 222 64 q 325 54 290 54 q 436 79 390 54 q 506 150 482 104 q 529 260 529 196 q 506 369 529 325 q 440 437 483 414 q 332 460 396 460 q 252 455 286 460 q 186 439 218 450 l 132 463 l 163 894 l 660 894 l 660 763 l 188 763 l 240 846 l 215 488 l 194 497 q 276 537 231 524 q 374 550 321 550 q 542 518 471 550 q 651 424 613 486 q 690 272 690 361 q 647 118 690 183 q 523 17 603 53 q 339 -18 443 -18 z "},"6":{"ha":747,"x_min":51,"x_max":694,"o":"m 381 -18 q 210 24 285 -18 q 94 151 136 65 q 53 364 53 236 q 92 563 53 469 q 205 729 131 656 q 387 851 279 803 q 632 913 494 899 l 646 853 q 447 781 529 826 q 312 672 364 735 q 236 529 260 608 q 213 357 213 450 q 234 180 213 246 q 293 84 256 114 q 379 54 331 54 q 465 79 429 54 q 521 152 501 104 q 540 268 540 200 q 497 409 540 361 q 381 457 454 457 q 282 440 329 457 q 193 382 235 424 l 172 432 l 203 428 q 303 521 244 489 q 439 553 361 553 q 576 519 519 553 q 664 424 633 485 q 694 281 694 363 q 670 156 694 211 q 603 63 646 101 q 502 3 560 24 q 381 -18 444 -18 z "},"7":{"ha":747,"x_min":69,"x_max":688,"o":"m 188 0 l 181 25 l 614 788 l 606 728 l 601 763 l 69 763 l 69 894 l 686 894 l 686 813 l 347 0 l 188 0 z "},"8":{"ha":747,"x_min":57,"x_max":690,"o":"m 368 -18 q 202 8 272 -18 q 94 83 132 33 q 57 203 57 132 q 84 303 57 260 q 163 379 111 347 q 288 432 214 411 l 307 461 l 361 436 q 269 369 306 403 q 215 299 233 336 q 197 213 197 261 q 219 129 197 165 q 282 73 242 93 q 375 53 322 53 q 499 95 454 53 q 544 206 544 138 q 524 282 544 249 q 454 346 503 315 q 319 414 406 376 q 197 483 249 444 q 119 568 146 521 q 92 676 92 615 q 128 800 92 747 q 229 883 164 853 q 381 913 294 913 q 529 885 468 913 q 622 811 590 858 q 654 701 654 764 q 632 617 654 657 q 565 546 610 578 q 453 488 521 514 l 436 461 l 389 486 q 488 587 456 538 q 521 697 521 636 q 504 772 521 739 q 456 822 488 804 q 378 840 425 840 q 300 824 333 840 q 248 778 267 808 q 229 706 229 747 q 247 635 229 668 q 308 572 264 603 q 432 504 351 540 q 570 432 513 469 q 659 345 628 394 q 690 225 690 296 q 650 98 690 153 q 538 13 610 43 q 368 -18 467 -18 z "},"9":{"ha":747,"x_min":44,"x_max":692,"o":"m 124 -19 l 108 40 q 304 116 224 71 q 435 222 385 161 q 508 358 485 282 q 531 525 531 433 q 509 710 531 642 q 449 810 488 779 q 360 840 410 840 q 276 816 313 840 q 220 746 240 792 q 200 633 200 700 q 222 526 200 569 q 285 462 244 483 q 378 440 325 440 q 475 459 432 440 q 556 518 518 478 l 572 476 l 546 479 q 457 381 513 417 q 318 346 401 346 q 178 378 240 346 q 80 472 115 411 q 44 619 44 533 q 68 739 44 685 q 135 832 92 793 q 235 892 178 871 q 363 913 293 913 q 533 871 458 913 q 649 746 607 829 q 690 539 690 663 q 655 343 690 435 q 548 177 619 251 q 371 53 476 103 q 124 -19 265 3 z "}," ":{"ha":322,"x_min":0,"x_max":0,"o":""}," ":{"ha":322,"x_min":0,"x_max":0,"o":""},"A":{"ha":989,"x_min":17,"x_max":968,"o":"m 17 0 l 17 76 l 160 88 l 189 88 l 346 76 l 346 0 l 17 0 m 100 0 l 426 932 l 558 932 l 888 0 l 714 0 l 442 806 l 443 806 l 411 667 l 188 0 l 100 0 m 257 286 l 257 364 l 678 364 l 678 286 l 257 286 m 550 0 l 550 76 l 731 88 l 788 88 l 968 76 l 968 0 l 550 0 z "},"B":{"ha":917,"x_min":50,"x_max":861,"o":"m 50 0 l 50 76 l 226 88 l 244 88 l 244 0 l 50 0 m 181 0 q 182 142 182 71 q 182 285 182 214 q 182 429 182 357 l 182 497 q 182 641 182 569 q 182 784 182 713 q 181 926 182 856 l 349 926 q 348 784 349 856 q 347 642 347 713 q 347 497 347 571 l 347 438 q 347 289 347 363 q 348 144 347 215 q 349 0 349 72 l 181 0 m 283 0 l 283 79 l 438 79 q 629 126 568 79 q 690 260 690 172 q 630 396 690 350 q 439 442 569 442 l 269 442 l 269 518 l 431 518 q 552 537 504 518 q 624 593 600 556 q 647 688 647 631 q 624 780 647 744 q 556 832 601 815 q 443 849 511 849 l 283 849 l 283 926 l 476 926 q 656 899 581 926 q 771 823 731 872 q 811 704 811 774 q 776 592 811 638 q 677 520 742 546 q 522 489 613 494 l 522 481 q 706 451 631 476 q 822 378 782 425 q 861 260 861 331 q 837 158 861 206 q 763 74 813 110 q 639 19 714 39 q 461 0 564 0 l 283 0 m 50 850 l 50 926 l 244 926 l 244 839 l 226 839 l 50 850 z "},"C":{"ha":919,"x_min":64,"x_max":864,"o":"m 557 -22 q 360 10 450 -22 q 203 105 269 43 q 101 256 138 167 q 64 460 64 346 q 102 665 64 575 q 208 819 140 756 q 367 915 276 882 q 563 949 458 949 q 718 931 646 949 q 844 883 790 914 l 850 676 l 758 676 l 714 879 l 810 869 l 810 785 q 700 846 758 825 q 578 867 642 867 q 408 822 485 867 q 285 687 331 776 q 240 464 240 597 q 283 241 240 331 q 401 106 326 151 q 571 60 475 60 q 708 81 644 60 q 824 139 772 101 l 824 57 l 729 47 l 772 254 l 864 254 l 858 43 q 730 -3 806 15 q 557 -22 654 -22 z "},"D":{"ha":1031,"x_min":50,"x_max":967,"o":"m 50 0 l 50 76 l 226 88 l 246 88 l 246 0 l 50 0 m 181 0 q 182 142 182 71 q 182 288 182 214 q 182 436 182 361 l 182 499 q 182 641 182 569 q 182 784 182 713 q 181 926 182 856 l 349 926 q 348 785 349 856 q 347 642 347 714 q 347 499 347 571 l 347 436 q 347 288 347 361 q 348 144 347 215 q 349 0 349 72 l 181 0 m 282 0 l 282 79 l 454 79 q 638 126 563 79 q 751 259 713 172 q 790 467 790 346 q 706 751 790 653 q 468 849 621 849 l 282 849 l 282 926 l 486 926 q 739 874 631 926 q 907 721 847 822 q 967 469 967 619 q 904 215 967 319 q 728 55 842 110 q 463 0 614 0 l 282 0 m 50 850 l 50 926 l 246 926 l 246 839 l 226 839 l 50 850 z "},"E":{"ha":883,"x_min":53,"x_max":828,"o":"m 53 0 l 53 76 l 238 88 l 257 88 l 257 0 l 53 0 m 182 0 q 184 142 183 71 q 185 285 185 213 q 185 429 185 357 l 185 499 q 185 641 185 569 q 184 784 185 713 q 182 926 183 856 l 351 926 q 351 785 351 856 q 350 642 350 714 q 350 499 350 571 l 350 436 q 350 288 350 361 q 351 144 350 215 q 351 0 351 72 l 182 0 m 267 0 l 267 82 l 747 82 l 692 32 l 738 254 l 828 254 l 818 0 l 267 0 m 267 433 l 267 513 l 597 513 l 597 433 l 267 433 m 565 313 l 540 458 l 540 492 l 565 635 l 644 635 l 644 313 l 565 313 m 53 850 l 53 926 l 257 926 l 257 839 l 238 839 l 53 850 m 710 679 l 664 894 l 721 844 l 267 844 l 267 926 l 790 926 l 800 679 l 710 679 z "},"F":{"ha":849,"x_min":53,"x_max":801,"o":"m 53 0 l 53 76 l 238 88 l 300 88 l 494 76 l 494 0 l 53 0 m 182 0 q 184 142 183 71 q 185 285 185 213 q 185 429 185 357 l 185 499 q 185 641 185 569 q 184 784 185 713 q 182 926 183 856 l 351 926 q 351 785 351 856 q 350 642 350 714 q 350 499 350 571 l 350 436 q 350 288 350 361 q 351 144 350 215 q 351 0 351 72 l 182 0 m 267 431 l 267 510 l 601 510 l 601 431 l 267 431 m 571 303 l 544 449 l 544 489 l 571 632 l 649 632 l 649 303 l 571 303 m 53 850 l 53 926 l 257 926 l 257 839 l 238 839 l 53 850 m 711 679 l 664 894 l 722 844 l 267 844 l 267 926 l 790 926 l 801 679 l 711 679 z "},"G":{"ha":1006,"x_min":64,"x_max":972,"o":"m 557 -22 q 359 11 450 -22 q 202 106 268 44 q 100 258 136 168 q 64 461 64 347 q 101 663 64 572 q 206 817 139 753 q 366 915 274 882 q 567 949 458 949 q 683 940 629 949 q 782 917 738 932 q 860 885 826 903 l 865 676 l 772 676 l 729 881 l 824 868 l 824 785 q 712 846 774 825 q 578 867 650 867 q 408 821 485 867 q 286 685 332 775 q 240 464 240 596 q 283 242 240 332 q 403 107 326 153 q 583 61 481 61 q 694 75 647 61 q 790 114 742 89 l 722 40 l 722 122 q 722 283 722 201 q 719 444 721 364 l 885 444 q 883 283 883 364 q 882 121 882 201 l 882 56 q 735 -1 815 21 q 557 -22 654 -22 m 576 371 l 576 444 l 972 444 l 972 371 l 822 363 l 767 363 l 576 371 z "},"H":{"ha":1126,"x_min":50,"x_max":1076,"o":"m 50 0 l 50 76 l 236 88 l 290 88 l 476 76 l 476 0 l 50 0 m 179 0 q 181 142 181 71 q 182 285 182 213 q 182 429 182 357 l 182 499 q 182 641 182 569 q 181 784 182 713 q 179 926 181 856 l 349 926 q 348 784 349 856 q 347 641 347 713 q 347 496 347 569 l 347 449 q 347 294 347 369 q 348 147 347 219 q 349 0 349 74 l 179 0 m 269 433 l 269 514 l 858 514 l 858 433 l 269 433 m 651 0 l 651 76 l 836 88 l 890 88 l 1076 76 l 1076 0 l 651 0 m 778 0 q 780 145 779 72 q 781 294 781 218 q 781 449 781 369 l 781 496 q 781 640 781 568 q 780 783 781 711 q 778 926 779 856 l 947 926 q 945 785 946 856 q 944 642 944 714 q 944 499 944 571 l 944 429 q 944 286 944 358 q 945 143 944 214 q 947 0 946 72 l 778 0 m 50 850 l 50 926 l 476 926 l 476 850 l 290 839 l 236 839 l 50 850 m 651 850 l 651 926 l 1076 926 l 1076 850 l 890 839 l 836 839 l 651 850 z "},"I":{"ha":529,"x_min":50,"x_max":479,"o":"m 50 0 l 50 76 l 238 88 l 292 88 l 479 76 l 479 0 l 50 0 m 181 0 q 182 142 182 71 q 182 285 182 213 q 182 429 182 357 l 182 499 q 182 641 182 569 q 182 784 182 713 q 181 926 182 856 l 349 926 q 348 785 349 856 q 347 642 347 714 q 347 499 347 571 l 347 429 q 347 286 347 358 q 348 143 347 214 q 349 0 349 72 l 181 0 m 50 850 l 50 926 l 479 926 l 479 850 l 292 839 l 238 839 l 50 850 z "},"J":{"ha":538,"x_min":-43,"x_max":499,"o":"m 90 -189 q 1 -172 38 -189 q -43 -115 -35 -156 q -14 -59 -37 -76 q 47 -42 10 -42 q 102 -52 79 -42 q 153 -89 125 -62 l 194 -126 l 176 -126 l 189 -126 l 179 -129 q 193 -82 188 -107 q 201 -24 199 -57 q 206 58 204 10 q 207 176 207 107 q 207 254 207 215 q 207 338 207 293 q 206 438 207 383 q 206 562 206 492 q 205 722 206 632 q 203 926 204 811 l 369 926 q 367 715 368 821 q 367 500 367 608 l 367 261 q 363 126 367 182 q 348 30 358 71 q 322 -42 338 -11 q 282 -100 306 -72 q 199 -167 247 -144 q 90 -189 151 -189 m 53 850 l 53 926 l 499 926 l 499 850 l 313 839 l 256 839 l 53 850 z "},"K":{"ha":997,"x_min":50,"x_max":979,"o":"m 181 0 q 182 142 182 71 q 182 285 182 213 q 182 429 182 357 l 182 499 q 182 641 182 569 q 182 784 182 713 q 181 926 182 856 l 346 926 q 345 785 346 856 q 344 642 344 714 q 344 499 344 571 l 344 403 q 344 278 344 344 q 345 142 344 213 q 346 0 346 72 l 181 0 m 50 0 l 50 76 l 238 88 l 292 88 l 471 76 l 471 0 l 50 0 m 50 850 l 50 926 l 475 926 l 475 850 l 292 839 l 238 839 l 50 850 m 586 0 l 586 76 l 756 88 l 806 88 l 979 76 l 979 0 l 586 0 m 603 850 l 603 926 l 951 926 l 951 850 l 789 839 l 743 838 l 603 850 m 282 249 l 279 365 l 318 365 l 408 483 l 786 926 l 897 926 l 282 249 m 740 0 l 453 496 l 557 613 l 921 0 l 740 0 z "},"L":{"ha":857,"x_min":53,"x_max":807,"o":"m 53 0 l 53 76 l 238 88 l 257 88 l 257 0 l 53 0 m 182 0 q 184 143 183 72 q 185 285 185 214 q 185 425 185 356 l 185 499 q 185 642 185 571 q 184 785 185 714 q 182 926 183 856 l 351 926 q 351 784 351 856 q 350 642 350 713 q 350 499 350 571 l 350 415 q 350 281 350 350 q 351 142 350 213 q 351 0 351 71 l 182 0 m 267 0 l 267 82 l 721 82 l 664 33 l 715 278 l 807 278 l 794 0 l 267 0 m 53 850 l 53 926 l 493 926 l 493 850 l 297 839 l 238 839 l 53 850 z "},"M":{"ha":1296,"x_min":46,"x_max":1244,"o":"m 46 0 l 46 76 l 200 88 l 243 88 l 393 76 l 393 0 l 46 0 m 56 850 l 56 926 l 233 926 l 233 839 l 214 839 l 56 850 m 178 0 l 178 926 l 243 926 l 265 488 l 265 0 l 178 0 m 561 0 l 239 828 l 204 828 l 204 926 l 360 926 l 656 165 l 639 165 l 701 342 l 922 926 l 1003 926 l 1003 828 l 963 828 l 900 644 l 654 0 l 561 0 m 822 0 l 822 76 l 988 88 l 1069 88 l 1244 76 l 1244 0 l 822 0 m 949 0 q 950 151 950 76 q 950 302 950 226 q 950 453 950 378 l 951 926 l 1115 926 q 1113 785 1114 856 q 1113 642 1113 714 q 1113 499 1113 571 l 1113 429 q 1113 286 1113 358 q 1113 143 1113 214 q 1115 0 1114 72 l 949 0 m 1050 839 l 1050 926 l 1244 926 l 1244 850 l 1069 839 l 1050 839 z "},"N":{"ha":1058,"x_min":50,"x_max":1014,"o":"m 50 0 l 50 76 l 203 88 l 246 88 l 413 76 l 413 0 l 50 0 m 178 0 l 178 892 l 244 892 l 264 433 l 264 0 l 178 0 m 654 850 l 654 926 l 1014 926 l 1014 850 l 867 839 l 825 839 l 654 850 m 800 -8 l 250 776 l 222 776 l 196 844 l 54 850 l 54 926 l 326 926 l 818 219 l 815 215 l 801 510 l 801 926 l 889 926 l 889 -8 l 800 -8 z "},"O":{"ha":1028,"x_min":64,"x_max":964,"o":"m 514 -22 q 340 10 422 -22 q 196 103 258 42 q 99 256 133 165 q 64 461 64 346 q 99 665 64 575 q 197 819 135 756 q 340 915 258 882 q 514 949 422 949 q 687 917 606 949 q 831 823 768 885 q 928 672 893 761 q 964 467 964 583 q 928 263 964 353 q 831 108 893 172 q 688 11 769 44 q 514 -22 606 -22 m 514 60 q 635 92 585 60 q 720 179 686 124 q 770 308 754 235 q 786 464 786 381 q 770 619 786 546 q 720 747 754 692 q 635 835 686 803 q 514 867 585 867 q 393 835 444 867 q 308 747 342 803 q 257 619 274 692 q 240 464 240 547 q 257 308 240 382 q 308 179 274 235 q 393 92 342 124 q 514 60 444 60 z "},"P":{"ha":874,"x_min":50,"x_max":831,"o":"m 50 0 l 50 76 l 238 88 l 296 88 l 493 76 l 493 0 l 50 0 m 181 0 q 182 142 182 71 q 182 285 182 213 q 182 429 182 357 l 182 499 q 182 641 182 569 q 182 784 182 713 q 181 926 182 856 l 349 926 q 348 785 349 856 q 347 642 347 714 q 347 499 347 571 l 347 407 q 347 277 347 344 q 348 141 347 210 q 349 0 349 72 l 181 0 m 272 360 l 272 436 l 419 436 q 562 462 508 436 q 640 535 615 488 q 664 647 664 582 q 608 798 664 747 q 426 849 551 849 l 283 849 l 283 926 l 442 926 q 658 892 572 926 q 788 797 744 858 q 831 650 831 735 q 788 502 831 568 q 655 398 746 436 q 418 360 564 360 l 272 360 m 50 850 l 50 926 l 244 926 l 244 839 l 226 839 l 50 850 z "},"Q":{"ha":1028,"x_min":64,"x_max":964,"o":"m 725 -300 q 566 -262 632 -300 q 465 -158 500 -225 q 432 -3 431 -90 l 432 28 l 590 28 q 608 -101 586 -49 q 674 -179 629 -153 q 782 -206 718 -206 q 841 -201 813 -206 q 893 -189 869 -196 l 913 -256 q 833 -287 881 -275 q 725 -300 785 -300 m 514 -22 q 340 10 422 -22 q 196 103 258 42 q 99 256 133 165 q 64 461 64 346 q 99 665 64 575 q 197 819 135 756 q 340 915 258 882 q 514 949 422 949 q 687 917 606 949 q 831 823 768 885 q 928 672 893 761 q 964 467 964 583 q 928 263 964 353 q 831 108 893 172 q 688 11 769 44 q 514 -22 606 -22 m 514 60 q 635 92 585 60 q 720 179 686 124 q 770 308 754 235 q 786 464 786 381 q 770 619 786 546 q 720 747 754 692 q 635 835 686 803 q 514 867 585 867 q 393 835 444 867 q 308 747 342 803 q 257 619 274 692 q 240 464 240 547 q 257 308 240 382 q 308 179 274 235 q 393 92 342 124 q 514 60 444 60 z "},"R":{"ha":969,"x_min":50,"x_max":947,"o":"m 50 0 l 50 76 l 238 88 l 293 88 l 478 76 l 478 0 l 50 0 m 181 0 q 182 142 182 71 q 182 285 182 214 q 182 429 182 357 l 182 499 q 182 641 182 569 q 182 784 182 713 q 181 926 182 856 l 349 926 q 348 782 349 854 q 347 636 347 710 q 347 485 347 563 l 347 438 q 347 289 347 363 q 348 144 347 215 q 349 0 349 72 l 181 0 m 825 -14 q 708 13 749 -14 q 650 106 667 39 l 606 288 q 572 371 593 342 q 518 412 550 400 q 435 424 486 424 l 269 424 l 269 497 l 454 497 q 575 521 528 497 q 644 586 622 544 q 667 681 667 628 q 617 807 667 765 q 461 849 567 849 l 283 849 l 283 926 l 481 926 q 744 864 651 926 q 836 689 836 801 q 799 576 836 625 q 694 499 763 528 q 535 465 626 469 l 535 457 q 628 445 589 456 q 694 414 667 435 q 741 359 722 393 q 774 275 760 325 l 839 40 l 772 89 l 947 74 l 947 0 q 911 -7 931 -4 q 871 -12 892 -10 q 825 -14 850 -14 m 50 850 l 50 926 l 244 926 l 244 839 l 226 839 l 50 850 z "},"S":{"ha":767,"x_min":56,"x_max":704,"o":"m 350 -22 q 181 0 258 -22 q 56 50 103 22 l 60 257 l 156 257 l 196 46 l 104 65 l 104 143 q 179 98 143 117 q 256 69 215 79 q 347 58 296 58 q 461 78 415 58 q 529 134 507 99 q 551 215 551 169 q 535 285 551 257 q 482 337 518 314 q 388 382 446 360 l 338 401 q 201 469 261 432 q 106 560 140 507 q 72 690 72 614 q 115 830 72 772 q 233 918 158 888 q 403 949 307 949 q 550 928 485 949 q 654 881 615 907 l 650 685 l 556 685 l 514 892 l 607 869 l 607 790 q 511 849 558 829 q 401 868 464 868 q 307 850 347 868 q 245 800 267 832 q 224 725 224 768 q 241 656 224 685 q 293 604 258 626 q 382 560 328 582 l 433 540 q 580 468 519 507 q 672 377 640 429 q 704 249 704 325 q 660 105 704 165 q 537 11 617 44 q 350 -22 457 -22 z "},"T":{"ha":890,"x_min":29,"x_max":861,"o":"m 217 0 l 217 76 l 415 88 l 474 88 l 675 76 l 675 0 l 217 0 m 361 0 q 363 142 363 71 q 363 285 363 213 q 363 429 363 357 l 363 499 q 363 641 363 569 q 363 784 363 713 q 361 926 363 856 l 529 926 q 528 785 529 856 q 528 642 528 714 q 528 499 528 571 l 528 429 q 528 286 528 358 q 528 143 528 214 q 529 0 529 72 l 361 0 m 29 668 l 39 926 l 851 926 l 861 668 l 771 668 l 722 910 l 792 844 l 99 844 l 168 910 l 121 668 l 29 668 z "},"U":{"ha":1051,"x_min":43,"x_max":1013,"o":"m 531 -22 q 340 17 421 -22 q 213 139 258 57 q 168 347 168 221 l 168 500 q 168 643 168 572 q 168 785 168 714 q 167 926 168 856 l 335 926 q 334 786 335 857 q 333 644 333 715 q 333 500 333 572 l 333 376 q 361 203 333 269 q 441 108 389 138 q 565 78 493 78 q 692 109 640 78 q 772 209 744 140 q 800 386 800 278 l 800 926 l 886 926 l 886 371 q 843 150 886 238 q 720 20 800 63 q 531 -22 640 -22 m 43 850 l 43 926 l 476 926 l 476 850 l 293 839 l 219 839 l 43 850 m 656 850 l 656 926 l 1013 926 l 1013 850 l 858 840 l 819 840 l 656 850 z "},"V":{"ha":983,"x_min":18,"x_max":969,"o":"m 442 -7 l 97 926 l 274 926 l 543 131 l 538 131 l 592 335 l 793 926 l 885 926 l 558 -7 l 442 -7 m 18 850 l 18 926 l 440 926 l 440 847 l 258 839 l 190 839 l 18 850 m 636 847 l 636 926 l 969 926 l 969 850 l 824 839 l 788 839 l 636 847 z "},"W":{"ha":1406,"x_min":18,"x_max":1393,"o":"m 371 -4 l 101 926 l 275 926 l 478 143 l 474 143 l 513 354 l 688 926 l 797 926 l 1018 140 l 1015 140 l 1057 356 l 1214 926 l 1304 926 l 1035 -4 l 914 -4 l 703 760 l 710 760 l 672 586 l 494 -4 l 371 -4 m 18 850 l 18 926 l 421 926 l 421 850 l 257 839 l 179 839 l 18 850 m 546 850 l 546 926 l 951 926 l 951 850 l 790 839 l 711 839 l 546 850 m 1071 850 l 1071 926 l 1393 926 l 1393 850 l 1251 839 l 1214 839 l 1071 850 z "},"X":{"ha":938,"x_min":15,"x_max":924,"o":"m 15 0 l 15 76 l 178 86 l 207 86 l 350 76 l 350 0 l 15 0 m 79 0 l 414 486 l 478 433 l 436 433 l 385 324 l 182 0 l 79 0 m 500 0 l 500 76 l 678 88 l 744 88 l 924 76 l 924 0 l 500 0 m 517 463 l 457 526 l 503 526 l 547 626 l 732 926 l 835 926 l 517 463 m 675 0 l 88 926 l 272 926 l 858 0 l 675 0 m 22 850 l 22 926 l 442 926 l 442 850 l 265 839 l 197 839 l 22 850 m 563 850 l 563 926 l 896 926 l 896 850 l 744 840 l 706 840 l 563 850 z "},"Y":{"ha":926,"x_min":24,"x_max":911,"o":"m 235 0 l 235 76 l 435 88 l 492 88 l 693 76 l 693 0 l 235 0 m 379 0 q 381 99 381 50 q 381 200 381 149 q 382 306 382 251 q 382 419 382 361 l 546 419 q 546 307 546 361 q 547 201 546 253 q 547 100 547 150 q 549 0 547 50 l 379 0 m 404 294 l 83 926 l 272 926 l 519 403 l 504 403 l 563 547 l 743 926 l 840 926 l 521 294 l 404 294 m 24 850 l 24 926 l 440 926 l 440 850 l 267 839 l 185 839 l 24 850 m 578 850 l 578 926 l 911 926 l 911 850 l 775 839 l 729 839 l 578 850 z "},"Z":{"ha":818,"x_min":33,"x_max":785,"o":"m 33 0 l 33 61 l 592 882 l 572 817 l 572 857 l 361 847 l 135 847 l 194 893 l 143 668 l 51 668 l 61 926 l 757 926 l 757 865 l 197 44 l 217 108 l 217 69 l 443 79 l 701 79 l 642 33 l 693 260 l 785 260 l 775 0 l 33 0 z "},"a":{"ha":760,"x_min":61,"x_max":751,"o":"m 251 -21 q 117 26 172 -21 q 61 161 61 74 q 83 252 61 213 q 157 323 106 292 q 297 379 208 354 q 375 400 336 390 q 452 421 414 410 q 529 442 490 432 l 529 383 q 433 354 481 369 q 336 324 385 339 q 257 288 285 308 q 219 242 229 267 q 208 190 208 218 q 239 111 208 139 q 321 83 269 83 q 379 95 353 83 q 435 129 406 107 q 506 186 465 151 l 514 108 l 463 108 q 408 43 436 72 q 342 -3 379 14 q 251 -21 306 -21 m 618 -17 q 517 22 554 -17 q 475 135 479 61 l 471 138 l 471 465 q 456 564 471 528 q 410 615 442 600 q 331 631 379 631 q 265 624 297 631 q 200 604 233 618 l 260 663 l 242 542 q 214 471 236 493 q 157 449 192 449 q 103 467 122 449 q 79 511 85 485 q 174 651 96 599 q 374 703 251 703 q 506 678 451 703 q 590 601 561 654 q 619 458 619 547 l 619 150 q 634 96 619 113 q 674 79 649 79 q 703 85 690 79 q 728 99 717 90 l 751 50 q 697 1 729 19 q 618 -17 664 -17 z "},"b":{"ha":867,"x_min":42,"x_max":807,"o":"m 51 0 l 51 67 l 156 86 q 156 158 156 121 q 156 231 156 194 q 157 299 157 267 l 157 886 l 42 907 l 42 967 l 267 1017 l 307 1011 l 304 831 l 300 560 l 306 551 l 306 129 l 303 128 l 286 -11 l 51 0 m 517 -18 q 427 -2 465 -18 q 359 46 389 14 q 303 124 329 78 l 251 124 l 258 215 q 360 113 311 147 q 468 79 410 79 q 560 107 519 79 q 624 192 600 135 q 647 339 647 250 q 598 537 647 472 q 472 601 549 601 q 401 586 435 601 q 332 541 367 571 q 257 467 297 511 l 250 560 l 306 560 q 365 637 333 606 q 437 685 397 668 q 529 703 476 703 q 670 662 607 703 q 770 541 733 621 q 807 346 807 461 q 769 151 807 233 q 665 26 731 69 q 517 -18 599 -18 z "},"c":{"ha":728,"x_min":61,"x_max":681,"o":"m 400 -18 q 219 25 296 -18 q 102 147 143 68 q 61 335 61 226 q 106 528 61 446 q 230 657 151 611 q 404 703 308 703 q 540 679 482 703 q 633 617 597 656 q 679 532 668 578 q 656 480 674 499 q 603 461 638 461 q 544 484 565 461 q 515 544 524 507 l 482 668 l 568 597 q 503 622 538 613 q 425 631 468 631 q 318 598 365 631 q 245 503 271 565 q 219 353 219 442 q 247 205 219 264 q 324 117 275 146 q 438 88 374 88 q 515 99 481 88 q 577 132 549 111 q 629 181 606 153 l 681 135 q 618 58 654 93 q 529 3 582 24 q 400 -18 476 -18 z "},"d":{"ha":858,"x_min":61,"x_max":817,"o":"m 346 -18 q 199 24 264 -18 q 98 147 135 67 q 61 338 61 226 q 100 533 61 451 q 206 659 139 615 q 354 703 272 703 q 440 688 404 703 q 504 644 476 672 q 557 576 532 615 l 608 576 l 601 482 q 502 575 547 544 q 403 606 457 606 q 310 578 351 606 q 244 492 268 550 q 219 342 219 433 q 243 196 219 253 q 308 111 267 139 q 403 83 350 83 q 508 116 463 83 q 601 214 553 149 l 608 119 l 557 119 q 507 48 535 79 q 440 -1 479 17 q 346 -18 401 -18 m 578 -10 l 564 135 l 560 138 l 560 550 l 567 560 l 563 886 l 446 907 l 446 967 l 672 1017 l 713 1011 l 710 831 l 710 86 l 817 67 l 817 0 l 578 -10 z "},"e":{"ha":744,"x_min":61,"x_max":689,"o":"m 401 -18 q 219 24 296 -18 q 102 146 143 67 q 61 333 61 225 q 103 526 61 443 q 222 656 146 610 q 394 703 297 703 q 546 669 482 703 q 645 573 610 635 q 681 425 681 511 q 678 374 681 399 q 671 332 675 350 l 151 332 l 151 400 l 493 400 q 530 429 521 411 q 539 474 539 447 q 522 560 539 525 q 472 612 504 594 q 394 629 439 629 q 304 601 344 629 q 240 511 264 572 q 215 351 215 450 q 244 206 215 265 q 323 116 272 147 q 442 85 374 85 q 558 110 511 85 q 643 179 606 136 l 689 140 q 622 58 660 94 q 530 2 583 22 q 401 -18 476 -18 z "},"f":{"ha":515,"x_min":49,"x_max":631,"o":"m 51 0 l 51 71 l 197 85 l 279 85 l 440 71 l 440 0 l 51 0 m 158 0 q 160 100 160 50 q 160 200 160 150 q 161 299 161 250 l 161 599 l 49 599 l 49 668 l 207 690 l 163 650 l 165 675 q 185 799 171 747 q 224 888 200 850 q 282 958 249 926 q 374 1014 322 996 q 481 1032 425 1032 q 578 1012 538 1032 q 631 950 618 992 q 608 898 631 919 q 544 876 586 876 q 485 893 511 876 q 429 938 458 910 l 378 988 l 400 983 l 404 983 l 422 989 q 392 975 404 983 q 365 947 379 967 q 339 897 350 924 q 321 833 328 869 q 312 749 314 797 q 311 638 310 701 l 311 299 q 312 200 311 250 q 313 100 313 150 q 314 0 313 50 l 158 0 m 243 599 l 243 683 l 483 683 l 483 599 l 243 599 z "},"g":{"ha":785,"x_min":43,"x_max":747,"o":"m 344 -326 q 178 -304 246 -326 q 77 -244 111 -282 q 43 -157 43 -206 q 64 -86 43 -117 q 128 -32 85 -56 q 242 10 172 -8 l 251 0 q 211 -39 228 -18 q 186 -83 194 -60 q 178 -132 178 -106 q 198 -194 178 -167 q 259 -236 218 -221 q 365 -251 300 -251 q 493 -233 442 -251 q 571 -183 544 -214 q 597 -115 597 -151 q 566 -44 597 -71 q 468 -17 535 -17 l 289 -17 q 243 -16 265 -17 q 200 -14 221 -15 l 200 13 q 113 47 146 22 q 81 121 81 72 q 113 197 81 165 q 204 258 144 229 l 204 292 l 274 281 q 224 229 240 251 q 208 179 208 207 q 232 128 208 146 q 310 111 256 111 l 486 111 q 623 88 569 111 q 702 22 676 64 q 728 -75 728 -19 q 700 -172 728 -126 q 621 -251 672 -217 q 499 -306 569 -286 q 344 -326 429 -326 m 350 239 q 206 266 268 239 q 108 345 143 293 q 74 469 74 397 q 108 593 74 540 q 206 674 143 646 q 350 703 268 703 q 450 690 407 703 q 524 653 493 676 q 574 601 556 631 l 586 600 q 616 544 606 575 q 626 472 626 513 q 592 349 626 401 q 495 267 557 296 q 350 239 433 239 m 350 307 q 422 327 392 307 q 467 385 451 347 q 483 472 483 422 q 468 559 483 522 q 423 615 453 596 q 351 635 393 635 q 281 615 311 635 q 234 558 250 594 q 218 471 218 521 q 234 384 218 421 q 279 327 250 347 q 350 307 308 307 m 535 574 l 535 617 l 571 617 l 700 710 l 747 703 l 747 574 l 535 574 z "},"h":{"ha":896,"x_min":42,"x_max":860,"o":"m 51 0 l 51 71 l 204 85 l 260 85 l 406 71 l 406 0 l 51 0 m 154 0 q 156 93 156 42 q 156 199 156 144 q 157 299 157 253 l 157 886 l 42 907 l 42 967 l 267 1017 l 307 1011 l 304 831 l 303 539 l 306 529 l 306 299 q 306 199 306 253 q 307 93 307 144 q 308 0 307 42 l 154 0 m 508 0 l 508 71 l 656 85 l 711 85 l 860 71 l 860 0 l 508 0 m 606 0 q 607 93 607 42 q 608 198 607 144 q 608 299 608 251 l 608 435 q 582 550 608 517 q 494 583 556 583 q 426 573 461 583 q 357 542 392 563 q 286 489 322 521 l 274 557 l 318 557 q 382 631 346 599 q 462 683 418 664 q 558 703 506 703 q 708 642 657 703 q 758 458 758 582 l 758 299 q 758 198 758 251 q 759 93 758 144 q 760 0 760 42 l 606 0 z "},"i":{"ha":461,"x_min":47,"x_max":411,"o":"m 54 0 l 54 71 l 207 85 l 263 85 l 411 71 l 411 0 l 54 0 m 157 0 q 158 93 158 42 q 159 199 158 144 q 160 299 160 253 l 160 371 q 159 465 160 422 q 157 551 158 507 l 47 557 l 47 621 l 271 694 l 311 688 l 310 513 l 310 299 q 310 199 310 253 q 310 93 310 144 q 311 0 311 42 l 157 0 m 231 824 q 160 852 189 824 q 131 921 131 881 q 160 991 131 964 q 231 1018 189 1018 q 302 991 274 1018 q 331 921 331 964 q 302 852 331 881 q 231 824 274 824 z "},"j":{"ha":428,"x_min":-108,"x_max":325,"o":"m 32 -335 q -43 -322 -14 -335 q -87 -289 -72 -308 q -108 -250 -103 -269 q -76 -197 -100 -217 q -14 -178 -53 -178 q 49 -194 24 -178 q 94 -237 75 -211 l 136 -286 l 118 -283 l 117 -283 l 106 -282 q 124 -249 117 -265 q 138 -201 132 -232 q 148 -123 144 -169 q 153 -10 151 -76 q 154 147 154 57 l 154 371 q 153 465 154 422 q 151 551 153 507 l 42 557 l 42 621 l 263 694 l 304 688 l 301 513 l 301 129 q 295 -33 301 33 q 273 -147 289 -100 q 228 -232 257 -194 q 147 -308 193 -281 q 32 -335 100 -335 m 225 824 q 154 852 183 824 q 125 921 125 881 q 154 991 125 964 q 225 1018 183 1018 q 297 991 268 1018 q 325 921 325 964 q 297 852 325 881 q 225 824 268 824 z "},"k":{"ha":839,"x_min":42,"x_max":826,"o":"m 49 0 l 49 71 l 203 85 l 258 85 l 414 71 l 414 0 l 49 0 m 154 0 q 156 72 156 35 q 156 148 156 110 q 157 224 157 186 q 157 299 157 263 l 157 886 l 42 907 l 42 967 l 268 1017 l 308 1011 l 306 831 l 306 300 q 306 225 306 263 q 306 149 306 188 q 307 72 307 110 q 308 0 307 35 l 154 0 m 238 200 l 238 310 l 285 310 l 463 504 l 642 683 l 753 683 l 238 200 m 603 0 l 385 378 l 485 476 l 729 82 l 826 68 l 826 0 l 603 0 m 443 617 l 443 685 l 796 685 l 796 617 l 628 599 l 594 594 l 443 617 z "},"l":{"ha":463,"x_min":42,"x_max":415,"o":"m 49 0 l 49 71 l 203 85 l 258 85 l 415 71 l 415 0 l 49 0 m 154 0 q 156 100 156 50 q 156 200 156 150 q 157 299 157 250 l 157 886 l 42 907 l 42 967 l 268 1017 l 308 1011 l 306 831 l 306 299 q 306 200 306 250 q 307 100 307 150 q 308 0 307 50 l 154 0 z "},"m":{"ha":1331,"x_min":47,"x_max":1293,"o":"m 56 0 l 56 71 l 208 85 l 264 85 l 407 71 l 407 0 l 56 0 m 158 0 q 159 93 158 42 q 160 199 160 144 q 160 299 160 253 l 160 372 q 160 438 160 408 q 159 494 160 467 q 158 551 158 522 l 47 557 l 47 621 l 244 694 l 285 688 l 304 538 l 310 536 l 310 299 q 310 199 310 253 q 311 93 311 144 q 313 0 311 42 l 158 0 m 501 0 l 501 71 l 649 85 l 704 85 l 850 71 l 850 0 l 501 0 m 599 0 q 600 93 600 42 q 601 198 600 144 q 601 299 601 251 l 601 433 q 576 549 601 515 q 490 583 550 583 q 423 573 457 583 q 355 542 389 563 q 285 492 321 521 l 276 554 l 313 554 q 378 629 342 596 q 458 683 414 663 q 553 703 501 703 q 701 642 653 703 q 750 460 750 582 l 750 299 q 751 198 750 251 q 751 93 751 144 q 753 0 751 42 l 599 0 m 942 0 l 942 71 l 1089 85 l 1144 85 l 1293 71 l 1293 0 l 942 0 m 1040 0 q 1041 93 1040 42 q 1042 198 1042 144 q 1042 299 1042 251 l 1042 435 q 1015 551 1042 518 q 929 583 989 583 q 864 574 897 583 q 797 543 831 564 q 725 492 763 522 l 714 554 l 750 554 q 817 633 781 599 q 898 685 854 667 q 993 703 942 703 q 1141 644 1092 703 q 1190 464 1190 585 l 1190 299 q 1191 198 1190 251 q 1192 93 1192 144 q 1193 0 1192 42 l 1040 0 z "},"n":{"ha":899,"x_min":47,"x_max":861,"o":"m 56 0 l 56 71 l 208 85 l 264 85 l 407 71 l 407 0 l 56 0 m 158 0 q 159 93 158 42 q 160 199 160 144 q 160 299 160 253 l 160 372 q 160 438 160 408 q 159 494 160 467 q 158 551 158 522 l 47 557 l 47 621 l 244 694 l 285 688 l 304 538 l 310 536 l 310 299 q 310 199 310 253 q 311 93 311 144 q 313 0 311 42 l 158 0 m 510 0 l 510 71 l 657 85 l 713 85 l 861 71 l 861 0 l 510 0 m 607 0 q 608 93 608 42 q 609 198 608 144 q 610 299 610 251 l 610 435 q 583 550 610 517 q 496 583 556 583 q 427 573 461 583 q 358 542 393 563 q 286 492 322 522 l 278 558 l 315 558 q 381 633 344 600 q 463 684 418 665 q 560 703 508 703 q 709 642 658 703 q 760 460 760 582 l 760 299 q 760 198 760 251 q 760 93 760 144 q 761 0 761 42 l 607 0 z "},"o":{"ha":811,"x_min":61,"x_max":750,"o":"m 406 -18 q 235 23 314 -18 q 108 144 156 64 q 61 340 61 225 q 109 537 61 456 q 235 660 157 618 q 406 703 314 703 q 575 661 496 703 q 702 540 654 619 q 750 344 750 460 q 702 148 750 229 q 576 24 654 67 q 406 -18 497 -18 m 406 58 q 504 89 464 58 q 567 182 544 119 q 589 340 589 244 q 567 500 589 436 q 504 595 544 564 q 406 626 464 626 q 306 595 347 626 q 244 501 265 564 q 224 343 224 439 q 244 183 224 246 q 306 89 265 119 q 406 58 347 58 z "},"p":{"ha":871,"x_min":50,"x_max":810,"o":"m 54 -321 l 54 -250 l 208 -236 l 268 -236 l 436 -250 l 436 -321 l 54 -321 m 160 -321 q 161 -226 161 -272 q 162 -133 161 -179 q 163 -40 163 -86 l 163 372 q 162 438 163 408 q 161 494 161 467 q 160 551 161 522 l 50 557 l 50 621 l 247 694 l 288 688 l 304 560 l 313 556 l 313 121 l 306 117 l 311 -50 q 311 -138 311 -93 q 312 -228 311 -183 q 313 -321 313 -274 l 160 -321 m 521 -18 q 432 -2 469 -18 q 365 44 394 14 q 310 118 335 75 l 256 118 l 263 215 q 362 114 314 149 q 469 79 410 79 q 563 106 522 79 q 626 191 603 133 q 650 338 650 249 q 601 536 650 471 q 476 601 553 601 q 404 586 439 601 q 335 541 369 571 q 260 467 300 511 l 254 561 l 310 561 q 369 636 338 604 q 440 685 400 668 q 532 703 479 703 q 673 661 610 703 q 773 540 736 619 q 810 344 810 460 q 772 149 810 231 q 668 25 733 68 q 521 -18 603 -18 z "},"q":{"ha":843,"x_min":61,"x_max":819,"o":"m 439 -321 l 439 -250 l 607 -236 l 665 -236 l 819 -250 l 819 -321 l 439 -321 m 346 -18 q 199 24 264 -18 q 98 146 135 67 q 61 338 61 225 q 100 533 61 451 q 206 659 139 615 q 356 703 272 703 q 441 688 404 703 q 508 643 478 672 q 564 575 538 614 l 611 575 l 604 482 q 503 576 549 546 q 403 606 457 606 q 310 577 351 606 q 244 491 268 549 q 219 342 219 433 q 243 195 219 253 q 308 110 267 138 q 403 83 350 83 q 508 117 464 83 q 601 213 553 150 l 608 122 l 560 122 q 506 48 535 79 q 439 -1 478 17 q 346 -18 400 -18 m 563 -321 q 564 -228 564 -275 q 565 -136 564 -182 q 565 -44 565 -90 l 571 118 l 563 128 l 563 574 l 567 575 l 661 696 l 714 689 l 713 515 l 713 -42 q 713 -135 713 -89 q 713 -227 713 -181 q 714 -321 714 -274 l 563 -321 z "},"r":{"ha":646,"x_min":50,"x_max":629,"o":"m 58 0 l 58 71 l 211 85 l 272 85 l 444 71 l 444 0 l 58 0 m 160 0 q 161 93 161 42 q 162 199 161 144 q 163 299 163 253 l 163 372 q 162 438 163 408 q 161 494 161 467 q 160 551 161 522 l 50 557 l 50 621 l 249 694 l 289 688 l 303 500 l 313 499 l 313 299 q 313 199 313 253 q 313 93 313 144 q 314 0 314 42 l 160 0 m 297 389 l 285 496 l 319 496 q 372 606 342 560 q 438 676 401 651 q 519 700 475 700 q 591 678 563 700 q 629 626 619 657 q 603 550 626 581 q 533 519 579 519 q 481 532 504 519 q 439 564 458 544 l 407 596 l 479 597 q 369 512 413 567 q 297 389 325 457 z "},"s":{"ha":653,"x_min":64,"x_max":594,"o":"m 303 -18 q 173 -4 232 -18 q 67 32 114 10 l 64 200 l 154 200 l 189 31 l 121 31 l 121 100 q 202 67 156 79 q 303 54 249 54 q 388 68 354 54 q 436 106 421 82 q 451 160 451 131 q 421 228 451 203 q 319 276 390 254 l 272 292 q 163 340 208 313 q 93 406 118 367 q 68 497 68 444 q 101 603 68 557 q 194 676 133 650 q 340 703 256 703 q 456 689 401 703 q 556 651 511 675 l 550 496 l 463 496 l 432 650 l 490 650 l 490 590 q 420 621 457 611 q 340 631 383 631 q 241 604 274 631 q 208 536 208 578 q 237 472 208 496 q 338 424 265 449 l 376 411 q 498 358 450 389 q 570 289 546 328 q 594 196 594 250 q 560 86 594 135 q 460 10 525 38 q 303 -18 394 -18 z "},"t":{"ha":504,"x_min":24,"x_max":492,"o":"m 217 599 l 217 683 l 474 683 l 474 599 l 217 599 m 319 -15 q 188 28 238 -15 q 138 168 138 72 q 138 221 138 194 q 139 281 139 247 l 139 599 l 24 599 l 24 668 l 199 690 l 143 646 l 199 876 l 299 876 l 283 639 l 289 625 l 289 181 q 311 104 289 128 q 374 81 333 81 q 419 88 399 81 q 460 107 440 96 l 492 53 q 453 19 478 35 q 394 -6 428 3 q 319 -15 361 -15 z "},"u":{"ha":881,"x_min":28,"x_max":836,"o":"m 333 -18 q 185 40 238 -18 q 133 225 132 99 l 136 621 l 181 569 l 28 601 l 28 663 l 249 690 l 286 682 l 283 510 l 283 247 q 310 134 283 168 q 394 100 338 100 q 466 112 431 100 q 537 146 501 124 q 607 199 572 168 l 618 133 l 579 133 q 511 53 549 88 q 430 1 474 19 q 333 -18 386 -18 m 604 -12 l 589 146 l 583 147 l 585 581 l 478 601 l 478 663 l 696 690 l 735 682 l 732 510 l 732 85 l 836 64 l 836 0 l 604 -12 z "},"v":{"ha":806,"x_min":15,"x_max":785,"o":"m 344 -4 l 68 685 l 239 685 l 449 110 l 440 110 l 479 267 l 631 685 l 729 685 l 451 -4 l 344 -4 m 15 617 l 15 685 l 388 685 l 388 617 l 233 597 l 143 597 l 15 617 m 492 617 l 492 685 l 785 685 l 785 617 l 671 599 l 631 599 l 492 617 z "},"w":{"ha":1171,"x_min":15,"x_max":1149,"o":"m 306 -4 l 71 685 l 235 685 l 403 117 l 397 117 l 425 256 l 572 685 l 665 685 l 844 118 l 839 118 l 867 265 l 994 685 l 1094 685 l 853 -4 l 747 -4 l 579 524 l 586 524 l 564 411 l 417 -4 l 306 -4 m 15 617 l 15 685 l 363 685 l 363 617 l 210 599 l 153 599 l 15 617 m 449 617 l 449 685 l 788 685 l 788 617 l 660 601 l 586 601 l 449 617 m 874 617 l 874 685 l 1149 685 l 1149 617 l 1040 599 l 1000 599 l 874 617 z "},"x":{"ha":801,"x_min":24,"x_max":778,"o":"m 24 0 l 24 71 l 150 81 l 193 81 l 318 71 l 318 0 l 24 0 m 57 1 l 356 388 l 407 329 l 372 329 l 274 160 l 167 1 l 57 1 m 407 0 l 407 71 l 558 85 l 629 85 l 778 71 l 778 0 l 407 0 m 438 314 l 390 371 l 422 371 l 521 533 l 624 683 l 731 683 l 438 314 m 564 0 l 339 314 l 63 685 l 233 685 l 450 386 l 742 0 l 564 0 m 29 617 l 29 685 l 385 685 l 385 617 l 244 599 l 178 599 l 29 617 m 475 617 l 475 685 l 757 685 l 757 617 l 629 599 l 594 599 l 475 617 z "},"y":{"ha":818,"x_min":8,"x_max":803,"o":"m 157 -336 q 82 -324 114 -336 q 31 -290 50 -311 q 8 -243 13 -268 q 42 -193 17 -211 q 107 -175 68 -175 q 168 -190 142 -175 q 219 -233 194 -204 l 257 -278 l 214 -287 l 222 -274 q 290 -215 260 -249 q 344 -137 319 -181 q 390 -42 369 -93 l 415 21 l 438 26 l 546 385 l 651 685 l 749 685 l 475 -14 q 387 -194 432 -124 q 286 -301 342 -265 q 157 -336 231 -336 m 388 -101 l 72 685 l 243 685 l 451 89 l 482 75 l 388 -101 m 18 618 l 18 685 l 392 685 l 392 618 l 231 601 l 158 601 l 18 618 m 507 618 l 507 685 l 803 685 l 803 618 l 686 601 l 646 601 l 507 618 z "},"z":{"ha":686,"x_min":42,"x_max":646,"o":"m 42 0 l 42 61 l 469 635 l 465 599 l 460 624 l 314 614 l 138 614 l 189 663 l 140 463 l 53 465 l 64 685 l 626 685 l 626 624 l 200 50 l 210 92 l 210 61 l 368 71 l 558 71 l 510 21 l 558 235 l 646 235 l 633 0 l 42 0 z "},"À":{"ha":989,"x_min":17,"x_max":968,"o":"m 17 0 l 17 76 l 160 88 l 189 88 l 346 76 l 346 0 l 17 0 m 100 0 l 426 932 l 558 932 l 888 0 l 714 0 l 442 806 l 443 806 l 411 667 l 188 0 l 100 0 m 257 286 l 257 364 l 678 364 l 678 286 l 257 286 m 550 0 l 550 76 l 731 88 l 788 88 l 968 76 l 968 0 l 550 0 m 594 1040 l 557 990 q 467 1038 511 1014 q 376 1083 422 1061 q 323 1124 339 1104 q 307 1165 307 1143 q 324 1206 307 1190 q 367 1221 340 1221 q 409 1210 389 1221 q 457 1172 429 1199 q 526 1107 492 1140 q 594 1040 561 1074 z "},"Á":{"ha":989,"x_min":17,"x_max":968,"o":"m 17 0 l 17 76 l 160 88 l 189 88 l 346 76 l 346 0 l 17 0 m 100 0 l 426 932 l 558 932 l 888 0 l 714 0 l 442 806 l 443 806 l 411 667 l 188 0 l 100 0 m 257 286 l 257 364 l 678 364 l 678 286 l 257 286 m 550 0 l 550 76 l 731 88 l 788 88 l 968 76 l 968 0 l 550 0 m 386 1040 q 455 1108 421 1075 q 524 1172 489 1140 q 572 1210 551 1199 q 614 1221 592 1221 q 657 1206 640 1221 q 674 1165 674 1190 q 658 1124 674 1143 q 604 1085 642 1104 q 514 1038 558 1061 q 424 990 469 1014 l 386 1040 z "},"Â":{"ha":989,"x_min":17,"x_max":968,"o":"m 17 0 l 17 76 l 160 88 l 189 88 l 346 76 l 346 0 l 17 0 m 100 0 l 426 932 l 558 932 l 888 0 l 714 0 l 442 806 l 443 806 l 411 667 l 188 0 l 100 0 m 257 286 l 257 364 l 678 364 l 678 286 l 257 286 m 550 0 l 550 76 l 731 88 l 788 88 l 968 76 l 968 0 l 550 0 m 524 1200 l 711 1028 l 676 983 l 432 1128 l 549 1128 l 304 983 l 269 1028 l 457 1200 l 524 1200 z "},"Ã":{"ha":989,"x_min":17,"x_max":968,"o":"m 17 0 l 17 76 l 160 88 l 189 88 l 346 76 l 346 0 l 17 0 m 100 0 l 426 932 l 558 932 l 888 0 l 714 0 l 442 806 l 443 806 l 411 667 l 188 0 l 100 0 m 257 286 l 257 364 l 678 364 l 678 286 l 257 286 m 550 0 l 550 76 l 731 88 l 788 88 l 968 76 l 968 0 l 550 0 m 236 1018 q 288 1149 250 1103 q 386 1196 325 1196 q 448 1184 421 1196 q 500 1153 475 1172 q 548 1121 524 1136 q 601 1106 572 1106 q 653 1128 632 1106 q 688 1194 674 1151 l 744 1176 q 693 1046 729 1093 q 594 999 657 999 q 534 1010 561 999 q 483 1039 507 1022 q 433 1073 457 1057 q 379 1089 410 1089 q 328 1067 349 1089 q 293 1001 307 1044 l 236 1018 z "},"Ä":{"ha":989,"x_min":17,"x_max":968,"o":"m 17 0 l 17 76 l 160 88 l 189 88 l 346 76 l 346 0 l 17 0 m 100 0 l 426 932 l 558 932 l 888 0 l 714 0 l 442 806 l 443 806 l 411 667 l 188 0 l 100 0 m 257 286 l 257 364 l 678 364 l 678 286 l 257 286 m 550 0 l 550 76 l 731 88 l 788 88 l 968 76 l 968 0 l 550 0 m 331 1022 q 267 1047 294 1022 q 240 1111 240 1072 q 267 1174 240 1149 q 331 1199 294 1199 q 394 1174 368 1199 q 421 1111 421 1149 q 394 1047 421 1072 q 331 1022 368 1022 m 650 1022 q 586 1047 613 1022 q 560 1111 560 1072 q 586 1174 560 1149 q 650 1199 613 1199 q 713 1174 686 1199 q 740 1111 740 1149 q 713 1047 740 1072 q 650 1022 686 1022 z "},"Ā":{"ha":989,"x_min":17,"x_max":968,"o":"m 17 0 l 17 76 l 160 88 l 189 88 l 346 76 l 346 0 l 17 0 m 100 0 l 426 932 l 558 932 l 888 0 l 714 0 l 442 806 l 443 806 l 411 667 l 188 0 l 100 0 m 257 286 l 257 364 l 678 364 l 678 286 l 257 286 m 550 0 l 550 76 l 731 88 l 788 88 l 968 76 l 968 0 l 550 0 m 293 1039 l 293 1140 l 688 1140 l 688 1039 l 293 1039 z "},"Ă":{"ha":989,"x_min":17,"x_max":968,"o":"m 17 0 l 17 76 l 160 88 l 189 88 l 346 76 l 346 0 l 17 0 m 100 0 l 426 932 l 558 932 l 888 0 l 714 0 l 442 806 l 443 806 l 411 667 l 188 0 l 100 0 m 257 286 l 257 364 l 678 364 l 678 286 l 257 286 m 550 0 l 550 76 l 731 88 l 788 88 l 968 76 l 968 0 l 550 0 m 282 1192 l 343 1207 q 394 1133 357 1163 q 490 1104 431 1104 q 586 1133 550 1104 q 639 1207 622 1163 l 699 1192 q 665 1100 690 1142 q 597 1033 640 1058 q 490 1008 554 1008 q 383 1033 426 1008 q 316 1100 340 1058 q 282 1192 292 1142 z "},"Ắ":{"ha":989,"x_min":17,"x_max":968,"o":"m 17 0 l 17 76 l 160 88 l 189 88 l 346 76 l 346 0 l 17 0 m 100 0 l 426 932 l 558 932 l 888 0 l 714 0 l 442 806 l 443 806 l 411 667 l 188 0 l 100 0 m 257 286 l 257 364 l 678 364 l 678 286 l 257 286 m 550 0 l 550 76 l 731 88 l 788 88 l 968 76 l 968 0 l 550 0 m 490 1008 q 383 1033 426 1008 q 316 1100 340 1058 q 282 1190 292 1142 l 342 1207 q 394 1132 358 1160 q 490 1104 431 1104 q 588 1132 550 1104 q 640 1206 625 1160 l 699 1190 q 665 1100 690 1142 q 597 1033 640 1058 q 490 1008 554 1008 m 435 1203 l 501 1328 q 535 1374 518 1358 q 578 1389 553 1389 q 620 1374 601 1389 q 639 1335 639 1358 q 628 1296 639 1314 q 590 1254 618 1278 l 482 1161 l 435 1203 z "},"Ặ":{"ha":989,"x_min":17,"x_max":968,"o":"m 17 0 l 17 76 l 160 88 l 189 88 l 346 76 l 346 0 l 17 0 m 100 0 l 426 932 l 558 932 l 888 0 l 714 0 l 442 806 l 443 806 l 411 667 l 188 0 l 100 0 m 257 286 l 257 364 l 678 364 l 678 286 l 257 286 m 550 0 l 550 76 l 731 88 l 788 88 l 968 76 l 968 0 l 550 0 m 282 1192 l 343 1207 q 394 1133 357 1163 q 490 1104 431 1104 q 586 1133 550 1104 q 639 1207 622 1163 l 699 1192 q 665 1100 690 1142 q 597 1033 640 1058 q 490 1008 554 1008 q 383 1033 426 1008 q 316 1100 340 1058 q 282 1192 292 1142 z "},"Ằ":{"ha":989,"x_min":17,"x_max":968,"o":"m 17 0 l 17 76 l 160 88 l 189 88 l 346 76 l 346 0 l 17 0 m 100 0 l 426 932 l 558 932 l 888 0 l 714 0 l 442 806 l 443 806 l 411 667 l 188 0 l 100 0 m 257 286 l 257 364 l 678 364 l 678 286 l 257 286 m 550 0 l 550 76 l 731 88 l 788 88 l 968 76 l 968 0 l 550 0 m 490 1008 q 383 1033 426 1008 q 316 1100 340 1058 q 282 1190 292 1142 l 340 1206 q 394 1132 357 1160 q 490 1104 431 1104 q 586 1132 550 1104 q 639 1207 622 1160 l 699 1190 q 665 1100 690 1142 q 597 1033 640 1058 q 490 1008 554 1008 m 546 1203 l 499 1161 l 390 1254 q 352 1296 363 1278 q 342 1335 342 1314 q 360 1374 342 1358 q 403 1389 379 1389 q 446 1374 428 1389 q 479 1328 464 1358 l 546 1203 z "},"Ẳ":{"ha":989,"x_min":17,"x_max":968,"o":"m 17 0 l 17 76 l 160 88 l 189 88 l 346 76 l 346 0 l 17 0 m 100 0 l 426 932 l 558 932 l 888 0 l 714 0 l 442 806 l 443 806 l 411 667 l 188 0 l 100 0 m 257 286 l 257 364 l 678 364 l 678 286 l 257 286 m 550 0 l 550 76 l 731 88 l 788 88 l 968 76 l 968 0 l 550 0 z "},"Ẵ":{"ha":989,"x_min":17,"x_max":968,"o":"m 17 0 l 17 76 l 160 88 l 189 88 l 346 76 l 346 0 l 17 0 m 100 0 l 426 932 l 558 932 l 888 0 l 714 0 l 442 806 l 443 806 l 411 667 l 188 0 l 100 0 m 257 286 l 257 364 l 678 364 l 678 286 l 257 286 m 550 0 l 550 76 l 731 88 l 788 88 l 968 76 l 968 0 l 550 0 m 258 1232 q 304 1330 271 1293 q 393 1367 338 1367 q 449 1358 424 1367 q 499 1338 474 1350 q 546 1317 525 1326 q 592 1308 567 1308 q 640 1324 619 1308 q 674 1367 660 1339 l 722 1344 q 677 1247 710 1283 q 589 1210 644 1210 q 533 1218 558 1210 q 482 1239 507 1226 q 435 1259 457 1250 q 389 1268 414 1268 q 341 1253 361 1268 q 307 1210 321 1239 l 258 1232 m 490 1008 q 385 1029 426 1008 q 319 1085 343 1050 q 283 1163 294 1121 l 342 1183 q 396 1124 361 1146 q 490 1103 431 1103 q 585 1124 550 1103 q 640 1182 621 1146 l 697 1163 q 662 1085 686 1121 q 596 1029 638 1050 q 490 1008 554 1008 z "},"Ǎ":{"ha":989,"x_min":17,"x_max":968,"o":"m 17 0 l 17 76 l 160 88 l 189 88 l 346 76 l 346 0 l 17 0 m 100 0 l 426 932 l 558 932 l 888 0 l 714 0 l 442 806 l 443 806 l 411 667 l 188 0 l 100 0 m 257 286 l 257 364 l 678 364 l 678 286 l 257 286 m 550 0 l 550 76 l 731 88 l 788 88 l 968 76 l 968 0 l 550 0 m 321 1211 l 553 1057 l 428 1057 l 660 1211 l 699 1172 l 540 1003 l 440 1003 l 282 1172 l 321 1211 z "},"Ấ":{"ha":989,"x_min":17,"x_max":968,"o":"m 17 0 l 17 76 l 160 88 l 189 88 l 346 76 l 346 0 l 17 0 m 100 0 l 426 932 l 558 932 l 888 0 l 714 0 l 442 806 l 443 806 l 411 667 l 188 0 l 100 0 m 257 286 l 257 364 l 678 364 l 678 286 l 257 286 m 550 0 l 550 76 l 731 88 l 788 88 l 968 76 l 968 0 l 550 0 m 304 983 l 269 1028 l 457 1196 l 524 1196 l 711 1028 l 676 983 l 432 1124 l 549 1124 l 304 983 m 681 1115 l 638 1158 l 692 1243 q 729 1287 710 1274 q 771 1300 749 1300 q 813 1285 796 1300 q 829 1246 829 1269 q 816 1206 829 1224 q 767 1167 803 1188 l 681 1115 z "},"Ậ":{"ha":989,"x_min":17,"x_max":968,"o":"m 17 0 l 17 76 l 160 88 l 189 88 l 346 76 l 346 0 l 17 0 m 100 0 l 426 932 l 558 932 l 888 0 l 714 0 l 442 806 l 443 806 l 411 667 l 188 0 l 100 0 m 257 286 l 257 364 l 678 364 l 678 286 l 257 286 m 550 0 l 550 76 l 731 88 l 788 88 l 968 76 l 968 0 l 550 0 m 524 1200 l 711 1028 l 676 983 l 432 1128 l 549 1128 l 304 983 l 269 1028 l 457 1200 l 524 1200 z "},"Ầ":{"ha":989,"x_min":17,"x_max":968,"o":"m 17 0 l 17 76 l 160 88 l 189 88 l 346 76 l 346 0 l 17 0 m 100 0 l 426 932 l 558 932 l 888 0 l 714 0 l 442 806 l 443 806 l 411 667 l 188 0 l 100 0 m 257 286 l 257 364 l 678 364 l 678 286 l 257 286 m 550 0 l 550 76 l 731 88 l 788 88 l 968 76 l 968 0 l 550 0 m 676 983 l 432 1124 l 549 1124 l 304 983 l 269 1028 l 457 1196 l 524 1196 l 711 1028 l 676 983 m 294 1117 l 208 1167 q 159 1205 172 1186 q 146 1246 146 1224 q 163 1285 146 1269 q 204 1300 181 1300 q 247 1287 228 1300 q 283 1243 265 1274 l 339 1160 l 294 1117 z "},"Ẩ":{"ha":989,"x_min":17,"x_max":968,"o":"m 17 0 l 17 76 l 160 88 l 189 88 l 346 76 l 346 0 l 17 0 m 100 0 l 426 932 l 558 932 l 888 0 l 714 0 l 442 806 l 443 806 l 411 667 l 188 0 l 100 0 m 257 286 l 257 364 l 678 364 l 678 286 l 257 286 m 550 0 l 550 76 l 731 88 l 788 88 l 968 76 l 968 0 l 550 0 m 307 989 l 269 1032 l 453 1190 l 528 1190 l 711 1032 l 674 989 l 432 1119 l 549 1119 l 307 989 m 657 1158 q 704 1174 690 1165 q 718 1197 718 1182 q 695 1225 718 1214 q 617 1240 672 1236 l 629 1343 q 762 1306 718 1336 q 806 1219 806 1275 q 769 1144 806 1171 q 668 1108 733 1117 l 657 1158 z "},"Ẫ":{"ha":989,"x_min":17,"x_max":968,"o":"m 17 0 l 17 76 l 160 88 l 189 88 l 346 76 l 346 0 l 17 0 m 100 0 l 426 932 l 558 932 l 888 0 l 714 0 l 442 806 l 443 806 l 411 667 l 188 0 l 100 0 m 257 286 l 257 364 l 678 364 l 678 286 l 257 286 m 550 0 l 550 76 l 731 88 l 788 88 l 968 76 l 968 0 l 550 0 m 306 975 l 271 1019 l 451 1161 l 529 1161 l 710 1019 l 675 975 l 432 1092 l 549 1092 l 306 975 m 256 1214 q 302 1312 268 1275 q 392 1349 336 1349 q 449 1340 424 1349 q 499 1319 474 1332 q 547 1299 525 1308 q 593 1290 568 1290 q 642 1306 622 1290 q 675 1349 663 1321 l 725 1326 q 678 1228 711 1265 q 589 1192 646 1192 q 533 1200 558 1192 q 482 1221 507 1208 q 435 1241 457 1232 q 388 1250 414 1250 q 340 1235 360 1250 q 306 1192 319 1221 l 256 1214 z "},"Ạ":{"ha":989,"x_min":17,"x_max":968,"o":"m 17 0 l 17 76 l 160 88 l 189 88 l 346 76 l 346 0 l 17 0 m 100 0 l 426 932 l 558 932 l 888 0 l 714 0 l 442 806 l 443 806 l 411 667 l 188 0 l 100 0 m 257 286 l 257 364 l 678 364 l 678 286 l 257 286 m 550 0 l 550 76 l 731 88 l 788 88 l 968 76 l 968 0 l 550 0 z "},"Ả":{"ha":989,"x_min":17,"x_max":968,"o":"m 17 0 l 17 76 l 160 88 l 189 88 l 346 76 l 346 0 l 17 0 m 100 0 l 426 932 l 558 932 l 888 0 l 714 0 l 442 806 l 443 806 l 411 667 l 188 0 l 100 0 m 257 286 l 257 364 l 678 364 l 678 286 l 257 286 m 550 0 l 550 76 l 731 88 l 788 88 l 968 76 l 968 0 l 550 0 m 458 990 l 449 1042 q 502 1057 485 1049 q 519 1083 519 1065 q 494 1115 519 1103 q 407 1131 468 1126 l 419 1233 q 560 1194 514 1226 q 606 1106 606 1161 q 567 1027 606 1056 q 458 990 529 999 z "},"Å":{"ha":989,"x_min":17,"x_max":968,"o":"m 17 0 l 17 76 l 160 88 l 189 88 l 346 76 l 346 0 l 17 0 m 100 0 l 426 932 l 558 932 l 888 0 l 714 0 l 442 806 l 443 806 l 411 667 l 188 0 l 100 0 m 257 286 l 257 364 l 678 364 l 678 286 l 257 286 m 550 0 l 550 76 l 731 88 l 788 88 l 968 76 l 968 0 l 550 0 m 490 997 q 392 1033 433 997 q 350 1129 350 1069 q 392 1225 350 1189 q 490 1261 433 1261 q 590 1225 549 1261 q 631 1129 631 1189 q 590 1033 631 1069 q 490 997 549 997 m 490 1056 q 542 1077 524 1056 q 561 1129 561 1099 q 542 1181 561 1160 q 490 1201 524 1201 q 439 1181 458 1201 q 419 1129 419 1160 q 439 1077 419 1099 q 490 1056 458 1056 z "},"Ą":{"ha":989,"x_min":17,"x_max":968,"o":"m 17 0 l 17 76 l 160 88 l 189 88 l 346 76 l 346 0 l 17 0 m 100 0 l 426 932 l 558 932 l 888 0 l 714 0 l 442 806 l 443 806 l 411 667 l 188 0 l 100 0 m 257 286 l 257 364 l 678 364 l 678 286 l 257 286 m 550 0 l 550 76 l 731 88 l 788 88 l 968 76 l 968 0 l 550 0 m 786 -311 q 685 -277 722 -311 q 649 -185 649 -243 q 667 -106 649 -140 q 716 -47 685 -72 q 785 -7 747 -22 l 785 17 l 844 17 q 776 -58 800 -19 q 753 -140 753 -97 q 775 -199 753 -176 q 832 -222 797 -222 q 867 -218 851 -222 q 899 -208 883 -214 l 918 -261 q 864 -297 894 -283 q 786 -311 833 -311 z "},"Æ":{"ha":1319,"x_min":19,"x_max":1264,"o":"m 636 0 q 637 131 636 65 q 638 262 638 196 q 638 396 638 328 l 638 926 l 801 926 q 801 785 801 856 q 800 642 800 714 q 800 499 800 571 l 800 436 q 800 288 800 361 q 801 144 800 215 q 801 0 801 72 l 636 0 m 19 0 l 19 76 l 163 88 l 200 88 l 346 76 l 346 0 l 19 0 m 1004 313 l 976 458 l 976 492 l 1004 635 l 1082 635 l 1082 313 l 1004 313 m 1144 679 l 1108 844 l 722 844 l 722 926 l 1225 926 l 1236 679 l 1144 679 m 718 0 l 718 82 l 1136 82 l 1172 254 l 1264 254 l 1253 0 l 718 0 m 413 850 l 413 926 l 699 926 l 699 839 l 626 839 l 413 850 m 510 0 l 510 76 l 689 88 l 708 88 l 708 0 l 510 0 m 83 0 l 578 926 l 661 926 l 372 365 l 179 0 l 83 0 m 321 324 l 321 399 l 694 399 l 694 324 l 321 324 m 719 433 l 719 513 l 1035 513 l 1035 433 l 719 433 z "},"Ç":{"ha":919,"x_min":64,"x_max":864,"o":"m 557 -22 q 360 10 450 -22 q 203 105 269 43 q 101 256 138 167 q 64 460 64 346 q 102 665 64 575 q 208 819 140 756 q 367 915 276 882 q 563 949 458 949 q 718 931 646 949 q 844 883 790 914 l 850 676 l 758 676 l 714 879 l 810 869 l 810 785 q 700 846 758 825 q 578 867 642 867 q 408 822 485 867 q 285 687 331 776 q 240 464 240 597 q 283 241 240 331 q 401 106 326 151 q 571 60 475 60 q 708 81 644 60 q 824 139 772 101 l 824 57 l 729 47 l 772 254 l 864 254 l 858 43 q 730 -3 806 15 q 557 -22 654 -22 m 518 -122 l 538 6 l 599 6 l 583 -107 l 554 -74 q 642 -91 606 -78 q 700 -129 679 -104 q 721 -190 721 -154 q 677 -277 721 -243 q 551 -311 633 -311 q 495 -306 518 -311 q 458 -296 472 -300 l 472 -240 q 504 -247 488 -243 q 540 -250 521 -250 q 597 -234 578 -250 q 617 -189 617 -218 q 594 -143 617 -160 q 518 -122 571 -126 z "},"Ć":{"ha":919,"x_min":64,"x_max":864,"o":"m 557 -22 q 360 10 450 -22 q 203 105 269 43 q 101 256 138 167 q 64 460 64 346 q 102 665 64 575 q 208 819 140 756 q 367 915 276 882 q 563 949 458 949 q 718 931 646 949 q 844 883 790 914 l 850 676 l 758 676 l 714 879 l 810 869 l 810 785 q 700 846 758 825 q 578 867 642 867 q 408 822 485 867 q 285 687 331 776 q 240 464 240 597 q 283 241 240 331 q 401 106 326 151 q 571 60 475 60 q 708 81 644 60 q 824 139 772 101 l 824 57 l 729 47 l 772 254 l 864 254 l 858 43 q 730 -3 806 15 q 557 -22 654 -22 m 458 1040 q 527 1108 493 1075 q 596 1172 561 1140 q 644 1210 624 1199 q 686 1221 664 1221 q 729 1206 713 1221 q 746 1165 746 1190 q 730 1124 746 1143 q 676 1085 714 1104 q 586 1038 631 1061 q 496 990 542 1014 l 458 1040 z "},"Č":{"ha":919,"x_min":64,"x_max":864,"o":"m 557 -22 q 360 10 450 -22 q 203 105 269 43 q 101 256 138 167 q 64 460 64 346 q 102 665 64 575 q 208 819 140 756 q 367 915 276 882 q 563 949 458 949 q 718 931 646 949 q 844 883 790 914 l 850 676 l 758 676 l 714 879 l 810 869 l 810 785 q 700 846 758 825 q 578 867 642 867 q 408 822 485 867 q 285 687 331 776 q 240 464 240 597 q 283 241 240 331 q 401 106 326 151 q 571 60 475 60 q 708 81 644 60 q 824 139 772 101 l 824 57 l 729 47 l 772 254 l 864 254 l 858 43 q 730 -3 806 15 q 557 -22 654 -22 m 393 1211 l 625 1057 l 500 1057 l 732 1211 l 771 1172 l 613 1003 l 513 1003 l 354 1172 l 393 1211 z "},"Ĉ":{"ha":919,"x_min":64,"x_max":864,"o":"m 557 -22 q 360 10 450 -22 q 203 105 269 43 q 101 256 138 167 q 64 460 64 346 q 102 665 64 575 q 208 819 140 756 q 367 915 276 882 q 563 949 458 949 q 718 931 646 949 q 844 883 790 914 l 850 676 l 758 676 l 714 879 l 810 869 l 810 785 q 700 846 758 825 q 578 867 642 867 q 408 822 485 867 q 285 687 331 776 q 240 464 240 597 q 283 241 240 331 q 401 106 326 151 q 571 60 475 60 q 708 81 644 60 q 824 139 772 101 l 824 57 l 729 47 l 772 254 l 864 254 l 858 43 q 730 -3 806 15 q 557 -22 654 -22 m 596 1200 l 783 1028 l 749 983 l 504 1128 l 621 1128 l 376 983 l 342 1028 l 529 1200 l 596 1200 z "},"Ċ":{"ha":919,"x_min":64,"x_max":864,"o":"m 557 -22 q 360 10 450 -22 q 203 105 269 43 q 101 256 138 167 q 64 460 64 346 q 102 665 64 575 q 208 819 140 756 q 367 915 276 882 q 563 949 458 949 q 718 931 646 949 q 844 883 790 914 l 850 676 l 758 676 l 714 879 l 810 869 l 810 785 q 700 846 758 825 q 578 867 642 867 q 408 822 485 867 q 285 687 331 776 q 240 464 240 597 q 283 241 240 331 q 401 106 326 151 q 571 60 475 60 q 708 81 644 60 q 824 139 772 101 l 824 57 l 729 47 l 772 254 l 864 254 l 858 43 q 730 -3 806 15 q 557 -22 654 -22 m 563 1011 q 492 1039 521 1011 q 463 1108 463 1067 q 492 1178 463 1151 q 563 1206 521 1206 q 634 1178 606 1206 q 663 1108 663 1151 q 634 1039 663 1067 q 563 1011 606 1011 z "},"Ď":{"ha":1031,"x_min":50,"x_max":967,"o":"m 50 0 l 50 76 l 226 88 l 246 88 l 246 0 l 50 0 m 181 0 q 182 142 182 71 q 182 288 182 214 q 182 436 182 361 l 182 499 q 182 641 182 569 q 182 784 182 713 q 181 926 182 856 l 349 926 q 348 785 349 856 q 347 642 347 714 q 347 499 347 571 l 347 436 q 347 288 347 361 q 348 144 347 215 q 349 0 349 72 l 181 0 m 282 0 l 282 79 l 454 79 q 638 126 563 79 q 751 259 713 172 q 790 467 790 346 q 706 751 790 653 q 468 849 621 849 l 282 849 l 282 926 l 486 926 q 739 874 631 926 q 907 721 847 822 q 967 469 967 619 q 904 215 967 319 q 728 55 842 110 q 463 0 614 0 l 282 0 m 50 850 l 50 926 l 246 926 l 246 839 l 226 839 l 50 850 m 319 1211 l 551 1057 l 426 1057 l 658 1211 l 697 1172 l 539 1003 l 439 1003 l 281 1172 l 319 1211 z "},"Đ":{"ha":1031,"x_min":50,"x_max":967,"o":"m 540 438 l 53 438 l 53 511 l 540 511 l 540 438 m 50 0 l 50 76 l 226 88 l 246 88 l 246 0 l 50 0 m 181 0 q 182 142 182 71 q 182 288 182 214 q 182 436 182 361 l 182 499 q 182 641 182 569 q 182 784 182 713 q 181 926 182 856 l 349 926 q 348 785 349 856 q 347 642 347 714 q 347 499 347 571 l 347 436 q 347 288 347 361 q 348 144 347 215 q 349 0 349 72 l 181 0 m 282 0 l 282 79 l 454 79 q 638 126 563 79 q 751 259 713 172 q 790 467 790 346 q 706 751 790 653 q 468 849 621 849 l 282 849 l 282 926 l 486 926 q 739 874 631 926 q 907 721 847 822 q 967 469 967 619 q 904 215 967 319 q 728 55 842 110 q 463 0 614 0 l 282 0 m 50 850 l 50 926 l 246 926 l 246 839 l 226 839 l 50 850 z "},"Ḍ":{"ha":1031,"x_min":50,"x_max":967,"o":"m 50 0 l 50 76 l 226 88 l 246 88 l 246 0 l 50 0 m 181 0 q 182 142 182 71 q 182 288 182 214 q 182 436 182 361 l 182 499 q 182 641 182 569 q 182 784 182 713 q 181 926 182 856 l 349 926 q 348 785 349 856 q 347 642 347 714 q 347 499 347 571 l 347 436 q 347 288 347 361 q 348 144 347 215 q 349 0 349 72 l 181 0 m 282 0 l 282 79 l 454 79 q 638 126 563 79 q 751 259 713 172 q 790 467 790 346 q 706 751 790 653 q 468 849 621 849 l 282 849 l 282 926 l 486 926 q 739 874 631 926 q 907 721 847 822 q 967 469 967 619 q 904 215 967 319 q 728 55 842 110 q 463 0 614 0 l 282 0 m 50 850 l 50 926 l 246 926 l 246 839 l 226 839 l 50 850 z "},"Ḏ":{"ha":1031,"x_min":50,"x_max":967,"o":"m 50 0 l 50 76 l 226 88 l 246 88 l 246 0 l 50 0 m 181 0 q 182 142 182 71 q 182 288 182 214 q 182 436 182 361 l 182 499 q 182 641 182 569 q 182 784 182 713 q 181 926 182 856 l 349 926 q 348 785 349 856 q 347 642 347 714 q 347 499 347 571 l 347 436 q 347 288 347 361 q 348 144 347 215 q 349 0 349 72 l 181 0 m 282 0 l 282 79 l 454 79 q 638 126 563 79 q 751 259 713 172 q 790 467 790 346 q 706 751 790 653 q 468 849 621 849 l 282 849 l 282 926 l 486 926 q 739 874 631 926 q 907 721 847 822 q 967 469 967 619 q 904 215 967 319 q 728 55 842 110 q 463 0 614 0 l 282 0 m 50 850 l 50 926 l 246 926 l 246 839 l 226 839 l 50 850 z "},"È":{"ha":883,"x_min":53,"x_max":828,"o":"m 53 0 l 53 76 l 238 88 l 257 88 l 257 0 l 53 0 m 182 0 q 184 142 183 71 q 185 285 185 213 q 185 429 185 357 l 185 499 q 185 641 185 569 q 184 784 185 713 q 182 926 183 856 l 351 926 q 351 785 351 856 q 350 642 350 714 q 350 499 350 571 l 350 436 q 350 288 350 361 q 351 144 350 215 q 351 0 351 72 l 182 0 m 267 0 l 267 82 l 747 82 l 692 32 l 738 254 l 828 254 l 818 0 l 267 0 m 267 433 l 267 513 l 597 513 l 597 433 l 267 433 m 565 313 l 540 458 l 540 492 l 565 635 l 644 635 l 644 313 l 565 313 m 53 850 l 53 926 l 257 926 l 257 839 l 238 839 l 53 850 m 710 679 l 664 894 l 721 844 l 267 844 l 267 926 l 790 926 l 800 679 l 710 679 m 581 1040 l 543 990 q 453 1038 497 1014 q 363 1083 408 1061 q 309 1124 325 1104 q 293 1165 293 1143 q 310 1206 293 1190 q 353 1221 326 1221 q 395 1210 375 1221 q 443 1172 415 1199 q 513 1107 478 1140 q 581 1040 547 1074 z "},"É":{"ha":883,"x_min":53,"x_max":828,"o":"m 53 0 l 53 76 l 238 88 l 257 88 l 257 0 l 53 0 m 182 0 q 184 142 183 71 q 185 285 185 213 q 185 429 185 357 l 185 499 q 185 641 185 569 q 184 784 185 713 q 182 926 183 856 l 351 926 q 351 785 351 856 q 350 642 350 714 q 350 499 350 571 l 350 436 q 350 288 350 361 q 351 144 350 215 q 351 0 351 72 l 182 0 m 267 0 l 267 82 l 747 82 l 692 32 l 738 254 l 828 254 l 818 0 l 267 0 m 267 433 l 267 513 l 597 513 l 597 433 l 267 433 m 565 313 l 540 458 l 540 492 l 565 635 l 644 635 l 644 313 l 565 313 m 53 850 l 53 926 l 257 926 l 257 839 l 238 839 l 53 850 m 710 679 l 664 894 l 721 844 l 267 844 l 267 926 l 790 926 l 800 679 l 710 679 m 372 1040 q 441 1108 407 1075 q 510 1172 475 1140 q 558 1210 538 1199 q 600 1221 578 1221 q 643 1206 626 1221 q 660 1165 660 1190 q 644 1124 660 1143 q 590 1085 628 1104 q 500 1038 544 1061 q 410 990 456 1014 l 372 1040 z "},"Ê":{"ha":883,"x_min":53,"x_max":828,"o":"m 53 0 l 53 76 l 238 88 l 257 88 l 257 0 l 53 0 m 182 0 q 184 142 183 71 q 185 285 185 213 q 185 429 185 357 l 185 499 q 185 641 185 569 q 184 784 185 713 q 182 926 183 856 l 351 926 q 351 785 351 856 q 350 642 350 714 q 350 499 350 571 l 350 436 q 350 288 350 361 q 351 144 350 215 q 351 0 351 72 l 182 0 m 267 0 l 267 82 l 747 82 l 692 32 l 738 254 l 828 254 l 818 0 l 267 0 m 267 433 l 267 513 l 597 513 l 597 433 l 267 433 m 565 313 l 540 458 l 540 492 l 565 635 l 644 635 l 644 313 l 565 313 m 53 850 l 53 926 l 257 926 l 257 839 l 238 839 l 53 850 m 710 679 l 664 894 l 721 844 l 267 844 l 267 926 l 790 926 l 800 679 l 710 679 m 510 1200 l 697 1028 l 663 983 l 418 1128 l 535 1128 l 290 983 l 256 1028 l 443 1200 l 510 1200 z "},"Ě":{"ha":883,"x_min":53,"x_max":828,"o":"m 53 0 l 53 76 l 238 88 l 257 88 l 257 0 l 53 0 m 182 0 q 184 142 183 71 q 185 285 185 213 q 185 429 185 357 l 185 499 q 185 641 185 569 q 184 784 185 713 q 182 926 183 856 l 351 926 q 351 785 351 856 q 350 642 350 714 q 350 499 350 571 l 350 436 q 350 288 350 361 q 351 144 350 215 q 351 0 351 72 l 182 0 m 267 0 l 267 82 l 747 82 l 692 32 l 738 254 l 828 254 l 818 0 l 267 0 m 267 433 l 267 513 l 597 513 l 597 433 l 267 433 m 565 313 l 540 458 l 540 492 l 565 635 l 644 635 l 644 313 l 565 313 m 53 850 l 53 926 l 257 926 l 257 839 l 238 839 l 53 850 m 710 679 l 664 894 l 721 844 l 267 844 l 267 926 l 790 926 l 800 679 l 710 679 m 307 1211 l 539 1057 l 414 1057 l 646 1211 l 685 1172 l 526 1003 l 426 1003 l 268 1172 l 307 1211 z "},"Ë":{"ha":883,"x_min":53,"x_max":828,"o":"m 53 0 l 53 76 l 238 88 l 257 88 l 257 0 l 53 0 m 182 0 q 184 142 183 71 q 185 285 185 213 q 185 429 185 357 l 185 499 q 185 641 185 569 q 184 784 185 713 q 182 926 183 856 l 351 926 q 351 785 351 856 q 350 642 350 714 q 350 499 350 571 l 350 436 q 350 288 350 361 q 351 144 350 215 q 351 0 351 72 l 182 0 m 267 0 l 267 82 l 747 82 l 692 32 l 738 254 l 828 254 l 818 0 l 267 0 m 267 433 l 267 513 l 597 513 l 597 433 l 267 433 m 565 313 l 540 458 l 540 492 l 565 635 l 644 635 l 644 313 l 565 313 m 53 850 l 53 926 l 257 926 l 257 839 l 238 839 l 53 850 m 710 679 l 664 894 l 721 844 l 267 844 l 267 926 l 790 926 l 800 679 l 710 679 m 317 1022 q 253 1047 281 1022 q 226 1111 226 1072 q 253 1174 226 1149 q 317 1199 281 1199 q 381 1174 354 1199 q 407 1111 407 1149 q 381 1047 407 1072 q 317 1022 354 1022 m 636 1022 q 572 1047 599 1022 q 546 1111 546 1072 q 572 1174 546 1149 q 636 1199 599 1199 q 699 1174 672 1199 q 726 1111 726 1149 q 699 1047 726 1072 q 636 1022 672 1022 z "},"Ē":{"ha":883,"x_min":53,"x_max":828,"o":"m 53 0 l 53 76 l 238 88 l 257 88 l 257 0 l 53 0 m 182 0 q 184 142 183 71 q 185 285 185 213 q 185 429 185 357 l 185 499 q 185 641 185 569 q 184 784 185 713 q 182 926 183 856 l 351 926 q 351 785 351 856 q 350 642 350 714 q 350 499 350 571 l 350 436 q 350 288 350 361 q 351 144 350 215 q 351 0 351 72 l 182 0 m 267 0 l 267 82 l 747 82 l 692 32 l 738 254 l 828 254 l 818 0 l 267 0 m 267 433 l 267 513 l 597 513 l 597 433 l 267 433 m 565 313 l 540 458 l 540 492 l 565 635 l 644 635 l 644 313 l 565 313 m 53 850 l 53 926 l 257 926 l 257 839 l 238 839 l 53 850 m 710 679 l 664 894 l 721 844 l 267 844 l 267 926 l 790 926 l 800 679 l 710 679 m 279 1039 l 279 1140 l 674 1140 l 674 1039 l 279 1039 z "},"Ė":{"ha":883,"x_min":53,"x_max":828,"o":"m 53 0 l 53 76 l 238 88 l 257 88 l 257 0 l 53 0 m 182 0 q 184 142 183 71 q 185 285 185 213 q 185 429 185 357 l 185 499 q 185 641 185 569 q 184 784 185 713 q 182 926 183 856 l 351 926 q 351 785 351 856 q 350 642 350 714 q 350 499 350 571 l 350 436 q 350 288 350 361 q 351 144 350 215 q 351 0 351 72 l 182 0 m 267 0 l 267 82 l 747 82 l 692 32 l 738 254 l 828 254 l 818 0 l 267 0 m 267 433 l 267 513 l 597 513 l 597 433 l 267 433 m 565 313 l 540 458 l 540 492 l 565 635 l 644 635 l 644 313 l 565 313 m 53 850 l 53 926 l 257 926 l 257 839 l 238 839 l 53 850 m 710 679 l 664 894 l 721 844 l 267 844 l 267 926 l 790 926 l 800 679 l 710 679 m 476 1011 q 406 1039 435 1011 q 376 1108 376 1067 q 406 1178 376 1151 q 476 1206 435 1206 q 548 1178 519 1206 q 576 1108 576 1151 q 548 1039 576 1067 q 476 1011 519 1011 z "},"Ę":{"ha":883,"x_min":53,"x_max":828,"o":"m 53 0 l 53 76 l 238 88 l 257 88 l 257 0 l 53 0 m 182 0 q 184 142 183 71 q 185 285 185 213 q 185 429 185 357 l 185 499 q 185 641 185 569 q 184 784 185 713 q 182 926 183 856 l 351 926 q 351 785 351 856 q 350 642 350 714 q 350 499 350 571 l 350 436 q 350 288 350 361 q 351 144 350 215 q 351 0 351 72 l 182 0 m 267 0 l 267 82 l 747 82 l 692 32 l 738 254 l 828 254 l 818 0 l 267 0 m 267 433 l 267 513 l 597 513 l 597 433 l 267 433 m 565 313 l 540 458 l 540 492 l 565 635 l 644 635 l 644 313 l 565 313 m 53 850 l 53 926 l 257 926 l 257 839 l 238 839 l 53 850 m 710 679 l 664 894 l 721 844 l 267 844 l 267 926 l 790 926 l 800 679 l 710 679 m 683 -311 q 583 -277 619 -311 q 546 -185 546 -243 q 564 -106 546 -140 q 613 -47 582 -72 q 682 -7 644 -22 l 682 17 l 742 17 q 674 -58 697 -19 q 650 -140 650 -97 q 672 -199 650 -176 q 729 -222 694 -222 q 765 -218 749 -222 q 796 -208 781 -214 l 815 -261 q 761 -297 792 -283 q 683 -311 731 -311 z "},"Ĕ":{"ha":883,"x_min":53,"x_max":828,"o":"m 53 0 l 53 76 l 238 88 l 257 88 l 257 0 l 53 0 m 182 0 q 184 142 183 71 q 185 285 185 213 q 185 429 185 357 l 185 499 q 185 641 185 569 q 184 784 185 713 q 182 926 183 856 l 351 926 q 351 785 351 856 q 350 642 350 714 q 350 499 350 571 l 350 436 q 350 288 350 361 q 351 144 350 215 q 351 0 351 72 l 182 0 m 267 0 l 267 82 l 747 82 l 692 32 l 738 254 l 828 254 l 818 0 l 267 0 m 267 433 l 267 513 l 597 513 l 597 433 l 267 433 m 565 313 l 540 458 l 540 492 l 565 635 l 644 635 l 644 313 l 565 313 m 53 850 l 53 926 l 257 926 l 257 839 l 238 839 l 53 850 m 710 679 l 664 894 l 721 844 l 267 844 l 267 926 l 790 926 l 800 679 l 710 679 m 268 1192 l 329 1207 q 380 1133 343 1163 q 476 1104 417 1104 q 572 1133 536 1104 q 625 1207 608 1163 l 685 1192 q 651 1100 676 1142 q 583 1033 626 1058 q 476 1008 540 1008 q 369 1033 413 1008 q 302 1100 326 1058 q 268 1192 278 1142 z "},"Ế":{"ha":883,"x_min":53,"x_max":828,"o":"m 53 0 l 53 76 l 238 88 l 257 88 l 257 0 l 53 0 m 182 0 q 184 142 183 71 q 185 285 185 213 q 185 429 185 357 l 185 499 q 185 641 185 569 q 184 784 185 713 q 182 926 183 856 l 351 926 q 351 785 351 856 q 350 642 350 714 q 350 499 350 571 l 350 436 q 350 288 350 361 q 351 144 350 215 q 351 0 351 72 l 182 0 m 267 0 l 267 82 l 747 82 l 692 32 l 738 254 l 828 254 l 818 0 l 267 0 m 267 433 l 267 513 l 597 513 l 597 433 l 267 433 m 565 313 l 540 458 l 540 492 l 565 635 l 644 635 l 644 313 l 565 313 m 53 850 l 53 926 l 257 926 l 257 839 l 238 839 l 53 850 m 710 679 l 664 894 l 721 844 l 267 844 l 267 926 l 790 926 l 800 679 l 710 679 m 290 983 l 256 1028 l 443 1196 l 510 1196 l 697 1028 l 663 983 l 418 1124 l 535 1124 l 290 983 m 667 1115 l 624 1158 l 678 1243 q 715 1287 696 1274 q 757 1300 735 1300 q 799 1285 782 1300 q 815 1246 815 1269 q 802 1206 815 1224 q 753 1167 789 1188 l 667 1115 z "},"Ệ":{"ha":883,"x_min":53,"x_max":828,"o":"m 53 0 l 53 76 l 238 88 l 257 88 l 257 0 l 53 0 m 182 0 q 184 142 183 71 q 185 285 185 213 q 185 429 185 357 l 185 499 q 185 641 185 569 q 184 784 185 713 q 182 926 183 856 l 351 926 q 351 785 351 856 q 350 642 350 714 q 350 499 350 571 l 350 436 q 350 288 350 361 q 351 144 350 215 q 351 0 351 72 l 182 0 m 267 0 l 267 82 l 747 82 l 692 32 l 738 254 l 828 254 l 818 0 l 267 0 m 267 433 l 267 513 l 597 513 l 597 433 l 267 433 m 565 313 l 540 458 l 540 492 l 565 635 l 644 635 l 644 313 l 565 313 m 53 850 l 53 926 l 257 926 l 257 839 l 238 839 l 53 850 m 710 679 l 664 894 l 721 844 l 267 844 l 267 926 l 790 926 l 800 679 l 710 679 m 510 1200 l 697 1028 l 663 983 l 418 1128 l 535 1128 l 290 983 l 256 1028 l 443 1200 l 510 1200 z "},"Ề":{"ha":883,"x_min":53,"x_max":828,"o":"m 53 0 l 53 76 l 238 88 l 257 88 l 257 0 l 53 0 m 182 0 q 184 142 183 71 q 185 285 185 213 q 185 429 185 357 l 185 499 q 185 641 185 569 q 184 784 185 713 q 182 926 183 856 l 351 926 q 351 785 351 856 q 350 642 350 714 q 350 499 350 571 l 350 436 q 350 288 350 361 q 351 144 350 215 q 351 0 351 72 l 182 0 m 267 0 l 267 82 l 747 82 l 692 32 l 738 254 l 828 254 l 818 0 l 267 0 m 267 433 l 267 513 l 597 513 l 597 433 l 267 433 m 565 313 l 540 458 l 540 492 l 565 635 l 644 635 l 644 313 l 565 313 m 53 850 l 53 926 l 257 926 l 257 839 l 238 839 l 53 850 m 710 679 l 664 894 l 721 844 l 267 844 l 267 926 l 790 926 l 800 679 l 710 679 m 663 983 l 418 1124 l 535 1124 l 290 983 l 256 1028 l 443 1196 l 510 1196 l 697 1028 l 663 983 m 281 1117 l 194 1167 q 145 1205 158 1186 q 132 1246 132 1224 q 149 1285 132 1269 q 190 1300 167 1300 q 233 1287 214 1300 q 269 1243 251 1274 l 325 1160 l 281 1117 z "},"Ể":{"ha":883,"x_min":53,"x_max":828,"o":"m 53 0 l 53 76 l 238 88 l 257 88 l 257 0 l 53 0 m 182 0 q 184 142 183 71 q 185 285 185 213 q 185 429 185 357 l 185 499 q 185 641 185 569 q 184 784 185 713 q 182 926 183 856 l 351 926 q 351 785 351 856 q 350 642 350 714 q 350 499 350 571 l 350 436 q 350 288 350 361 q 351 144 350 215 q 351 0 351 72 l 182 0 m 267 0 l 267 82 l 747 82 l 692 32 l 738 254 l 828 254 l 818 0 l 267 0 m 267 433 l 267 513 l 597 513 l 597 433 l 267 433 m 565 313 l 540 458 l 540 492 l 565 635 l 644 635 l 644 313 l 565 313 m 53 850 l 53 926 l 257 926 l 257 839 l 238 839 l 53 850 m 710 679 l 664 894 l 721 844 l 267 844 l 267 926 l 790 926 l 800 679 l 710 679 m 293 989 l 256 1032 l 439 1190 l 514 1190 l 697 1032 l 660 989 l 418 1119 l 535 1119 l 293 989 m 643 1158 q 690 1174 676 1165 q 704 1197 704 1182 q 681 1225 704 1214 q 603 1240 658 1236 l 615 1343 q 748 1306 704 1336 q 792 1219 792 1275 q 756 1144 792 1171 q 654 1108 719 1117 l 643 1158 z "},"Ễ":{"ha":883,"x_min":53,"x_max":828,"o":"m 53 0 l 53 76 l 238 88 l 257 88 l 257 0 l 53 0 m 182 0 q 184 142 183 71 q 185 285 185 213 q 185 429 185 357 l 185 499 q 185 641 185 569 q 184 784 185 713 q 182 926 183 856 l 351 926 q 351 785 351 856 q 350 642 350 714 q 350 499 350 571 l 350 436 q 350 288 350 361 q 351 144 350 215 q 351 0 351 72 l 182 0 m 267 0 l 267 82 l 747 82 l 692 32 l 738 254 l 828 254 l 818 0 l 267 0 m 267 433 l 267 513 l 597 513 l 597 433 l 267 433 m 565 313 l 540 458 l 540 492 l 565 635 l 644 635 l 644 313 l 565 313 m 53 850 l 53 926 l 257 926 l 257 839 l 238 839 l 53 850 m 710 679 l 664 894 l 721 844 l 267 844 l 267 926 l 790 926 l 800 679 l 710 679 m 292 975 l 257 1019 l 438 1161 l 515 1161 l 696 1019 l 661 975 l 418 1092 l 535 1092 l 292 975 m 242 1214 q 288 1312 254 1275 q 378 1349 322 1349 q 435 1340 410 1349 q 485 1319 460 1332 q 533 1299 511 1308 q 579 1290 554 1290 q 628 1306 608 1290 q 661 1349 649 1321 l 711 1326 q 665 1228 697 1265 q 575 1192 632 1192 q 519 1200 544 1192 q 468 1221 493 1208 q 422 1241 443 1232 q 374 1250 400 1250 q 326 1235 346 1250 q 292 1192 306 1221 l 242 1214 z "},"Ẹ":{"ha":883,"x_min":53,"x_max":828,"o":"m 53 0 l 53 76 l 238 88 l 257 88 l 257 0 l 53 0 m 182 0 q 184 142 183 71 q 185 285 185 213 q 185 429 185 357 l 185 499 q 185 641 185 569 q 184 784 185 713 q 182 926 183 856 l 351 926 q 351 785 351 856 q 350 642 350 714 q 350 499 350 571 l 350 436 q 350 288 350 361 q 351 144 350 215 q 351 0 351 72 l 182 0 m 267 0 l 267 82 l 747 82 l 692 32 l 738 254 l 828 254 l 818 0 l 267 0 m 267 433 l 267 513 l 597 513 l 597 433 l 267 433 m 565 313 l 540 458 l 540 492 l 565 635 l 644 635 l 644 313 l 565 313 m 53 850 l 53 926 l 257 926 l 257 839 l 238 839 l 53 850 m 710 679 l 664 894 l 721 844 l 267 844 l 267 926 l 790 926 l 800 679 l 710 679 z "},"Ẻ":{"ha":883,"x_min":53,"x_max":828,"o":"m 53 0 l 53 76 l 238 88 l 257 88 l 257 0 l 53 0 m 182 0 q 184 142 183 71 q 185 285 185 213 q 185 429 185 357 l 185 499 q 185 641 185 569 q 184 784 185 713 q 182 926 183 856 l 351 926 q 351 785 351 856 q 350 642 350 714 q 350 499 350 571 l 350 436 q 350 288 350 361 q 351 144 350 215 q 351 0 351 72 l 182 0 m 267 0 l 267 82 l 747 82 l 692 32 l 738 254 l 828 254 l 818 0 l 267 0 m 267 433 l 267 513 l 597 513 l 597 433 l 267 433 m 565 313 l 540 458 l 540 492 l 565 635 l 644 635 l 644 313 l 565 313 m 53 850 l 53 926 l 257 926 l 257 839 l 238 839 l 53 850 m 710 679 l 664 894 l 721 844 l 267 844 l 267 926 l 790 926 l 800 679 l 710 679 m 444 990 l 435 1042 q 488 1057 471 1049 q 506 1083 506 1065 q 480 1115 506 1103 q 393 1131 454 1126 l 406 1233 q 546 1194 500 1226 q 592 1106 592 1161 q 553 1027 592 1056 q 444 990 515 999 z "},"Ẽ":{"ha":883,"x_min":53,"x_max":828,"o":"m 53 0 l 53 76 l 238 88 l 257 88 l 257 0 l 53 0 m 182 0 q 184 142 183 71 q 185 285 185 213 q 185 429 185 357 l 185 499 q 185 641 185 569 q 184 784 185 713 q 182 926 183 856 l 351 926 q 351 785 351 856 q 350 642 350 714 q 350 499 350 571 l 350 436 q 350 288 350 361 q 351 144 350 215 q 351 0 351 72 l 182 0 m 267 0 l 267 82 l 747 82 l 692 32 l 738 254 l 828 254 l 818 0 l 267 0 m 267 433 l 267 513 l 597 513 l 597 433 l 267 433 m 565 313 l 540 458 l 540 492 l 565 635 l 644 635 l 644 313 l 565 313 m 53 850 l 53 926 l 257 926 l 257 839 l 238 839 l 53 850 m 710 679 l 664 894 l 721 844 l 267 844 l 267 926 l 790 926 l 800 679 l 710 679 m 222 1018 q 274 1149 236 1103 q 372 1196 311 1196 q 434 1184 407 1196 q 486 1153 461 1172 q 534 1121 510 1136 q 588 1106 558 1106 q 639 1128 618 1106 q 674 1194 660 1151 l 731 1176 q 679 1046 715 1093 q 581 999 643 999 q 520 1010 547 999 q 469 1039 493 1022 q 419 1073 443 1057 q 365 1089 396 1089 q 314 1067 335 1089 q 279 1001 293 1044 l 222 1018 z "},"Ğ":{"ha":1006,"x_min":64,"x_max":972,"o":"m 557 -22 q 359 11 450 -22 q 202 106 268 44 q 100 258 136 168 q 64 461 64 347 q 101 663 64 572 q 206 817 139 753 q 366 915 274 882 q 567 949 458 949 q 683 940 629 949 q 782 917 738 932 q 860 885 826 903 l 865 676 l 772 676 l 729 881 l 824 868 l 824 785 q 712 846 774 825 q 578 867 650 867 q 408 821 485 867 q 286 685 332 775 q 240 464 240 596 q 283 242 240 332 q 403 107 326 153 q 583 61 481 61 q 694 75 647 61 q 790 114 742 89 l 722 40 l 722 122 q 722 283 722 201 q 719 444 721 364 l 885 444 q 883 283 883 364 q 882 121 882 201 l 882 56 q 735 -1 815 21 q 557 -22 654 -22 m 576 371 l 576 444 l 972 444 l 972 371 l 822 363 l 767 363 l 576 371 m 360 1192 l 421 1207 q 472 1133 435 1163 q 568 1104 508 1104 q 664 1133 628 1104 q 717 1207 700 1163 l 776 1192 q 743 1100 768 1142 q 675 1033 718 1058 q 568 1008 632 1008 q 461 1033 504 1008 q 394 1100 418 1058 q 360 1192 369 1142 z "},"Ġ":{"ha":1006,"x_min":64,"x_max":972,"o":"m 557 -22 q 359 11 450 -22 q 202 106 268 44 q 100 258 136 168 q 64 461 64 347 q 101 663 64 572 q 206 817 139 753 q 366 915 274 882 q 567 949 458 949 q 683 940 629 949 q 782 917 738 932 q 860 885 826 903 l 865 676 l 772 676 l 729 881 l 824 868 l 824 785 q 712 846 774 825 q 578 867 650 867 q 408 821 485 867 q 286 685 332 775 q 240 464 240 596 q 283 242 240 332 q 403 107 326 153 q 583 61 481 61 q 694 75 647 61 q 790 114 742 89 l 722 40 l 722 122 q 722 283 722 201 q 719 444 721 364 l 885 444 q 883 283 883 364 q 882 121 882 201 l 882 56 q 735 -1 815 21 q 557 -22 654 -22 m 576 371 l 576 444 l 972 444 l 972 371 l 822 363 l 767 363 l 576 371 m 568 1011 q 497 1039 526 1011 q 468 1108 468 1067 q 497 1178 468 1151 q 568 1206 526 1206 q 640 1178 611 1206 q 668 1108 668 1151 q 640 1039 668 1067 q 568 1011 611 1011 z "},"Ģ":{"ha":1006,"x_min":64,"x_max":972,"o":"m 557 -22 q 359 11 450 -22 q 202 106 268 44 q 100 258 136 168 q 64 461 64 347 q 101 663 64 572 q 206 817 139 753 q 366 915 274 882 q 567 949 458 949 q 683 940 629 949 q 782 917 738 932 q 860 885 826 903 l 865 676 l 772 676 l 729 881 l 824 868 l 824 785 q 712 846 774 825 q 578 867 650 867 q 408 821 485 867 q 286 685 332 775 q 240 464 240 596 q 283 242 240 332 q 403 107 326 153 q 583 61 481 61 q 694 75 647 61 q 790 114 742 89 l 722 40 l 722 122 q 722 283 722 201 q 719 444 721 364 l 885 444 q 883 283 883 364 q 882 121 882 201 l 882 56 q 735 -1 815 21 q 557 -22 654 -22 m 576 371 l 576 444 l 972 444 l 972 371 l 822 363 l 767 363 l 576 371 m 660 -178 q 639 -260 660 -225 q 583 -320 618 -296 q 503 -358 547 -344 l 482 -308 q 549 -269 524 -292 q 585 -215 575 -246 l 597 -257 q 522 -209 544 -236 q 499 -151 499 -182 q 520 -93 499 -115 q 579 -71 542 -71 q 617 -77 600 -71 q 647 -96 635 -83 q 656 -131 653 -112 q 660 -178 660 -149 z "},"Ǧ":{"ha":1006,"x_min":64,"x_max":972,"o":"m 557 -22 q 359 11 450 -22 q 202 106 268 44 q 100 258 136 168 q 64 461 64 347 q 101 663 64 572 q 206 817 139 753 q 366 915 274 882 q 567 949 458 949 q 683 940 629 949 q 782 917 738 932 q 860 885 826 903 l 865 676 l 772 676 l 729 881 l 824 868 l 824 785 q 712 846 774 825 q 578 867 650 867 q 408 821 485 867 q 286 685 332 775 q 240 464 240 596 q 283 242 240 332 q 403 107 326 153 q 583 61 481 61 q 694 75 647 61 q 790 114 742 89 l 722 40 l 722 122 q 722 283 722 201 q 719 444 721 364 l 885 444 q 883 283 883 364 q 882 121 882 201 l 882 56 q 735 -1 815 21 q 557 -22 654 -22 m 576 371 l 576 444 l 972 444 l 972 371 l 822 363 l 767 363 l 576 371 m 399 1211 l 631 1057 l 506 1057 l 738 1211 l 776 1172 l 618 1003 l 518 1003 l 360 1172 l 399 1211 z "},"Ĝ":{"ha":1006,"x_min":64,"x_max":972,"o":"m 557 -22 q 359 11 450 -22 q 202 106 268 44 q 100 258 136 168 q 64 461 64 347 q 101 663 64 572 q 206 817 139 753 q 366 915 274 882 q 567 949 458 949 q 683 940 629 949 q 782 917 738 932 q 860 885 826 903 l 865 676 l 772 676 l 729 881 l 824 868 l 824 785 q 712 846 774 825 q 578 867 650 867 q 408 821 485 867 q 286 685 332 775 q 240 464 240 596 q 283 242 240 332 q 403 107 326 153 q 583 61 481 61 q 694 75 647 61 q 790 114 742 89 l 722 40 l 722 122 q 722 283 722 201 q 719 444 721 364 l 885 444 q 883 283 883 364 q 882 121 882 201 l 882 56 q 735 -1 815 21 q 557 -22 654 -22 m 576 371 l 576 444 l 972 444 l 972 371 l 822 363 l 767 363 l 576 371 m 601 1200 l 789 1028 l 754 983 l 510 1128 l 626 1128 l 382 983 l 347 1028 l 535 1200 l 601 1200 z "},"Ḡ":{"ha":1006,"x_min":64,"x_max":972,"o":"m 557 -22 q 359 11 450 -22 q 202 106 268 44 q 100 258 136 168 q 64 461 64 347 q 101 663 64 572 q 206 817 139 753 q 366 915 274 882 q 567 949 458 949 q 683 940 629 949 q 782 917 738 932 q 860 885 826 903 l 865 676 l 772 676 l 729 881 l 824 868 l 824 785 q 712 846 774 825 q 578 867 650 867 q 408 821 485 867 q 286 685 332 775 q 240 464 240 596 q 283 242 240 332 q 403 107 326 153 q 583 61 481 61 q 694 75 647 61 q 790 114 742 89 l 722 40 l 722 122 q 722 283 722 201 q 719 444 721 364 l 885 444 q 883 283 883 364 q 882 121 882 201 l 882 56 q 735 -1 815 21 q 557 -22 654 -22 m 576 371 l 576 444 l 972 444 l 972 371 l 822 363 l 767 363 l 576 371 m 371 1039 l 371 1140 l 765 1140 l 765 1039 l 371 1039 z "},"Ħ":{"ha":1128,"x_min":42,"x_max":1086,"o":"m 179 0 q 181 142 181 71 q 182 285 182 213 q 182 429 182 357 l 182 499 q 182 641 182 569 q 181 784 182 713 q 179 926 181 856 l 349 926 q 348 784 349 856 q 347 636 347 713 q 347 478 347 560 l 347 440 q 347 289 347 363 q 348 144 347 215 q 349 0 349 72 l 179 0 m 778 0 q 780 142 779 71 q 781 288 781 214 q 781 440 781 363 l 781 478 q 781 635 781 560 q 780 783 781 711 q 778 926 779 856 l 947 926 q 945 785 946 856 q 944 642 944 714 q 944 499 944 571 l 944 429 q 944 286 944 358 q 945 143 944 214 q 947 0 946 72 l 778 0 m 50 0 l 50 76 l 236 88 l 290 88 l 476 76 l 476 0 l 50 0 m 50 850 l 50 926 l 476 926 l 476 850 l 290 839 l 236 839 l 50 850 m 651 0 l 651 76 l 836 88 l 890 88 l 1076 76 l 1076 0 l 651 0 m 651 850 l 651 926 l 1076 926 l 1076 850 l 890 839 l 836 839 l 651 850 m 42 631 l 42 706 l 1086 706 l 1086 631 l 42 631 m 269 397 l 269 478 l 858 478 l 858 397 l 269 397 z "},"Ḫ":{"ha":1126,"x_min":50,"x_max":1076,"o":"m 50 0 l 50 76 l 236 88 l 290 88 l 476 76 l 476 0 l 50 0 m 179 0 q 181 142 181 71 q 182 285 182 213 q 182 429 182 357 l 182 499 q 182 641 182 569 q 181 784 182 713 q 179 926 181 856 l 349 926 q 348 784 349 856 q 347 641 347 713 q 347 496 347 569 l 347 449 q 347 294 347 369 q 348 147 347 219 q 349 0 349 74 l 179 0 m 269 433 l 269 514 l 858 514 l 858 433 l 269 433 m 651 0 l 651 76 l 836 88 l 890 88 l 1076 76 l 1076 0 l 651 0 m 778 0 q 780 145 779 72 q 781 294 781 218 q 781 449 781 369 l 781 496 q 781 640 781 568 q 780 783 781 711 q 778 926 779 856 l 947 926 q 945 785 946 856 q 944 642 944 714 q 944 499 944 571 l 944 429 q 944 286 944 358 q 945 143 944 214 q 947 0 946 72 l 778 0 m 50 850 l 50 926 l 476 926 l 476 850 l 290 839 l 236 839 l 50 850 m 651 850 l 651 926 l 1076 926 l 1076 850 l 890 839 l 836 839 l 651 850 z "},"Ĥ":{"ha":1126,"x_min":50,"x_max":1076,"o":"m 50 0 l 50 76 l 236 88 l 290 88 l 476 76 l 476 0 l 50 0 m 179 0 q 181 142 181 71 q 182 285 182 213 q 182 429 182 357 l 182 499 q 182 641 182 569 q 181 784 182 713 q 179 926 181 856 l 349 926 q 348 784 349 856 q 347 641 347 713 q 347 496 347 569 l 347 449 q 347 294 347 369 q 348 147 347 219 q 349 0 349 74 l 179 0 m 269 433 l 269 514 l 858 514 l 858 433 l 269 433 m 651 0 l 651 76 l 836 88 l 890 88 l 1076 76 l 1076 0 l 651 0 m 778 0 q 780 145 779 72 q 781 294 781 218 q 781 449 781 369 l 781 496 q 781 640 781 568 q 780 783 781 711 q 778 926 779 856 l 947 926 q 945 785 946 856 q 944 642 944 714 q 944 499 944 571 l 944 429 q 944 286 944 358 q 945 143 944 214 q 947 0 946 72 l 778 0 m 50 850 l 50 926 l 476 926 l 476 850 l 290 839 l 236 839 l 50 850 m 651 850 l 651 926 l 1076 926 l 1076 850 l 890 839 l 836 839 l 651 850 m 597 1200 l 785 1028 l 750 983 l 506 1128 l 622 1128 l 378 983 l 343 1028 l 531 1200 l 597 1200 z "},"Ḥ":{"ha":1126,"x_min":50,"x_max":1076,"o":"m 50 0 l 50 76 l 236 88 l 290 88 l 476 76 l 476 0 l 50 0 m 179 0 q 181 142 181 71 q 182 285 182 213 q 182 429 182 357 l 182 499 q 182 641 182 569 q 181 784 182 713 q 179 926 181 856 l 349 926 q 348 784 349 856 q 347 641 347 713 q 347 496 347 569 l 347 449 q 347 294 347 369 q 348 147 347 219 q 349 0 349 74 l 179 0 m 269 433 l 269 514 l 858 514 l 858 433 l 269 433 m 651 0 l 651 76 l 836 88 l 890 88 l 1076 76 l 1076 0 l 651 0 m 778 0 q 780 145 779 72 q 781 294 781 218 q 781 449 781 369 l 781 496 q 781 640 781 568 q 780 783 781 711 q 778 926 779 856 l 947 926 q 945 785 946 856 q 944 642 944 714 q 944 499 944 571 l 944 429 q 944 286 944 358 q 945 143 944 214 q 947 0 946 72 l 778 0 m 50 850 l 50 926 l 476 926 l 476 850 l 290 839 l 236 839 l 50 850 m 651 850 l 651 926 l 1076 926 l 1076 850 l 890 839 l 836 839 l 651 850 z "},"Ì":{"ha":529,"x_min":50,"x_max":479,"o":"m 50 0 l 50 76 l 238 88 l 292 88 l 479 76 l 479 0 l 50 0 m 181 0 q 182 142 182 71 q 182 285 182 213 q 182 429 182 357 l 182 499 q 182 641 182 569 q 182 784 182 713 q 181 926 182 856 l 349 926 q 348 785 349 856 q 347 642 347 714 q 347 499 347 571 l 347 429 q 347 286 347 358 q 348 143 347 214 q 349 0 349 72 l 181 0 m 50 850 l 50 926 l 479 926 l 479 850 l 292 839 l 238 839 l 50 850 m 369 1040 l 332 990 q 242 1038 286 1014 q 151 1083 197 1061 q 98 1124 114 1104 q 82 1165 82 1143 q 99 1206 82 1190 q 142 1221 115 1221 q 184 1210 164 1221 q 232 1172 204 1199 q 301 1107 267 1140 q 369 1040 336 1074 z "},"Í":{"ha":529,"x_min":50,"x_max":479,"o":"m 50 0 l 50 76 l 238 88 l 292 88 l 479 76 l 479 0 l 50 0 m 181 0 q 182 142 182 71 q 182 285 182 213 q 182 429 182 357 l 182 499 q 182 641 182 569 q 182 784 182 713 q 181 926 182 856 l 349 926 q 348 785 349 856 q 347 642 347 714 q 347 499 347 571 l 347 429 q 347 286 347 358 q 348 143 347 214 q 349 0 349 72 l 181 0 m 50 850 l 50 926 l 479 926 l 479 850 l 292 839 l 238 839 l 50 850 m 161 1040 q 230 1108 196 1075 q 299 1172 264 1140 q 347 1210 326 1199 q 389 1221 367 1221 q 432 1206 415 1221 q 449 1165 449 1190 q 433 1124 449 1143 q 379 1085 417 1104 q 289 1038 333 1061 q 199 990 244 1014 l 161 1040 z "},"Î":{"ha":529,"x_min":44,"x_max":488,"o":"m 50 0 l 50 76 l 238 88 l 292 88 l 479 76 l 479 0 l 50 0 m 181 0 q 182 142 182 71 q 182 285 182 213 q 182 429 182 357 l 182 499 q 182 641 182 569 q 182 784 182 713 q 181 926 182 856 l 349 926 q 348 785 349 856 q 347 642 347 714 q 347 499 347 571 l 347 429 q 347 286 347 358 q 348 143 347 214 q 349 0 349 72 l 181 0 m 50 850 l 50 926 l 479 926 l 479 850 l 292 839 l 238 839 l 50 850 m 299 1200 l 486 1028 l 451 983 l 207 1128 l 324 1128 l 79 983 l 44 1028 l 232 1200 l 299 1200 z "},"Ï":{"ha":529,"x_min":42,"x_max":488,"o":"m 131 1022 q 68 1047 94 1022 q 42 1110 42 1072 q 68 1174 42 1149 q 131 1199 94 1199 q 194 1174 168 1199 q 219 1110 219 1149 q 194 1047 219 1072 q 131 1022 168 1022 m 399 1022 q 335 1047 361 1022 q 310 1110 310 1072 q 335 1174 310 1149 q 399 1199 361 1199 q 462 1174 436 1199 q 488 1110 488 1149 q 462 1047 488 1072 q 399 1022 436 1022 m 50 0 l 50 76 l 238 88 l 292 88 l 479 76 l 479 0 l 50 0 m 181 0 q 182 142 182 71 q 182 285 182 213 q 182 429 182 357 l 182 499 q 182 641 182 569 q 182 784 182 713 q 181 926 182 856 l 349 926 q 348 785 349 856 q 347 642 347 714 q 347 499 347 571 l 347 429 q 347 286 347 358 q 348 143 347 214 q 349 0 349 72 l 181 0 m 50 850 l 50 926 l 479 926 l 479 850 l 292 839 l 238 839 l 50 850 z "},"Ī":{"ha":529,"x_min":50,"x_max":479,"o":"m 50 0 l 50 76 l 238 88 l 292 88 l 479 76 l 479 0 l 50 0 m 181 0 q 182 142 182 71 q 182 285 182 213 q 182 429 182 357 l 182 499 q 182 641 182 569 q 182 784 182 713 q 181 926 182 856 l 349 926 q 348 785 349 856 q 347 642 347 714 q 347 499 347 571 l 347 429 q 347 286 347 358 q 348 143 347 214 q 349 0 349 72 l 181 0 m 50 850 l 50 926 l 479 926 l 479 850 l 292 839 l 238 839 l 50 850 m 68 1039 l 68 1140 l 463 1140 l 463 1039 l 68 1039 z "},"İ":{"ha":529,"x_min":50,"x_max":479,"o":"m 50 0 l 50 76 l 238 88 l 292 88 l 479 76 l 479 0 l 50 0 m 181 0 q 182 142 182 71 q 182 285 182 213 q 182 429 182 357 l 182 499 q 182 641 182 569 q 182 784 182 713 q 181 926 182 856 l 349 926 q 348 785 349 856 q 347 642 347 714 q 347 499 347 571 l 347 429 q 347 286 347 358 q 348 143 347 214 q 349 0 349 72 l 181 0 m 50 850 l 50 926 l 479 926 l 479 850 l 292 839 l 238 839 l 50 850 m 265 1011 q 194 1039 224 1011 q 165 1108 165 1067 q 194 1178 165 1151 q 265 1206 224 1206 q 337 1178 308 1206 q 365 1108 365 1151 q 337 1039 365 1067 q 265 1011 308 1011 z "},"Į":{"ha":529,"x_min":50,"x_max":479,"o":"m 50 0 l 50 76 l 238 88 l 292 88 l 479 76 l 479 0 l 50 0 m 181 0 q 182 142 182 71 q 182 285 182 213 q 182 429 182 357 l 182 499 q 182 641 182 569 q 182 784 182 713 q 181 926 182 856 l 349 926 q 348 785 349 856 q 347 642 347 714 q 347 499 347 571 l 347 429 q 347 286 347 358 q 348 143 347 214 q 349 0 349 72 l 181 0 m 50 850 l 50 926 l 479 926 l 479 850 l 292 839 l 238 839 l 50 850 m 311 -311 q 210 -277 247 -311 q 174 -185 174 -243 q 192 -106 174 -140 q 241 -47 210 -72 q 310 -7 272 -22 l 310 17 l 369 17 q 301 -58 325 -19 q 278 -140 278 -97 q 300 -199 278 -176 q 357 -222 322 -222 q 392 -218 376 -222 q 424 -208 408 -214 l 443 -261 q 389 -297 419 -283 q 311 -311 358 -311 z "},"Ǐ":{"ha":529,"x_min":50,"x_max":479,"o":"m 50 0 l 50 76 l 238 88 l 292 88 l 479 76 l 479 0 l 50 0 m 181 0 q 182 142 182 71 q 182 285 182 213 q 182 429 182 357 l 182 499 q 182 641 182 569 q 182 784 182 713 q 181 926 182 856 l 349 926 q 348 785 349 856 q 347 642 347 714 q 347 499 347 571 l 347 429 q 347 286 347 358 q 348 143 347 214 q 349 0 349 72 l 181 0 m 50 850 l 50 926 l 479 926 l 479 850 l 292 839 l 238 839 l 50 850 m 96 1211 l 328 1057 l 203 1057 l 435 1211 l 474 1172 l 315 1003 l 215 1003 l 57 1172 l 96 1211 z "},"Ị":{"ha":529,"x_min":50,"x_max":479,"o":"m 50 0 l 50 76 l 238 88 l 292 88 l 479 76 l 479 0 l 50 0 m 181 0 q 182 142 182 71 q 182 285 182 213 q 182 429 182 357 l 182 499 q 182 641 182 569 q 182 784 182 713 q 181 926 182 856 l 349 926 q 348 785 349 856 q 347 642 347 714 q 347 499 347 571 l 347 429 q 347 286 347 358 q 348 143 347 214 q 349 0 349 72 l 181 0 m 50 850 l 50 926 l 479 926 l 479 850 l 292 839 l 238 839 l 50 850 z "},"Ỉ":{"ha":529,"x_min":50,"x_max":479,"o":"m 50 0 l 50 76 l 238 88 l 292 88 l 479 76 l 479 0 l 50 0 m 181 0 q 182 142 182 71 q 182 285 182 213 q 182 429 182 357 l 182 499 q 182 641 182 569 q 182 784 182 713 q 181 926 182 856 l 349 926 q 348 785 349 856 q 347 642 347 714 q 347 499 347 571 l 347 429 q 347 286 347 358 q 348 143 347 214 q 349 0 349 72 l 181 0 m 50 850 l 50 926 l 479 926 l 479 850 l 292 839 l 238 839 l 50 850 m 233 990 l 224 1042 q 277 1057 260 1049 q 294 1083 294 1065 q 269 1115 294 1103 q 182 1131 243 1126 l 194 1233 q 335 1194 289 1226 q 381 1106 381 1161 q 342 1027 381 1056 q 233 990 304 999 z "},"Ĩ":{"ha":529,"x_min":11,"x_max":519,"o":"m 50 0 l 50 76 l 238 88 l 292 88 l 479 76 l 479 0 l 50 0 m 181 0 q 182 142 182 71 q 182 285 182 213 q 182 429 182 357 l 182 499 q 182 641 182 569 q 182 784 182 713 q 181 926 182 856 l 349 926 q 348 785 349 856 q 347 642 347 714 q 347 499 347 571 l 347 429 q 347 286 347 358 q 348 143 347 214 q 349 0 349 72 l 181 0 m 50 850 l 50 926 l 479 926 l 479 850 l 292 839 l 238 839 l 50 850 m 11 1018 q 63 1149 25 1103 q 161 1196 100 1196 q 223 1184 196 1196 q 275 1153 250 1172 q 323 1121 299 1136 q 376 1106 347 1106 q 428 1128 407 1106 q 463 1194 449 1151 l 519 1176 q 468 1046 504 1093 q 369 999 432 999 q 309 1010 336 999 q 258 1039 282 1022 q 208 1073 232 1057 q 154 1089 185 1089 q 103 1067 124 1089 q 68 1001 82 1044 l 11 1018 z "},"Ĵ":{"ha":538,"x_min":-43,"x_max":504,"o":"m 90 -189 q 1 -172 38 -189 q -43 -115 -35 -156 q -14 -59 -37 -76 q 47 -42 10 -42 q 102 -52 79 -42 q 153 -89 125 -62 l 194 -126 l 176 -126 l 189 -126 l 179 -129 q 193 -82 188 -107 q 201 -24 199 -57 q 206 58 204 10 q 207 176 207 107 q 207 254 207 215 q 207 338 207 293 q 206 438 207 383 q 206 562 206 492 q 205 722 206 632 q 203 926 204 811 l 369 926 q 367 715 368 821 q 367 500 367 608 l 367 261 q 363 126 367 182 q 348 30 358 71 q 322 -42 338 -11 q 282 -100 306 -72 q 199 -167 247 -144 q 90 -189 151 -189 m 53 850 l 53 926 l 499 926 l 499 850 l 313 839 l 256 839 l 53 850 m 317 1200 l 504 1028 l 469 983 l 225 1128 l 342 1128 l 97 983 l 63 1028 l 250 1200 l 317 1200 z "},"Ķ":{"ha":997,"x_min":50,"x_max":979,"o":"m 181 0 q 182 142 182 71 q 182 285 182 213 q 182 429 182 357 l 182 499 q 182 641 182 569 q 182 784 182 713 q 181 926 182 856 l 346 926 q 345 785 346 856 q 344 642 344 714 q 344 499 344 571 l 344 403 q 344 278 344 344 q 345 142 344 213 q 346 0 346 72 l 181 0 m 50 0 l 50 76 l 238 88 l 292 88 l 471 76 l 471 0 l 50 0 m 50 850 l 50 926 l 475 926 l 475 850 l 292 839 l 238 839 l 50 850 m 586 0 l 586 76 l 756 88 l 806 88 l 979 76 l 979 0 l 586 0 m 603 850 l 603 926 l 951 926 l 951 850 l 789 839 l 743 838 l 603 850 m 282 249 l 279 365 l 318 365 l 408 483 l 786 926 l 897 926 l 282 249 m 740 0 l 453 496 l 557 613 l 921 0 l 740 0 m 603 -178 q 582 -260 603 -225 q 526 -320 561 -296 q 446 -358 490 -344 l 425 -308 q 492 -269 467 -292 q 528 -215 518 -246 l 540 -257 q 465 -209 488 -236 q 442 -151 442 -182 q 463 -93 442 -115 q 522 -71 485 -71 q 560 -77 543 -71 q 590 -96 578 -83 q 599 -131 596 -112 q 603 -178 603 -149 z "},"Ĺ":{"ha":857,"x_min":53,"x_max":807,"o":"m 53 0 l 53 76 l 238 88 l 257 88 l 257 0 l 53 0 m 182 0 q 184 143 183 72 q 185 285 185 214 q 185 425 185 356 l 185 499 q 185 642 185 571 q 184 785 185 714 q 182 926 183 856 l 351 926 q 351 784 351 856 q 350 642 350 713 q 350 499 350 571 l 350 415 q 350 281 350 350 q 351 142 350 213 q 351 0 351 71 l 182 0 m 267 0 l 267 82 l 721 82 l 664 33 l 715 278 l 807 278 l 794 0 l 267 0 m 53 850 l 53 926 l 493 926 l 493 850 l 297 839 l 238 839 l 53 850 m 171 1040 q 240 1108 206 1075 q 308 1172 274 1140 q 356 1210 336 1199 q 399 1221 376 1221 q 442 1206 425 1221 q 458 1165 458 1190 q 442 1124 458 1143 q 389 1085 426 1104 q 299 1038 343 1061 q 208 990 254 1014 l 171 1040 z "},"Ľ":{"ha":857,"x_min":53,"x_max":807,"o":"m 707 1001 q 748 987 736 1001 q 760 947 760 972 q 753 895 760 928 q 735 826 746 863 q 714 757 725 790 l 686 669 l 635 669 l 640 983 q 674 997 658 993 q 707 1001 690 1001 m 53 0 l 53 76 l 238 88 l 257 88 l 257 0 l 53 0 m 182 0 q 184 143 183 72 q 185 285 185 214 q 185 425 185 356 l 185 499 q 185 642 185 571 q 184 785 185 714 q 182 926 183 856 l 351 926 q 351 784 351 856 q 350 642 350 713 q 350 499 350 571 l 350 415 q 350 281 350 350 q 351 142 350 213 q 351 0 351 71 l 182 0 m 267 0 l 267 82 l 721 82 l 664 33 l 715 278 l 807 278 l 794 0 l 267 0 m 53 850 l 53 926 l 493 926 l 493 850 l 297 839 l 238 839 l 53 850 z "},"Ļ":{"ha":857,"x_min":53,"x_max":807,"o":"m 53 0 l 53 76 l 238 88 l 257 88 l 257 0 l 53 0 m 182 0 q 184 143 183 72 q 185 285 185 214 q 185 425 185 356 l 185 499 q 185 642 185 571 q 184 785 185 714 q 182 926 183 856 l 351 926 q 351 784 351 856 q 350 642 350 713 q 350 499 350 571 l 350 415 q 350 281 350 350 q 351 142 350 213 q 351 0 351 71 l 182 0 m 267 0 l 267 82 l 721 82 l 664 33 l 715 278 l 807 278 l 794 0 l 267 0 m 53 850 l 53 926 l 493 926 l 493 850 l 297 839 l 238 839 l 53 850 m 540 -178 q 519 -260 540 -225 q 463 -320 499 -296 q 383 -358 428 -344 l 363 -308 q 430 -269 404 -292 q 465 -215 456 -246 l 478 -257 q 402 -209 425 -236 q 379 -151 379 -182 q 401 -93 379 -115 q 460 -71 422 -71 q 498 -77 481 -71 q 528 -96 515 -83 q 537 -131 533 -112 q 540 -178 540 -149 z "},"Ŀ":{"ha":857,"x_min":53,"x_max":807,"o":"m 53 0 l 53 76 l 238 88 l 257 88 l 257 0 l 53 0 m 182 0 q 184 143 183 72 q 185 285 185 214 q 185 425 185 356 l 185 499 q 185 642 185 571 q 184 785 185 714 q 182 926 183 856 l 351 926 q 351 784 351 856 q 350 642 350 713 q 350 499 350 571 l 350 415 q 350 281 350 350 q 351 142 350 213 q 351 0 351 71 l 182 0 m 267 0 l 267 82 l 721 82 l 664 33 l 715 278 l 807 278 l 794 0 l 267 0 m 53 850 l 53 926 l 493 926 l 493 850 l 297 839 l 238 839 l 53 850 z "},"Ḷ":{"ha":857,"x_min":53,"x_max":807,"o":"m 53 0 l 53 76 l 238 88 l 257 88 l 257 0 l 53 0 m 182 0 q 184 143 183 72 q 185 285 185 214 q 185 425 185 356 l 185 499 q 185 642 185 571 q 184 785 185 714 q 182 926 183 856 l 351 926 q 351 784 351 856 q 350 642 350 713 q 350 499 350 571 l 350 415 q 350 281 350 350 q 351 142 350 213 q 351 0 351 71 l 182 0 m 267 0 l 267 82 l 721 82 l 664 33 l 715 278 l 807 278 l 794 0 l 267 0 m 53 850 l 53 926 l 493 926 l 493 850 l 297 839 l 238 839 l 53 850 z "},"Ḹ":{"ha":857,"x_min":53,"x_max":807,"o":"m 53 0 l 53 76 l 238 88 l 257 88 l 257 0 l 53 0 m 182 0 q 184 143 183 72 q 185 285 185 214 q 185 425 185 356 l 185 499 q 185 642 185 571 q 184 785 185 714 q 182 926 183 856 l 351 926 q 351 784 351 856 q 350 642 350 713 q 350 499 350 571 l 350 415 q 350 281 350 350 q 351 142 350 213 q 351 0 351 71 l 182 0 m 267 0 l 267 82 l 721 82 l 664 33 l 715 278 l 807 278 l 794 0 l 267 0 m 53 850 l 53 926 l 493 926 l 493 850 l 297 839 l 238 839 l 53 850 m 78 1039 l 78 1140 l 472 1140 l 472 1039 l 78 1039 z "},"Ḻ":{"ha":857,"x_min":53,"x_max":807,"o":"m 53 0 l 53 76 l 238 88 l 257 88 l 257 0 l 53 0 m 182 0 q 184 143 183 72 q 185 285 185 214 q 185 425 185 356 l 185 499 q 185 642 185 571 q 184 785 185 714 q 182 926 183 856 l 351 926 q 351 784 351 856 q 350 642 350 713 q 350 499 350 571 l 350 415 q 350 281 350 350 q 351 142 350 213 q 351 0 351 71 l 182 0 m 267 0 l 267 82 l 721 82 l 664 33 l 715 278 l 807 278 l 794 0 l 267 0 m 53 850 l 53 926 l 493 926 l 493 850 l 297 839 l 238 839 l 53 850 z "},"Ł":{"ha":857,"x_min":53,"x_max":807,"o":"m 585 656 l 585 572 l 288 404 l 288 489 l 585 656 m 257 482 l 257 397 l 57 286 l 57 371 l 257 482 m 53 0 l 53 76 l 238 88 l 257 88 l 257 0 l 53 0 m 182 0 q 184 143 183 72 q 185 285 185 214 q 185 425 185 356 l 185 499 q 185 642 185 571 q 184 785 185 714 q 182 926 183 856 l 351 926 q 351 784 351 856 q 350 642 350 713 q 350 499 350 571 l 350 415 q 350 281 350 350 q 351 142 350 213 q 351 0 351 71 l 182 0 m 267 0 l 267 82 l 721 82 l 664 33 l 715 278 l 807 278 l 794 0 l 267 0 m 53 850 l 53 926 l 493 926 l 493 850 l 297 839 l 238 839 l 53 850 z "},"Ḿ":{"ha":1296,"x_min":46,"x_max":1244,"o":"m 46 0 l 46 76 l 200 88 l 243 88 l 393 76 l 393 0 l 46 0 m 56 850 l 56 926 l 233 926 l 233 839 l 214 839 l 56 850 m 178 0 l 178 926 l 243 926 l 265 488 l 265 0 l 178 0 m 561 0 l 239 828 l 204 828 l 204 926 l 360 926 l 656 165 l 639 165 l 701 342 l 922 926 l 1003 926 l 1003 828 l 963 828 l 900 644 l 654 0 l 561 0 m 822 0 l 822 76 l 988 88 l 1069 88 l 1244 76 l 1244 0 l 822 0 m 949 0 q 950 151 950 76 q 950 302 950 226 q 950 453 950 378 l 951 926 l 1115 926 q 1113 785 1114 856 q 1113 642 1113 714 q 1113 499 1113 571 l 1113 429 q 1113 286 1113 358 q 1113 143 1113 214 q 1115 0 1114 72 l 949 0 m 1050 839 l 1050 926 l 1244 926 l 1244 850 l 1069 839 l 1050 839 m 532 1040 q 601 1108 567 1075 q 669 1172 635 1140 q 717 1210 697 1199 q 760 1221 738 1221 q 803 1206 786 1221 q 819 1165 819 1190 q 803 1124 819 1143 q 750 1085 788 1104 q 660 1038 704 1061 q 569 990 615 1014 l 532 1040 z "},"Ṃ":{"ha":1296,"x_min":46,"x_max":1244,"o":"m 46 0 l 46 76 l 200 88 l 243 88 l 393 76 l 393 0 l 46 0 m 56 850 l 56 926 l 233 926 l 233 839 l 214 839 l 56 850 m 178 0 l 178 926 l 243 926 l 265 488 l 265 0 l 178 0 m 561 0 l 239 828 l 204 828 l 204 926 l 360 926 l 656 165 l 639 165 l 701 342 l 922 926 l 1003 926 l 1003 828 l 963 828 l 900 644 l 654 0 l 561 0 m 822 0 l 822 76 l 988 88 l 1069 88 l 1244 76 l 1244 0 l 822 0 m 949 0 q 950 151 950 76 q 950 302 950 226 q 950 453 950 378 l 951 926 l 1115 926 q 1113 785 1114 856 q 1113 642 1113 714 q 1113 499 1113 571 l 1113 429 q 1113 286 1113 358 q 1113 143 1113 214 q 1115 0 1114 72 l 949 0 m 1050 839 l 1050 926 l 1244 926 l 1244 850 l 1069 839 l 1050 839 z "},"Ń":{"ha":1058,"x_min":50,"x_max":1014,"o":"m 50 0 l 50 76 l 203 88 l 246 88 l 413 76 l 413 0 l 50 0 m 178 0 l 178 892 l 244 892 l 264 433 l 264 0 l 178 0 m 654 850 l 654 926 l 1014 926 l 1014 850 l 867 839 l 825 839 l 654 850 m 800 -8 l 250 776 l 222 776 l 196 844 l 54 850 l 54 926 l 326 926 l 818 219 l 815 215 l 801 510 l 801 926 l 889 926 l 889 -8 l 800 -8 m 433 1040 q 502 1108 468 1075 q 571 1172 536 1140 q 619 1210 599 1199 q 661 1221 639 1221 q 704 1206 688 1221 q 721 1165 721 1190 q 705 1124 721 1143 q 651 1085 689 1104 q 561 1038 606 1061 q 471 990 517 1014 l 433 1040 z "},"Ň":{"ha":1058,"x_min":50,"x_max":1014,"o":"m 50 0 l 50 76 l 203 88 l 246 88 l 413 76 l 413 0 l 50 0 m 178 0 l 178 892 l 244 892 l 264 433 l 264 0 l 178 0 m 654 850 l 654 926 l 1014 926 l 1014 850 l 867 839 l 825 839 l 654 850 m 800 -8 l 250 776 l 222 776 l 196 844 l 54 850 l 54 926 l 326 926 l 818 219 l 815 215 l 801 510 l 801 926 l 889 926 l 889 -8 l 800 -8 m 368 1211 l 600 1057 l 475 1057 l 707 1211 l 746 1172 l 588 1003 l 488 1003 l 329 1172 l 368 1211 z "},"Ǹ":{"ha":1058,"x_min":50,"x_max":1014,"o":"m 50 0 l 50 76 l 203 88 l 246 88 l 413 76 l 413 0 l 50 0 m 178 0 l 178 892 l 244 892 l 264 433 l 264 0 l 178 0 m 654 850 l 654 926 l 1014 926 l 1014 850 l 867 839 l 825 839 l 654 850 m 800 -8 l 250 776 l 222 776 l 196 844 l 54 850 l 54 926 l 326 926 l 818 219 l 815 215 l 801 510 l 801 926 l 889 926 l 889 -8 l 800 -8 m 642 1040 l 604 990 q 514 1038 558 1014 q 424 1083 469 1061 q 370 1124 386 1104 q 354 1165 354 1143 q 371 1206 354 1190 q 414 1221 388 1221 q 456 1210 436 1221 q 504 1172 476 1199 q 574 1107 539 1140 q 642 1040 608 1074 z "},"Ñ":{"ha":1058,"x_min":50,"x_max":1014,"o":"m 50 0 l 50 76 l 203 88 l 246 88 l 413 76 l 413 0 l 50 0 m 178 0 l 178 892 l 244 892 l 264 433 l 264 0 l 178 0 m 654 850 l 654 926 l 1014 926 l 1014 850 l 867 839 l 825 839 l 654 850 m 800 -8 l 250 776 l 222 776 l 196 844 l 54 850 l 54 926 l 326 926 l 818 219 l 815 215 l 801 510 l 801 926 l 889 926 l 889 -8 l 800 -8 m 283 1018 q 335 1149 297 1103 q 433 1196 372 1196 q 495 1184 468 1196 q 547 1153 522 1172 q 595 1121 571 1136 q 649 1106 619 1106 q 700 1128 679 1106 q 735 1194 721 1151 l 792 1176 q 740 1046 776 1093 q 642 999 704 999 q 581 1010 608 999 q 531 1039 554 1022 q 481 1073 504 1057 q 426 1089 457 1089 q 375 1067 396 1089 q 340 1001 354 1044 l 283 1018 z "},"Ņ":{"ha":1058,"x_min":50,"x_max":1014,"o":"m 50 0 l 50 76 l 203 88 l 246 88 l 413 76 l 413 0 l 50 0 m 178 0 l 178 892 l 244 892 l 264 433 l 264 0 l 178 0 m 654 850 l 654 926 l 1014 926 l 1014 850 l 867 839 l 825 839 l 654 850 m 800 -8 l 250 776 l 222 776 l 196 844 l 54 850 l 54 926 l 326 926 l 818 219 l 815 215 l 801 510 l 801 926 l 889 926 l 889 -8 l 800 -8 m 619 -178 q 599 -260 619 -225 q 542 -320 578 -296 q 463 -358 507 -344 l 442 -308 q 509 -269 483 -292 q 544 -215 535 -246 l 557 -257 q 481 -209 504 -236 q 458 -151 458 -182 q 480 -93 458 -115 q 539 -71 501 -71 q 577 -77 560 -71 q 607 -96 594 -83 q 616 -131 613 -112 q 619 -178 619 -149 z "},"Ṅ":{"ha":1058,"x_min":50,"x_max":1014,"o":"m 50 0 l 50 76 l 203 88 l 246 88 l 413 76 l 413 0 l 50 0 m 178 0 l 178 892 l 244 892 l 264 433 l 264 0 l 178 0 m 654 850 l 654 926 l 1014 926 l 1014 850 l 867 839 l 825 839 l 654 850 m 800 -8 l 250 776 l 222 776 l 196 844 l 54 850 l 54 926 l 326 926 l 818 219 l 815 215 l 801 510 l 801 926 l 889 926 l 889 -8 l 800 -8 m 538 1011 q 467 1039 496 1011 q 438 1108 438 1067 q 467 1178 438 1151 q 538 1206 496 1206 q 609 1178 581 1206 q 638 1108 638 1151 q 609 1039 638 1067 q 538 1011 581 1011 z "},"Ṇ":{"ha":1058,"x_min":50,"x_max":1014,"o":"m 50 0 l 50 76 l 203 88 l 246 88 l 413 76 l 413 0 l 50 0 m 178 0 l 178 892 l 244 892 l 264 433 l 264 0 l 178 0 m 654 850 l 654 926 l 1014 926 l 1014 850 l 867 839 l 825 839 l 654 850 m 800 -8 l 250 776 l 222 776 l 196 844 l 54 850 l 54 926 l 326 926 l 818 219 l 815 215 l 801 510 l 801 926 l 889 926 l 889 -8 l 800 -8 z "},"Ṉ":{"ha":1058,"x_min":50,"x_max":1014,"o":"m 50 0 l 50 76 l 203 88 l 246 88 l 413 76 l 413 0 l 50 0 m 178 0 l 178 892 l 244 892 l 264 433 l 264 0 l 178 0 m 654 850 l 654 926 l 1014 926 l 1014 850 l 867 839 l 825 839 l 654 850 m 800 -8 l 250 776 l 222 776 l 196 844 l 54 850 l 54 926 l 326 926 l 818 219 l 815 215 l 801 510 l 801 926 l 889 926 l 889 -8 l 800 -8 z "},"Ò":{"ha":1028,"x_min":64,"x_max":964,"o":"m 514 -22 q 340 10 422 -22 q 196 103 258 42 q 99 256 133 165 q 64 461 64 346 q 99 665 64 575 q 197 819 135 756 q 340 915 258 882 q 514 949 422 949 q 687 917 606 949 q 831 823 768 885 q 928 672 893 761 q 964 467 964 583 q 928 263 964 353 q 831 108 893 172 q 688 11 769 44 q 514 -22 606 -22 m 514 60 q 635 92 585 60 q 720 179 686 124 q 770 308 754 235 q 786 464 786 381 q 770 619 786 546 q 720 747 754 692 q 635 835 686 803 q 514 867 585 867 q 393 835 444 867 q 308 747 342 803 q 257 619 274 692 q 240 464 240 547 q 257 308 240 382 q 308 179 274 235 q 393 92 342 124 q 514 60 444 60 m 618 1040 l 581 990 q 490 1038 535 1014 q 400 1083 446 1061 q 347 1124 363 1104 q 331 1165 331 1143 q 347 1206 331 1190 q 390 1221 364 1221 q 433 1210 413 1221 q 481 1172 453 1199 q 550 1107 515 1140 q 618 1040 585 1074 z "},"Ó":{"ha":1028,"x_min":64,"x_max":964,"o":"m 514 -22 q 340 10 422 -22 q 196 103 258 42 q 99 256 133 165 q 64 461 64 346 q 99 665 64 575 q 197 819 135 756 q 340 915 258 882 q 514 949 422 949 q 687 917 606 949 q 831 823 768 885 q 928 672 893 761 q 964 467 964 583 q 928 263 964 353 q 831 108 893 172 q 688 11 769 44 q 514 -22 606 -22 m 514 60 q 635 92 585 60 q 720 179 686 124 q 770 308 754 235 q 786 464 786 381 q 770 619 786 546 q 720 747 754 692 q 635 835 686 803 q 514 867 585 867 q 393 835 444 867 q 308 747 342 803 q 257 619 274 692 q 240 464 240 547 q 257 308 240 382 q 308 179 274 235 q 393 92 342 124 q 514 60 444 60 m 410 1040 q 478 1108 444 1075 q 547 1172 513 1140 q 595 1210 575 1199 q 638 1221 615 1221 q 681 1206 664 1221 q 697 1165 697 1190 q 681 1124 697 1143 q 628 1085 665 1104 q 538 1038 582 1061 q 447 990 493 1014 l 410 1040 z "},"Ŏ":{"ha":1028,"x_min":64,"x_max":964,"o":"m 514 -22 q 340 10 422 -22 q 196 103 258 42 q 99 256 133 165 q 64 461 64 346 q 99 665 64 575 q 197 819 135 756 q 340 915 258 882 q 514 949 422 949 q 687 917 606 949 q 831 823 768 885 q 928 672 893 761 q 964 467 964 583 q 928 263 964 353 q 831 108 893 172 q 688 11 769 44 q 514 -22 606 -22 m 514 60 q 635 92 585 60 q 720 179 686 124 q 770 308 754 235 q 786 464 786 381 q 770 619 786 546 q 720 747 754 692 q 635 835 686 803 q 514 867 585 867 q 393 835 444 867 q 308 747 342 803 q 257 619 274 692 q 240 464 240 547 q 257 308 240 382 q 308 179 274 235 q 393 92 342 124 q 514 60 444 60 m 306 1192 l 367 1207 q 417 1133 381 1163 q 514 1104 454 1104 q 610 1133 574 1104 q 663 1207 646 1163 l 722 1192 q 689 1100 714 1142 q 621 1033 664 1058 q 514 1008 578 1008 q 407 1033 450 1008 q 340 1100 364 1058 q 306 1192 315 1142 z "},"Ô":{"ha":1028,"x_min":64,"x_max":964,"o":"m 514 -22 q 340 10 422 -22 q 196 103 258 42 q 99 256 133 165 q 64 461 64 346 q 99 665 64 575 q 197 819 135 756 q 340 915 258 882 q 514 949 422 949 q 687 917 606 949 q 831 823 768 885 q 928 672 893 761 q 964 467 964 583 q 928 263 964 353 q 831 108 893 172 q 688 11 769 44 q 514 -22 606 -22 m 514 60 q 635 92 585 60 q 720 179 686 124 q 770 308 754 235 q 786 464 786 381 q 770 619 786 546 q 720 747 754 692 q 635 835 686 803 q 514 867 585 867 q 393 835 444 867 q 308 747 342 803 q 257 619 274 692 q 240 464 240 547 q 257 308 240 382 q 308 179 274 235 q 393 92 342 124 q 514 60 444 60 m 547 1200 l 735 1028 l 700 983 l 456 1128 l 572 1128 l 328 983 l 293 1028 l 481 1200 l 547 1200 z "},"Õ":{"ha":1028,"x_min":64,"x_max":964,"o":"m 514 -22 q 340 10 422 -22 q 196 103 258 42 q 99 256 133 165 q 64 461 64 346 q 99 665 64 575 q 197 819 135 756 q 340 915 258 882 q 514 949 422 949 q 687 917 606 949 q 831 823 768 885 q 928 672 893 761 q 964 467 964 583 q 928 263 964 353 q 831 108 893 172 q 688 11 769 44 q 514 -22 606 -22 m 514 60 q 635 92 585 60 q 720 179 686 124 q 770 308 754 235 q 786 464 786 381 q 770 619 786 546 q 720 747 754 692 q 635 835 686 803 q 514 867 585 867 q 393 835 444 867 q 308 747 342 803 q 257 619 274 692 q 240 464 240 547 q 257 308 240 382 q 308 179 274 235 q 393 92 342 124 q 514 60 444 60 m 260 1018 q 311 1149 274 1103 q 410 1196 349 1196 q 472 1184 444 1196 q 524 1153 499 1172 q 572 1121 547 1136 q 625 1106 596 1106 q 676 1128 656 1106 q 711 1194 697 1151 l 768 1176 q 717 1046 753 1093 q 618 999 681 999 q 558 1010 585 999 q 507 1039 531 1022 q 457 1073 481 1057 q 403 1089 433 1089 q 351 1067 372 1089 q 317 1001 331 1044 l 260 1018 z "},"Ö":{"ha":1028,"x_min":64,"x_max":964,"o":"m 514 -22 q 340 10 422 -22 q 196 103 258 42 q 99 256 133 165 q 64 461 64 346 q 99 665 64 575 q 197 819 135 756 q 340 915 258 882 q 514 949 422 949 q 687 917 606 949 q 831 823 768 885 q 928 672 893 761 q 964 467 964 583 q 928 263 964 353 q 831 108 893 172 q 688 11 769 44 q 514 -22 606 -22 m 514 60 q 635 92 585 60 q 720 179 686 124 q 770 308 754 235 q 786 464 786 381 q 770 619 786 546 q 720 747 754 692 q 635 835 686 803 q 514 867 585 867 q 393 835 444 867 q 308 747 342 803 q 257 619 274 692 q 240 464 240 547 q 257 308 240 382 q 308 179 274 235 q 393 92 342 124 q 514 60 444 60 m 354 1022 q 291 1047 318 1022 q 264 1111 264 1072 q 291 1174 264 1149 q 354 1199 318 1199 q 418 1174 392 1199 q 444 1111 444 1149 q 418 1047 444 1072 q 354 1022 392 1022 m 674 1022 q 610 1047 636 1022 q 583 1111 583 1072 q 610 1174 583 1149 q 674 1199 636 1199 q 737 1174 710 1199 q 764 1111 764 1149 q 737 1047 764 1072 q 674 1022 710 1022 z "},"Ō":{"ha":1028,"x_min":64,"x_max":964,"o":"m 514 -22 q 340 10 422 -22 q 196 103 258 42 q 99 256 133 165 q 64 461 64 346 q 99 665 64 575 q 197 819 135 756 q 340 915 258 882 q 514 949 422 949 q 687 917 606 949 q 831 823 768 885 q 928 672 893 761 q 964 467 964 583 q 928 263 964 353 q 831 108 893 172 q 688 11 769 44 q 514 -22 606 -22 m 514 60 q 635 92 585 60 q 720 179 686 124 q 770 308 754 235 q 786 464 786 381 q 770 619 786 546 q 720 747 754 692 q 635 835 686 803 q 514 867 585 867 q 393 835 444 867 q 308 747 342 803 q 257 619 274 692 q 240 464 240 547 q 257 308 240 382 q 308 179 274 235 q 393 92 342 124 q 514 60 444 60 m 317 1039 l 317 1140 l 711 1140 l 711 1039 l 317 1039 z "},"Ő":{"ha":1028,"x_min":64,"x_max":964,"o":"m 514 -22 q 340 10 422 -22 q 196 103 258 42 q 99 256 133 165 q 64 461 64 346 q 99 665 64 575 q 197 819 135 756 q 340 915 258 882 q 514 949 422 949 q 687 917 606 949 q 831 823 768 885 q 928 672 893 761 q 964 467 964 583 q 928 263 964 353 q 831 108 893 172 q 688 11 769 44 q 514 -22 606 -22 m 514 60 q 635 92 585 60 q 720 179 686 124 q 770 308 754 235 q 786 464 786 381 q 770 619 786 546 q 720 747 754 692 q 635 835 686 803 q 514 867 585 867 q 393 835 444 867 q 308 747 342 803 q 257 619 274 692 q 240 464 240 547 q 257 308 240 382 q 308 179 274 235 q 393 92 342 124 q 514 60 444 60 m 339 1014 l 415 1171 q 452 1221 433 1204 q 493 1238 471 1238 q 534 1223 518 1238 q 550 1185 550 1208 q 542 1151 550 1168 q 515 1114 533 1133 l 390 981 l 339 1014 m 569 1014 l 646 1171 q 683 1221 664 1204 q 725 1238 701 1238 q 765 1223 749 1238 q 782 1185 782 1208 q 773 1151 782 1168 q 746 1114 764 1133 l 621 981 l 569 1014 z "},"Ǒ":{"ha":1028,"x_min":64,"x_max":964,"o":"m 514 -22 q 340 10 422 -22 q 196 103 258 42 q 99 256 133 165 q 64 461 64 346 q 99 665 64 575 q 197 819 135 756 q 340 915 258 882 q 514 949 422 949 q 687 917 606 949 q 831 823 768 885 q 928 672 893 761 q 964 467 964 583 q 928 263 964 353 q 831 108 893 172 q 688 11 769 44 q 514 -22 606 -22 m 514 60 q 635 92 585 60 q 720 179 686 124 q 770 308 754 235 q 786 464 786 381 q 770 619 786 546 q 720 747 754 692 q 635 835 686 803 q 514 867 585 867 q 393 835 444 867 q 308 747 342 803 q 257 619 274 692 q 240 464 240 547 q 257 308 240 382 q 308 179 274 235 q 393 92 342 124 q 514 60 444 60 m 344 1211 l 576 1057 l 451 1057 l 683 1211 l 722 1172 l 564 1003 l 464 1003 l 306 1172 l 344 1211 z "},"Ố":{"ha":1028,"x_min":64,"x_max":964,"o":"m 514 -22 q 340 10 422 -22 q 196 103 258 42 q 99 256 133 165 q 64 461 64 346 q 99 665 64 575 q 197 819 135 756 q 340 915 258 882 q 514 949 422 949 q 687 917 606 949 q 831 823 768 885 q 928 672 893 761 q 964 467 964 583 q 928 263 964 353 q 831 108 893 172 q 688 11 769 44 q 514 -22 606 -22 m 514 60 q 635 92 585 60 q 720 179 686 124 q 770 308 754 235 q 786 464 786 381 q 770 619 786 546 q 720 747 754 692 q 635 835 686 803 q 514 867 585 867 q 393 835 444 867 q 308 747 342 803 q 257 619 274 692 q 240 464 240 547 q 257 308 240 382 q 308 179 274 235 q 393 92 342 124 q 514 60 444 60 m 328 983 l 293 1028 l 481 1196 l 547 1196 l 735 1028 l 700 983 l 456 1124 l 572 1124 l 328 983 m 704 1115 l 661 1158 l 715 1243 q 753 1287 733 1274 q 794 1300 772 1300 q 836 1285 819 1300 q 853 1246 853 1269 q 840 1206 853 1224 q 790 1167 826 1188 l 704 1115 z "},"Ộ":{"ha":1028,"x_min":64,"x_max":964,"o":"m 514 -22 q 340 10 422 -22 q 196 103 258 42 q 99 256 133 165 q 64 461 64 346 q 99 665 64 575 q 197 819 135 756 q 340 915 258 882 q 514 949 422 949 q 687 917 606 949 q 831 823 768 885 q 928 672 893 761 q 964 467 964 583 q 928 263 964 353 q 831 108 893 172 q 688 11 769 44 q 514 -22 606 -22 m 514 60 q 635 92 585 60 q 720 179 686 124 q 770 308 754 235 q 786 464 786 381 q 770 619 786 546 q 720 747 754 692 q 635 835 686 803 q 514 867 585 867 q 393 835 444 867 q 308 747 342 803 q 257 619 274 692 q 240 464 240 547 q 257 308 240 382 q 308 179 274 235 q 393 92 342 124 q 514 60 444 60 m 547 1200 l 735 1028 l 700 983 l 456 1128 l 572 1128 l 328 983 l 293 1028 l 481 1200 l 547 1200 z "},"Ồ":{"ha":1028,"x_min":64,"x_max":964,"o":"m 514 -22 q 340 10 422 -22 q 196 103 258 42 q 99 256 133 165 q 64 461 64 346 q 99 665 64 575 q 197 819 135 756 q 340 915 258 882 q 514 949 422 949 q 687 917 606 949 q 831 823 768 885 q 928 672 893 761 q 964 467 964 583 q 928 263 964 353 q 831 108 893 172 q 688 11 769 44 q 514 -22 606 -22 m 514 60 q 635 92 585 60 q 720 179 686 124 q 770 308 754 235 q 786 464 786 381 q 770 619 786 546 q 720 747 754 692 q 635 835 686 803 q 514 867 585 867 q 393 835 444 867 q 308 747 342 803 q 257 619 274 692 q 240 464 240 547 q 257 308 240 382 q 308 179 274 235 q 393 92 342 124 q 514 60 444 60 m 700 983 l 456 1124 l 572 1124 l 328 983 l 293 1028 l 481 1196 l 547 1196 l 735 1028 l 700 983 m 318 1117 l 232 1167 q 183 1205 196 1186 q 169 1246 169 1224 q 187 1285 169 1269 q 228 1300 204 1300 q 270 1287 251 1300 q 307 1243 289 1274 l 363 1160 l 318 1117 z "},"Ổ":{"ha":1028,"x_min":64,"x_max":964,"o":"m 514 -22 q 340 10 422 -22 q 196 103 258 42 q 99 256 133 165 q 64 461 64 346 q 99 665 64 575 q 197 819 135 756 q 340 915 258 882 q 514 949 422 949 q 687 917 606 949 q 831 823 768 885 q 928 672 893 761 q 964 467 964 583 q 928 263 964 353 q 831 108 893 172 q 688 11 769 44 q 514 -22 606 -22 m 514 60 q 635 92 585 60 q 720 179 686 124 q 770 308 754 235 q 786 464 786 381 q 770 619 786 546 q 720 747 754 692 q 635 835 686 803 q 514 867 585 867 q 393 835 444 867 q 308 747 342 803 q 257 619 274 692 q 240 464 240 547 q 257 308 240 382 q 308 179 274 235 q 393 92 342 124 q 514 60 444 60 m 331 989 l 293 1032 l 476 1190 l 551 1190 l 735 1032 l 697 989 l 456 1119 l 572 1119 l 331 989 m 681 1158 q 728 1174 714 1165 q 742 1197 742 1182 q 719 1225 742 1214 q 640 1240 696 1236 l 653 1343 q 785 1306 742 1336 q 829 1219 829 1275 q 793 1144 829 1171 q 692 1108 757 1117 l 681 1158 z "},"Ỗ":{"ha":1028,"x_min":64,"x_max":964,"o":"m 514 -22 q 340 10 422 -22 q 196 103 258 42 q 99 256 133 165 q 64 461 64 346 q 99 665 64 575 q 197 819 135 756 q 340 915 258 882 q 514 949 422 949 q 687 917 606 949 q 831 823 768 885 q 928 672 893 761 q 964 467 964 583 q 928 263 964 353 q 831 108 893 172 q 688 11 769 44 q 514 -22 606 -22 m 514 60 q 635 92 585 60 q 720 179 686 124 q 770 308 754 235 q 786 464 786 381 q 770 619 786 546 q 720 747 754 692 q 635 835 686 803 q 514 867 585 867 q 393 835 444 867 q 308 747 342 803 q 257 619 274 692 q 240 464 240 547 q 257 308 240 382 q 308 179 274 235 q 393 92 342 124 q 514 60 444 60 m 329 975 l 294 1019 l 475 1161 l 553 1161 l 733 1019 l 699 975 l 456 1092 l 572 1092 l 329 975 m 279 1214 q 326 1312 292 1275 q 415 1349 360 1349 q 472 1340 447 1349 q 522 1319 497 1332 q 570 1299 549 1308 q 617 1290 592 1290 q 666 1306 646 1290 q 699 1349 686 1321 l 749 1326 q 702 1228 735 1265 q 613 1192 669 1192 q 556 1200 582 1192 q 506 1221 531 1208 q 459 1241 481 1232 q 411 1250 438 1250 q 363 1235 383 1250 q 329 1192 343 1221 l 279 1214 z "},"Ọ":{"ha":1028,"x_min":64,"x_max":964,"o":"m 514 -22 q 340 10 422 -22 q 196 103 258 42 q 99 256 133 165 q 64 461 64 346 q 99 665 64 575 q 197 819 135 756 q 340 915 258 882 q 514 949 422 949 q 687 917 606 949 q 831 823 768 885 q 928 672 893 761 q 964 467 964 583 q 928 263 964 353 q 831 108 893 172 q 688 11 769 44 q 514 -22 606 -22 m 514 60 q 635 92 585 60 q 720 179 686 124 q 770 308 754 235 q 786 464 786 381 q 770 619 786 546 q 720 747 754 692 q 635 835 686 803 q 514 867 585 867 q 393 835 444 867 q 308 747 342 803 q 257 619 274 692 q 240 464 240 547 q 257 308 240 382 q 308 179 274 235 q 393 92 342 124 q 514 60 444 60 z "},"Ỏ":{"ha":1028,"x_min":64,"x_max":964,"o":"m 514 -22 q 340 10 422 -22 q 196 103 258 42 q 99 256 133 165 q 64 461 64 346 q 99 665 64 575 q 197 819 135 756 q 340 915 258 882 q 514 949 422 949 q 687 917 606 949 q 831 823 768 885 q 928 672 893 761 q 964 467 964 583 q 928 263 964 353 q 831 108 893 172 q 688 11 769 44 q 514 -22 606 -22 m 514 60 q 635 92 585 60 q 720 179 686 124 q 770 308 754 235 q 786 464 786 381 q 770 619 786 546 q 720 747 754 692 q 635 835 686 803 q 514 867 585 867 q 393 835 444 867 q 308 747 342 803 q 257 619 274 692 q 240 464 240 547 q 257 308 240 382 q 308 179 274 235 q 393 92 342 124 q 514 60 444 60 m 482 990 l 472 1042 q 526 1057 508 1049 q 543 1083 543 1065 q 517 1115 543 1103 q 431 1131 492 1126 l 443 1233 q 583 1194 538 1226 q 629 1106 629 1161 q 591 1027 629 1056 q 482 990 553 999 z "},"Ơ":{"ha":1028,"x_min":64,"x_max":964,"o":"m 514 -22 q 340 10 422 -22 q 196 103 258 42 q 99 256 133 165 q 64 461 64 346 q 99 665 64 575 q 197 819 135 756 q 340 915 258 882 q 514 949 422 949 q 687 917 606 949 q 831 823 768 885 q 928 672 893 761 q 964 467 964 583 q 928 263 964 353 q 831 108 893 172 q 688 11 769 44 q 514 -22 606 -22 m 514 60 q 635 92 585 60 q 720 179 686 124 q 770 308 754 235 q 786 464 786 381 q 770 619 786 546 q 720 747 754 692 q 635 835 686 803 q 514 867 585 867 q 393 835 444 867 q 308 747 342 803 q 257 619 274 692 q 240 464 240 547 q 257 308 240 382 q 308 179 274 235 q 393 92 342 124 q 514 60 444 60 m 774 792 l 774 836 q 837 865 815 842 q 858 929 858 889 q 849 974 858 957 q 830 1008 839 990 q 821 1050 821 1025 q 838 1093 821 1074 q 886 1113 854 1113 q 914 1109 901 1113 q 939 1097 926 1106 q 955 1056 950 1081 q 960 1006 960 1031 q 936 898 960 944 q 871 824 913 851 q 774 792 829 797 z "},"Ớ":{"ha":1028,"x_min":64,"x_max":964,"o":"m 514 -22 q 340 10 422 -22 q 196 103 258 42 q 99 256 133 165 q 64 461 64 346 q 99 665 64 575 q 197 819 135 756 q 340 915 258 882 q 514 949 422 949 q 687 917 606 949 q 831 823 768 885 q 928 672 893 761 q 964 467 964 583 q 928 263 964 353 q 831 108 893 172 q 688 11 769 44 q 514 -22 606 -22 m 514 60 q 635 92 585 60 q 720 179 686 124 q 770 308 754 235 q 786 464 786 381 q 770 619 786 546 q 720 747 754 692 q 635 835 686 803 q 514 867 585 867 q 393 835 444 867 q 308 747 342 803 q 257 619 274 692 q 240 464 240 547 q 257 308 240 382 q 308 179 274 235 q 393 92 342 124 q 514 60 444 60 m 774 792 l 774 836 q 837 865 815 842 q 858 929 858 889 q 849 974 858 957 q 830 1008 839 990 q 821 1050 821 1025 q 838 1093 821 1074 q 886 1113 854 1113 q 914 1109 901 1113 q 939 1097 926 1106 q 955 1056 950 1081 q 960 1006 960 1031 q 936 898 960 944 q 871 824 913 851 q 774 792 829 797 m 410 1040 q 478 1108 444 1075 q 547 1172 513 1140 q 595 1210 575 1199 q 638 1221 615 1221 q 681 1206 664 1221 q 697 1165 697 1190 q 681 1124 697 1143 q 628 1085 665 1104 q 538 1038 582 1061 q 447 990 493 1014 l 410 1040 z "},"Ợ":{"ha":1028,"x_min":64,"x_max":964,"o":"m 514 -22 q 340 10 422 -22 q 196 103 258 42 q 99 256 133 165 q 64 461 64 346 q 99 665 64 575 q 197 819 135 756 q 340 915 258 882 q 514 949 422 949 q 687 917 606 949 q 831 823 768 885 q 928 672 893 761 q 964 467 964 583 q 928 263 964 353 q 831 108 893 172 q 688 11 769 44 q 514 -22 606 -22 m 514 60 q 635 92 585 60 q 720 179 686 124 q 770 308 754 235 q 786 464 786 381 q 770 619 786 546 q 720 747 754 692 q 635 835 686 803 q 514 867 585 867 q 393 835 444 867 q 308 747 342 803 q 257 619 274 692 q 240 464 240 547 q 257 308 240 382 q 308 179 274 235 q 393 92 342 124 q 514 60 444 60 m 774 792 l 774 836 q 837 865 815 842 q 858 929 858 889 q 849 974 858 957 q 830 1008 839 990 q 821 1050 821 1025 q 838 1093 821 1074 q 886 1113 854 1113 q 914 1109 901 1113 q 939 1097 926 1106 q 955 1056 950 1081 q 960 1006 960 1031 q 936 898 960 944 q 871 824 913 851 q 774 792 829 797 z "},"Ờ":{"ha":1028,"x_min":64,"x_max":964,"o":"m 514 -22 q 340 10 422 -22 q 196 103 258 42 q 99 256 133 165 q 64 461 64 346 q 99 665 64 575 q 197 819 135 756 q 340 915 258 882 q 514 949 422 949 q 687 917 606 949 q 831 823 768 885 q 928 672 893 761 q 964 467 964 583 q 928 263 964 353 q 831 108 893 172 q 688 11 769 44 q 514 -22 606 -22 m 514 60 q 635 92 585 60 q 720 179 686 124 q 770 308 754 235 q 786 464 786 381 q 770 619 786 546 q 720 747 754 692 q 635 835 686 803 q 514 867 585 867 q 393 835 444 867 q 308 747 342 803 q 257 619 274 692 q 240 464 240 547 q 257 308 240 382 q 308 179 274 235 q 393 92 342 124 q 514 60 444 60 m 774 792 l 774 836 q 837 865 815 842 q 858 929 858 889 q 849 974 858 957 q 830 1008 839 990 q 821 1050 821 1025 q 838 1093 821 1074 q 886 1113 854 1113 q 914 1109 901 1113 q 939 1097 926 1106 q 955 1056 950 1081 q 960 1006 960 1031 q 936 898 960 944 q 871 824 913 851 q 774 792 829 797 m 618 1040 l 581 990 q 490 1038 535 1014 q 400 1083 446 1061 q 347 1124 363 1104 q 331 1165 331 1143 q 347 1206 331 1190 q 390 1221 364 1221 q 433 1210 413 1221 q 481 1172 453 1199 q 550 1107 515 1140 q 618 1040 585 1074 z "},"Ở":{"ha":1028,"x_min":64,"x_max":964,"o":"m 514 -22 q 340 10 422 -22 q 196 103 258 42 q 99 256 133 165 q 64 461 64 346 q 99 665 64 575 q 197 819 135 756 q 340 915 258 882 q 514 949 422 949 q 687 917 606 949 q 831 823 768 885 q 928 672 893 761 q 964 467 964 583 q 928 263 964 353 q 831 108 893 172 q 688 11 769 44 q 514 -22 606 -22 m 514 60 q 635 92 585 60 q 720 179 686 124 q 770 308 754 235 q 786 464 786 381 q 770 619 786 546 q 720 747 754 692 q 635 835 686 803 q 514 867 585 867 q 393 835 444 867 q 308 747 342 803 q 257 619 274 692 q 240 464 240 547 q 257 308 240 382 q 308 179 274 235 q 393 92 342 124 q 514 60 444 60 m 774 792 l 774 836 q 837 865 815 842 q 858 929 858 889 q 849 974 858 957 q 830 1008 839 990 q 821 1050 821 1025 q 838 1093 821 1074 q 886 1113 854 1113 q 914 1109 901 1113 q 939 1097 926 1106 q 955 1056 950 1081 q 960 1006 960 1031 q 936 898 960 944 q 871 824 913 851 q 774 792 829 797 m 482 990 l 472 1042 q 526 1057 508 1049 q 543 1083 543 1065 q 517 1115 543 1103 q 431 1131 492 1126 l 443 1233 q 583 1194 538 1226 q 629 1106 629 1161 q 591 1027 629 1056 q 482 990 553 999 z "},"Ỡ":{"ha":1028,"x_min":64,"x_max":964,"o":"m 514 -22 q 340 10 422 -22 q 196 103 258 42 q 99 256 133 165 q 64 461 64 346 q 99 665 64 575 q 197 819 135 756 q 340 915 258 882 q 514 949 422 949 q 687 917 606 949 q 831 823 768 885 q 928 672 893 761 q 964 467 964 583 q 928 263 964 353 q 831 108 893 172 q 688 11 769 44 q 514 -22 606 -22 m 514 60 q 635 92 585 60 q 720 179 686 124 q 770 308 754 235 q 786 464 786 381 q 770 619 786 546 q 720 747 754 692 q 635 835 686 803 q 514 867 585 867 q 393 835 444 867 q 308 747 342 803 q 257 619 274 692 q 240 464 240 547 q 257 308 240 382 q 308 179 274 235 q 393 92 342 124 q 514 60 444 60 m 774 792 l 774 836 q 837 865 815 842 q 858 929 858 889 q 849 974 858 957 q 830 1008 839 990 q 821 1050 821 1025 q 838 1093 821 1074 q 886 1113 854 1113 q 914 1109 901 1113 q 939 1097 926 1106 q 955 1056 950 1081 q 960 1006 960 1031 q 936 898 960 944 q 871 824 913 851 q 774 792 829 797 m 260 1018 q 311 1149 274 1103 q 410 1196 349 1196 q 472 1184 444 1196 q 524 1153 499 1172 q 572 1121 547 1136 q 625 1106 596 1106 q 676 1128 656 1106 q 711 1194 697 1151 l 768 1176 q 717 1046 753 1093 q 618 999 681 999 q 558 1010 585 999 q 507 1039 531 1022 q 457 1073 481 1057 q 403 1089 433 1089 q 351 1067 372 1089 q 317 1001 331 1044 l 260 1018 z "},"Ø":{"ha":1028,"x_min":64,"x_max":964,"o":"m 949 903 l 133 -28 l 74 24 l 889 954 l 949 903 m 228 464 q 245 308 228 382 q 297 178 263 235 q 386 90 332 122 q 514 58 440 58 q 641 90 588 58 q 730 178 694 122 q 783 308 765 235 q 800 464 800 381 q 783 619 800 546 q 730 748 765 692 q 641 836 694 804 q 514 868 588 868 q 386 836 440 868 q 297 748 332 804 q 245 619 263 692 q 228 464 228 547 m 514 949 q 687 917 606 949 q 831 823 768 885 q 928 672 893 761 q 964 467 964 583 q 928 263 964 353 q 831 108 893 172 q 688 11 769 44 q 514 -22 606 -22 q 340 10 422 -22 q 196 103 258 42 q 99 256 133 165 q 64 461 64 346 q 99 665 64 575 q 197 819 135 756 q 340 915 258 882 q 514 949 422 949 z "},"Œ":{"ha":1347,"x_min":64,"x_max":1292,"o":"m 240 464 q 259 307 240 381 q 315 178 278 233 q 411 92 353 122 q 547 61 469 61 q 644 71 604 61 q 722 101 683 81 l 722 6 q 637 -14 681 -6 q 535 -22 593 -22 q 350 10 436 -22 q 200 105 264 43 q 100 256 136 167 q 64 461 64 346 q 100 667 64 576 q 200 819 136 757 q 350 915 264 882 q 535 949 436 949 q 637 941 593 949 q 722 921 681 933 l 722 825 q 644 856 683 846 q 547 865 604 865 q 411 835 469 865 q 315 749 353 804 q 259 622 278 694 q 240 464 240 549 m 663 0 q 664 142 664 71 q 664 288 664 214 q 664 436 664 361 l 664 499 q 664 641 664 569 q 664 784 664 713 q 663 926 664 856 l 831 926 q 828 785 829 856 q 828 642 828 714 q 828 499 828 571 l 828 443 q 828 290 828 365 q 828 144 828 215 q 831 0 829 72 l 663 0 m 1029 313 l 1003 458 l 1003 492 l 1029 635 l 1107 635 l 1107 313 l 1029 313 m 747 433 l 747 513 l 1061 513 l 1061 433 l 747 433 m 1172 679 l 1136 844 l 746 844 l 746 926 l 1253 926 l 1264 679 l 1172 679 m 1201 254 l 1292 254 l 1281 0 l 747 0 l 747 82 l 1164 82 l 1201 254 z "},"Ŕ":{"ha":969,"x_min":50,"x_max":947,"o":"m 50 0 l 50 76 l 238 88 l 293 88 l 478 76 l 478 0 l 50 0 m 181 0 q 182 142 182 71 q 182 285 182 214 q 182 429 182 357 l 182 499 q 182 641 182 569 q 182 784 182 713 q 181 926 182 856 l 349 926 q 348 782 349 854 q 347 636 347 710 q 347 485 347 563 l 347 438 q 347 289 347 363 q 348 144 347 215 q 349 0 349 72 l 181 0 m 825 -14 q 708 13 749 -14 q 650 106 667 39 l 606 288 q 572 371 593 342 q 518 412 550 400 q 435 424 486 424 l 269 424 l 269 497 l 454 497 q 575 521 528 497 q 644 586 622 544 q 667 681 667 628 q 617 807 667 765 q 461 849 567 849 l 283 849 l 283 926 l 481 926 q 744 864 651 926 q 836 689 836 801 q 799 576 836 625 q 694 499 763 528 q 535 465 626 469 l 535 457 q 628 445 589 456 q 694 414 667 435 q 741 359 722 393 q 774 275 760 325 l 839 40 l 772 89 l 947 74 l 947 0 q 911 -7 931 -4 q 871 -12 892 -10 q 825 -14 850 -14 m 50 850 l 50 926 l 244 926 l 244 839 l 226 839 l 50 850 m 365 1040 q 434 1108 400 1075 q 503 1172 468 1140 q 551 1210 531 1199 q 593 1221 571 1221 q 636 1206 619 1221 q 653 1165 653 1190 q 637 1124 653 1143 q 583 1085 621 1104 q 493 1038 538 1061 q 403 990 449 1014 l 365 1040 z "},"Ř":{"ha":969,"x_min":50,"x_max":947,"o":"m 50 0 l 50 76 l 238 88 l 293 88 l 478 76 l 478 0 l 50 0 m 181 0 q 182 142 182 71 q 182 285 182 214 q 182 429 182 357 l 182 499 q 182 641 182 569 q 182 784 182 713 q 181 926 182 856 l 349 926 q 348 782 349 854 q 347 636 347 710 q 347 485 347 563 l 347 438 q 347 289 347 363 q 348 144 347 215 q 349 0 349 72 l 181 0 m 825 -14 q 708 13 749 -14 q 650 106 667 39 l 606 288 q 572 371 593 342 q 518 412 550 400 q 435 424 486 424 l 269 424 l 269 497 l 454 497 q 575 521 528 497 q 644 586 622 544 q 667 681 667 628 q 617 807 667 765 q 461 849 567 849 l 283 849 l 283 926 l 481 926 q 744 864 651 926 q 836 689 836 801 q 799 576 836 625 q 694 499 763 528 q 535 465 626 469 l 535 457 q 628 445 589 456 q 694 414 667 435 q 741 359 722 393 q 774 275 760 325 l 839 40 l 772 89 l 947 74 l 947 0 q 911 -7 931 -4 q 871 -12 892 -10 q 825 -14 850 -14 m 50 850 l 50 926 l 244 926 l 244 839 l 226 839 l 50 850 m 300 1211 l 532 1057 l 407 1057 l 639 1211 l 678 1172 l 519 1003 l 419 1003 l 261 1172 l 300 1211 z "},"Ŗ":{"ha":969,"x_min":50,"x_max":947,"o":"m 50 0 l 50 76 l 238 88 l 293 88 l 478 76 l 478 0 l 50 0 m 181 0 q 182 142 182 71 q 182 285 182 214 q 182 429 182 357 l 182 499 q 182 641 182 569 q 182 784 182 713 q 181 926 182 856 l 349 926 q 348 782 349 854 q 347 636 347 710 q 347 485 347 563 l 347 438 q 347 289 347 363 q 348 144 347 215 q 349 0 349 72 l 181 0 m 825 -14 q 708 13 749 -14 q 650 106 667 39 l 606 288 q 572 371 593 342 q 518 412 550 400 q 435 424 486 424 l 269 424 l 269 497 l 454 497 q 575 521 528 497 q 644 586 622 544 q 667 681 667 628 q 617 807 667 765 q 461 849 567 849 l 283 849 l 283 926 l 481 926 q 744 864 651 926 q 836 689 836 801 q 799 576 836 625 q 694 499 763 528 q 535 465 626 469 l 535 457 q 628 445 589 456 q 694 414 667 435 q 741 359 722 393 q 774 275 760 325 l 839 40 l 772 89 l 947 74 l 947 0 q 911 -7 931 -4 q 871 -12 892 -10 q 825 -14 850 -14 m 50 850 l 50 926 l 244 926 l 244 839 l 226 839 l 50 850 m 600 -178 q 579 -260 600 -225 q 523 -320 558 -296 q 443 -358 488 -344 l 422 -308 q 490 -269 464 -292 q 525 -215 515 -246 l 538 -257 q 462 -209 485 -236 q 439 -151 439 -182 q 460 -93 439 -115 q 519 -71 482 -71 q 558 -77 540 -71 q 588 -96 575 -83 q 597 -131 593 -112 q 600 -178 600 -149 z "},"Ṛ":{"ha":969,"x_min":50,"x_max":947,"o":"m 50 0 l 50 76 l 238 88 l 293 88 l 478 76 l 478 0 l 50 0 m 181 0 q 182 142 182 71 q 182 285 182 214 q 182 429 182 357 l 182 499 q 182 641 182 569 q 182 784 182 713 q 181 926 182 856 l 349 926 q 348 782 349 854 q 347 636 347 710 q 347 485 347 563 l 347 438 q 347 289 347 363 q 348 144 347 215 q 349 0 349 72 l 181 0 m 825 -14 q 708 13 749 -14 q 650 106 667 39 l 606 288 q 572 371 593 342 q 518 412 550 400 q 435 424 486 424 l 269 424 l 269 497 l 454 497 q 575 521 528 497 q 644 586 622 544 q 667 681 667 628 q 617 807 667 765 q 461 849 567 849 l 283 849 l 283 926 l 481 926 q 744 864 651 926 q 836 689 836 801 q 799 576 836 625 q 694 499 763 528 q 535 465 626 469 l 535 457 q 628 445 589 456 q 694 414 667 435 q 741 359 722 393 q 774 275 760 325 l 839 40 l 772 89 l 947 74 l 947 0 q 911 -7 931 -4 q 871 -12 892 -10 q 825 -14 850 -14 m 50 850 l 50 926 l 244 926 l 244 839 l 226 839 l 50 850 z "},"Ṝ":{"ha":969,"x_min":50,"x_max":947,"o":"m 50 0 l 50 76 l 238 88 l 293 88 l 478 76 l 478 0 l 50 0 m 181 0 q 182 142 182 71 q 182 285 182 214 q 182 429 182 357 l 182 499 q 182 641 182 569 q 182 784 182 713 q 181 926 182 856 l 349 926 q 348 782 349 854 q 347 636 347 710 q 347 485 347 563 l 347 438 q 347 289 347 363 q 348 144 347 215 q 349 0 349 72 l 181 0 m 825 -14 q 708 13 749 -14 q 650 106 667 39 l 606 288 q 572 371 593 342 q 518 412 550 400 q 435 424 486 424 l 269 424 l 269 497 l 454 497 q 575 521 528 497 q 644 586 622 544 q 667 681 667 628 q 617 807 667 765 q 461 849 567 849 l 283 849 l 283 926 l 481 926 q 744 864 651 926 q 836 689 836 801 q 799 576 836 625 q 694 499 763 528 q 535 465 626 469 l 535 457 q 628 445 589 456 q 694 414 667 435 q 741 359 722 393 q 774 275 760 325 l 839 40 l 772 89 l 947 74 l 947 0 q 911 -7 931 -4 q 871 -12 892 -10 q 825 -14 850 -14 m 50 850 l 50 926 l 244 926 l 244 839 l 226 839 l 50 850 m 272 1039 l 272 1140 l 667 1140 l 667 1039 l 272 1039 z "},"Ṟ":{"ha":969,"x_min":50,"x_max":947,"o":"m 50 0 l 50 76 l 238 88 l 293 88 l 478 76 l 478 0 l 50 0 m 181 0 q 182 142 182 71 q 182 285 182 214 q 182 429 182 357 l 182 499 q 182 641 182 569 q 182 784 182 713 q 181 926 182 856 l 349 926 q 348 782 349 854 q 347 636 347 710 q 347 485 347 563 l 347 438 q 347 289 347 363 q 348 144 347 215 q 349 0 349 72 l 181 0 m 825 -14 q 708 13 749 -14 q 650 106 667 39 l 606 288 q 572 371 593 342 q 518 412 550 400 q 435 424 486 424 l 269 424 l 269 497 l 454 497 q 575 521 528 497 q 644 586 622 544 q 667 681 667 628 q 617 807 667 765 q 461 849 567 849 l 283 849 l 283 926 l 481 926 q 744 864 651 926 q 836 689 836 801 q 799 576 836 625 q 694 499 763 528 q 535 465 626 469 l 535 457 q 628 445 589 456 q 694 414 667 435 q 741 359 722 393 q 774 275 760 325 l 839 40 l 772 89 l 947 74 l 947 0 q 911 -7 931 -4 q 871 -12 892 -10 q 825 -14 850 -14 m 50 850 l 50 926 l 244 926 l 244 839 l 226 839 l 50 850 z "},"Ś":{"ha":767,"x_min":56,"x_max":704,"o":"m 350 -22 q 181 0 258 -22 q 56 50 103 22 l 60 257 l 156 257 l 196 46 l 104 65 l 104 143 q 179 98 143 117 q 256 69 215 79 q 347 58 296 58 q 461 78 415 58 q 529 134 507 99 q 551 215 551 169 q 535 285 551 257 q 482 337 518 314 q 388 382 446 360 l 338 401 q 201 469 261 432 q 106 560 140 507 q 72 690 72 614 q 115 830 72 772 q 233 918 158 888 q 403 949 307 949 q 550 928 485 949 q 654 881 615 907 l 650 685 l 556 685 l 514 892 l 607 869 l 607 790 q 511 849 558 829 q 401 868 464 868 q 307 850 347 868 q 245 800 267 832 q 224 725 224 768 q 241 656 224 685 q 293 604 258 626 q 382 560 328 582 l 433 540 q 580 468 519 507 q 672 377 640 429 q 704 249 704 325 q 660 105 704 165 q 537 11 617 44 q 350 -22 457 -22 m 306 1040 q 374 1108 340 1075 q 443 1172 408 1140 q 491 1210 471 1199 q 533 1221 511 1221 q 576 1206 560 1221 q 593 1165 593 1190 q 577 1124 593 1143 q 524 1085 561 1104 q 433 1038 478 1061 q 343 990 389 1014 l 306 1040 z "},"Š":{"ha":767,"x_min":56,"x_max":704,"o":"m 350 -22 q 181 0 258 -22 q 56 50 103 22 l 60 257 l 156 257 l 196 46 l 104 65 l 104 143 q 179 98 143 117 q 256 69 215 79 q 347 58 296 58 q 461 78 415 58 q 529 134 507 99 q 551 215 551 169 q 535 285 551 257 q 482 337 518 314 q 388 382 446 360 l 338 401 q 201 469 261 432 q 106 560 140 507 q 72 690 72 614 q 115 830 72 772 q 233 918 158 888 q 403 949 307 949 q 550 928 485 949 q 654 881 615 907 l 650 685 l 556 685 l 514 892 l 607 869 l 607 790 q 511 849 558 829 q 401 868 464 868 q 307 850 347 868 q 245 800 267 832 q 224 725 224 768 q 241 656 224 685 q 293 604 258 626 q 382 560 328 582 l 433 540 q 580 468 519 507 q 672 377 640 429 q 704 249 704 325 q 660 105 704 165 q 537 11 617 44 q 350 -22 457 -22 m 240 1211 l 472 1057 l 347 1057 l 579 1211 l 618 1172 l 460 1003 l 360 1003 l 201 1172 l 240 1211 z "},"Ş":{"ha":767,"x_min":56,"x_max":704,"o":"m 350 -22 q 181 0 258 -22 q 56 50 103 22 l 60 257 l 156 257 l 196 46 l 104 65 l 104 143 q 179 98 143 117 q 256 69 215 79 q 347 58 296 58 q 461 78 415 58 q 529 134 507 99 q 551 215 551 169 q 535 285 551 257 q 482 337 518 314 q 388 382 446 360 l 338 401 q 201 469 261 432 q 106 560 140 507 q 72 690 72 614 q 115 830 72 772 q 233 918 158 888 q 403 949 307 949 q 550 928 485 949 q 654 881 615 907 l 650 685 l 556 685 l 514 892 l 607 869 l 607 790 q 511 849 558 829 q 401 868 464 868 q 307 850 347 868 q 245 800 267 832 q 224 725 224 768 q 241 656 224 685 q 293 604 258 626 q 382 560 328 582 l 433 540 q 580 468 519 507 q 672 377 640 429 q 704 249 704 325 q 660 105 704 165 q 537 11 617 44 q 350 -22 457 -22 m 308 -122 l 328 6 l 389 6 l 374 -107 l 344 -74 q 433 -91 396 -78 q 490 -129 469 -104 q 511 -190 511 -154 q 467 -277 511 -243 q 342 -311 424 -311 q 285 -306 308 -311 q 249 -296 263 -300 l 263 -240 q 294 -247 278 -243 q 331 -250 311 -250 q 388 -234 368 -250 q 407 -189 407 -218 q 384 -143 407 -160 q 308 -122 361 -126 z "},"Ș":{"ha":767,"x_min":56,"x_max":704,"o":"m 350 -22 q 181 0 258 -22 q 56 50 103 22 l 60 257 l 156 257 l 196 46 l 104 65 l 104 143 q 179 98 143 117 q 256 69 215 79 q 347 58 296 58 q 461 78 415 58 q 529 134 507 99 q 551 215 551 169 q 535 285 551 257 q 482 337 518 314 q 388 382 446 360 l 338 401 q 201 469 261 432 q 106 560 140 507 q 72 690 72 614 q 115 830 72 772 q 233 918 158 888 q 403 949 307 949 q 550 928 485 949 q 654 881 615 907 l 650 685 l 556 685 l 514 892 l 607 869 l 607 790 q 511 849 558 829 q 401 868 464 868 q 307 850 347 868 q 245 800 267 832 q 224 725 224 768 q 241 656 224 685 q 293 604 258 626 q 382 560 328 582 l 433 540 q 580 468 519 507 q 672 377 640 429 q 704 249 704 325 q 660 105 704 165 q 537 11 617 44 q 350 -22 457 -22 m 443 -178 q 422 -260 443 -225 q 366 -320 401 -296 q 286 -358 331 -344 l 265 -308 q 333 -269 307 -292 q 368 -215 358 -246 l 381 -257 q 305 -209 328 -236 q 282 -151 282 -182 q 303 -93 282 -115 q 363 -71 325 -71 q 401 -77 383 -71 q 431 -96 418 -83 q 440 -131 436 -112 q 443 -178 443 -149 z "},"Ŝ":{"ha":767,"x_min":56,"x_max":704,"o":"m 350 -22 q 181 0 258 -22 q 56 50 103 22 l 60 257 l 156 257 l 196 46 l 104 65 l 104 143 q 179 98 143 117 q 256 69 215 79 q 347 58 296 58 q 461 78 415 58 q 529 134 507 99 q 551 215 551 169 q 535 285 551 257 q 482 337 518 314 q 388 382 446 360 l 338 401 q 201 469 261 432 q 106 560 140 507 q 72 690 72 614 q 115 830 72 772 q 233 918 158 888 q 403 949 307 949 q 550 928 485 949 q 654 881 615 907 l 650 685 l 556 685 l 514 892 l 607 869 l 607 790 q 511 849 558 829 q 401 868 464 868 q 307 850 347 868 q 245 800 267 832 q 224 725 224 768 q 241 656 224 685 q 293 604 258 626 q 382 560 328 582 l 433 540 q 580 468 519 507 q 672 377 640 429 q 704 249 704 325 q 660 105 704 165 q 537 11 617 44 q 350 -22 457 -22 m 443 1200 l 631 1028 l 596 983 l 351 1128 l 468 1128 l 224 983 l 189 1028 l 376 1200 l 443 1200 z "},"Ṡ":{"ha":767,"x_min":56,"x_max":704,"o":"m 350 -22 q 181 0 258 -22 q 56 50 103 22 l 60 257 l 156 257 l 196 46 l 104 65 l 104 143 q 179 98 143 117 q 256 69 215 79 q 347 58 296 58 q 461 78 415 58 q 529 134 507 99 q 551 215 551 169 q 535 285 551 257 q 482 337 518 314 q 388 382 446 360 l 338 401 q 201 469 261 432 q 106 560 140 507 q 72 690 72 614 q 115 830 72 772 q 233 918 158 888 q 403 949 307 949 q 550 928 485 949 q 654 881 615 907 l 650 685 l 556 685 l 514 892 l 607 869 l 607 790 q 511 849 558 829 q 401 868 464 868 q 307 850 347 868 q 245 800 267 832 q 224 725 224 768 q 241 656 224 685 q 293 604 258 626 q 382 560 328 582 l 433 540 q 580 468 519 507 q 672 377 640 429 q 704 249 704 325 q 660 105 704 165 q 537 11 617 44 q 350 -22 457 -22 m 410 1011 q 339 1039 368 1011 q 310 1108 310 1067 q 339 1178 310 1151 q 410 1206 368 1206 q 481 1178 453 1206 q 510 1108 510 1151 q 481 1039 510 1067 q 410 1011 453 1011 z "},"Ṣ":{"ha":767,"x_min":56,"x_max":704,"o":"m 350 -22 q 181 0 258 -22 q 56 50 103 22 l 60 257 l 156 257 l 196 46 l 104 65 l 104 143 q 179 98 143 117 q 256 69 215 79 q 347 58 296 58 q 461 78 415 58 q 529 134 507 99 q 551 215 551 169 q 535 285 551 257 q 482 337 518 314 q 388 382 446 360 l 338 401 q 201 469 261 432 q 106 560 140 507 q 72 690 72 614 q 115 830 72 772 q 233 918 158 888 q 403 949 307 949 q 550 928 485 949 q 654 881 615 907 l 650 685 l 556 685 l 514 892 l 607 869 l 607 790 q 511 849 558 829 q 401 868 464 868 q 307 850 347 868 q 245 800 267 832 q 224 725 224 768 q 241 656 224 685 q 293 604 258 626 q 382 560 328 582 l 433 540 q 580 468 519 507 q 672 377 640 429 q 704 249 704 325 q 660 105 704 165 q 537 11 617 44 q 350 -22 457 -22 z "},"ẞ":{"ha":990,"x_min":32,"x_max":947,"o":"m 32 0 l 32 76 l 218 86 l 271 86 l 271 0 l 32 0 m 161 0 q 163 144 163 72 q 164 287 164 215 q 164 431 164 358 l 164 588 q 211 794 164 715 q 347 911 258 874 q 560 949 435 949 q 710 929 639 949 q 832 879 781 910 l 832 815 q 723 750 756 792 q 690 649 690 708 q 701 586 690 613 q 730 539 711 560 q 774 496 749 518 l 808 465 q 888 383 857 421 q 933 306 918 344 q 947 218 947 267 q 917 102 947 157 q 824 13 886 47 q 669 -22 763 -22 q 560 -8 610 -22 q 482 28 510 6 l 489 238 l 575 238 l 610 18 l 539 92 q 600 60 572 69 q 657 51 628 51 q 733 69 703 51 q 780 117 764 86 q 796 185 796 147 q 785 243 796 217 q 756 293 775 269 q 711 342 738 317 l 676 371 q 608 443 636 408 q 565 516 581 478 q 550 603 550 554 q 577 710 550 661 q 658 795 604 760 q 789 850 711 831 l 789 840 q 694 864 742 856 q 585 872 647 872 q 439 843 496 872 q 356 753 382 814 q 329 593 329 692 l 329 425 q 329 284 329 356 q 330 142 329 213 q 331 0 331 71 l 161 0 z "},"Ť":{"ha":890,"x_min":29,"x_max":861,"o":"m 217 0 l 217 76 l 415 88 l 474 88 l 675 76 l 675 0 l 217 0 m 361 0 q 363 142 363 71 q 363 285 363 213 q 363 429 363 357 l 363 499 q 363 641 363 569 q 363 784 363 713 q 361 926 363 856 l 529 926 q 528 785 529 856 q 528 642 528 714 q 528 499 528 571 l 528 429 q 528 286 528 358 q 528 143 528 214 q 529 0 529 72 l 361 0 m 29 668 l 39 926 l 851 926 l 861 668 l 771 668 l 722 910 l 792 844 l 99 844 l 168 910 l 121 668 l 29 668 m 276 1211 l 508 1057 l 383 1057 l 615 1211 l 654 1172 l 496 1003 l 396 1003 l 238 1172 l 276 1211 z "},"Ţ":{"ha":890,"x_min":29,"x_max":861,"o":"m 217 0 l 217 76 l 415 88 l 474 88 l 675 76 l 675 0 l 217 0 m 361 0 q 363 142 363 71 q 363 285 363 213 q 363 429 363 357 l 363 499 q 363 641 363 569 q 363 784 363 713 q 361 926 363 856 l 529 926 q 528 785 529 856 q 528 642 528 714 q 528 499 528 571 l 528 429 q 528 286 528 358 q 528 143 528 214 q 529 0 529 72 l 361 0 m 29 668 l 39 926 l 851 926 l 861 668 l 771 668 l 722 910 l 792 844 l 99 844 l 168 910 l 121 668 l 29 668 m 403 -122 l 422 6 l 483 6 l 468 -107 l 439 -74 q 527 -91 490 -78 q 585 -129 564 -104 q 606 -190 606 -154 q 562 -277 606 -243 q 436 -311 518 -311 q 380 -306 403 -311 q 343 -296 357 -300 l 357 -240 q 389 -247 372 -243 q 425 -250 406 -250 q 482 -234 463 -250 q 501 -189 501 -218 q 478 -143 501 -160 q 403 -122 456 -126 z "},"Ț":{"ha":890,"x_min":29,"x_max":861,"o":"m 217 0 l 217 76 l 415 88 l 474 88 l 675 76 l 675 0 l 217 0 m 361 0 q 363 142 363 71 q 363 285 363 213 q 363 429 363 357 l 363 499 q 363 641 363 569 q 363 784 363 713 q 361 926 363 856 l 529 926 q 528 785 529 856 q 528 642 528 714 q 528 499 528 571 l 528 429 q 528 286 528 358 q 528 143 528 214 q 529 0 529 72 l 361 0 m 29 668 l 39 926 l 851 926 l 861 668 l 771 668 l 722 910 l 792 844 l 99 844 l 168 910 l 121 668 l 29 668 m 532 -178 q 511 -260 532 -225 q 455 -320 490 -296 q 375 -358 419 -344 l 354 -308 q 422 -269 396 -292 q 457 -215 447 -246 l 469 -257 q 394 -209 417 -236 q 371 -151 371 -182 q 392 -93 371 -115 q 451 -71 414 -71 q 490 -77 472 -71 q 519 -96 507 -83 q 528 -131 525 -112 q 532 -178 532 -149 z "},"Ṭ":{"ha":890,"x_min":29,"x_max":861,"o":"m 217 0 l 217 76 l 415 88 l 474 88 l 675 76 l 675 0 l 217 0 m 361 0 q 363 142 363 71 q 363 285 363 213 q 363 429 363 357 l 363 499 q 363 641 363 569 q 363 784 363 713 q 361 926 363 856 l 529 926 q 528 785 529 856 q 528 642 528 714 q 528 499 528 571 l 528 429 q 528 286 528 358 q 528 143 528 214 q 529 0 529 72 l 361 0 m 29 668 l 39 926 l 851 926 l 861 668 l 771 668 l 722 910 l 792 844 l 99 844 l 168 910 l 121 668 l 29 668 z "},"Ṯ":{"ha":890,"x_min":29,"x_max":861,"o":"m 217 0 l 217 76 l 415 88 l 474 88 l 675 76 l 675 0 l 217 0 m 361 0 q 363 142 363 71 q 363 285 363 213 q 363 429 363 357 l 363 499 q 363 641 363 569 q 363 784 363 713 q 361 926 363 856 l 529 926 q 528 785 529 856 q 528 642 528 714 q 528 499 528 571 l 528 429 q 528 286 528 358 q 528 143 528 214 q 529 0 529 72 l 361 0 m 29 668 l 39 926 l 851 926 l 861 668 l 771 668 l 722 910 l 792 844 l 99 844 l 168 910 l 121 668 l 29 668 z "},"Ù":{"ha":1051,"x_min":43,"x_max":1013,"o":"m 531 -22 q 340 17 421 -22 q 213 139 258 57 q 168 347 168 221 l 168 500 q 168 643 168 572 q 168 785 168 714 q 167 926 168 856 l 335 926 q 334 786 335 857 q 333 644 333 715 q 333 500 333 572 l 333 376 q 361 203 333 269 q 441 108 389 138 q 565 78 493 78 q 692 109 640 78 q 772 209 744 140 q 800 386 800 278 l 800 926 l 886 926 l 886 371 q 843 150 886 238 q 720 20 800 63 q 531 -22 640 -22 m 43 850 l 43 926 l 476 926 l 476 850 l 293 839 l 219 839 l 43 850 m 656 850 l 656 926 l 1013 926 l 1013 850 l 858 840 l 819 840 l 656 850 m 668 1040 l 631 990 q 540 1038 585 1014 q 450 1083 496 1061 q 397 1124 413 1104 q 381 1165 381 1143 q 397 1206 381 1190 q 440 1221 414 1221 q 483 1210 463 1221 q 531 1172 503 1199 q 600 1107 565 1140 q 668 1040 635 1074 z "},"Ú":{"ha":1051,"x_min":43,"x_max":1013,"o":"m 531 -22 q 340 17 421 -22 q 213 139 258 57 q 168 347 168 221 l 168 500 q 168 643 168 572 q 168 785 168 714 q 167 926 168 856 l 335 926 q 334 786 335 857 q 333 644 333 715 q 333 500 333 572 l 333 376 q 361 203 333 269 q 441 108 389 138 q 565 78 493 78 q 692 109 640 78 q 772 209 744 140 q 800 386 800 278 l 800 926 l 886 926 l 886 371 q 843 150 886 238 q 720 20 800 63 q 531 -22 640 -22 m 43 850 l 43 926 l 476 926 l 476 850 l 293 839 l 219 839 l 43 850 m 656 850 l 656 926 l 1013 926 l 1013 850 l 858 840 l 819 840 l 656 850 m 460 1040 q 528 1108 494 1075 q 597 1172 563 1140 q 645 1210 625 1199 q 688 1221 665 1221 q 731 1206 714 1221 q 747 1165 747 1190 q 731 1124 747 1143 q 678 1085 715 1104 q 588 1038 632 1061 q 497 990 543 1014 l 460 1040 z "},"Û":{"ha":1051,"x_min":43,"x_max":1013,"o":"m 531 -22 q 340 17 421 -22 q 213 139 258 57 q 168 347 168 221 l 168 500 q 168 643 168 572 q 168 785 168 714 q 167 926 168 856 l 335 926 q 334 786 335 857 q 333 644 333 715 q 333 500 333 572 l 333 376 q 361 203 333 269 q 441 108 389 138 q 565 78 493 78 q 692 109 640 78 q 772 209 744 140 q 800 386 800 278 l 800 926 l 886 926 l 886 371 q 843 150 886 238 q 720 20 800 63 q 531 -22 640 -22 m 43 850 l 43 926 l 476 926 l 476 850 l 293 839 l 219 839 l 43 850 m 656 850 l 656 926 l 1013 926 l 1013 850 l 858 840 l 819 840 l 656 850 m 597 1200 l 785 1028 l 750 983 l 506 1128 l 622 1128 l 378 983 l 343 1028 l 531 1200 l 597 1200 z "},"Ü":{"ha":1051,"x_min":43,"x_max":1013,"o":"m 531 -22 q 340 17 421 -22 q 213 139 258 57 q 168 347 168 221 l 168 500 q 168 643 168 572 q 168 785 168 714 q 167 926 168 856 l 335 926 q 334 786 335 857 q 333 644 333 715 q 333 500 333 572 l 333 376 q 361 203 333 269 q 441 108 389 138 q 565 78 493 78 q 692 109 640 78 q 772 209 744 140 q 800 386 800 278 l 800 926 l 886 926 l 886 371 q 843 150 886 238 q 720 20 800 63 q 531 -22 640 -22 m 43 850 l 43 926 l 476 926 l 476 850 l 293 839 l 219 839 l 43 850 m 656 850 l 656 926 l 1013 926 l 1013 850 l 858 840 l 819 840 l 656 850 m 404 1022 q 341 1047 368 1022 q 314 1111 314 1072 q 341 1174 314 1149 q 404 1199 368 1199 q 468 1174 442 1199 q 494 1111 494 1149 q 468 1047 494 1072 q 404 1022 442 1022 m 724 1022 q 660 1047 686 1022 q 633 1111 633 1072 q 660 1174 633 1149 q 724 1199 686 1199 q 787 1174 760 1199 q 814 1111 814 1149 q 787 1047 814 1072 q 724 1022 760 1022 z "},"Ū":{"ha":1051,"x_min":43,"x_max":1013,"o":"m 531 -22 q 340 17 421 -22 q 213 139 258 57 q 168 347 168 221 l 168 500 q 168 643 168 572 q 168 785 168 714 q 167 926 168 856 l 335 926 q 334 786 335 857 q 333 644 333 715 q 333 500 333 572 l 333 376 q 361 203 333 269 q 441 108 389 138 q 565 78 493 78 q 692 109 640 78 q 772 209 744 140 q 800 386 800 278 l 800 926 l 886 926 l 886 371 q 843 150 886 238 q 720 20 800 63 q 531 -22 640 -22 m 43 850 l 43 926 l 476 926 l 476 850 l 293 839 l 219 839 l 43 850 m 656 850 l 656 926 l 1013 926 l 1013 850 l 858 840 l 819 840 l 656 850 m 367 1039 l 367 1140 l 761 1140 l 761 1039 l 367 1039 z "},"Ů":{"ha":1051,"x_min":43,"x_max":1013,"o":"m 531 -22 q 340 17 421 -22 q 213 139 258 57 q 168 347 168 221 l 168 500 q 168 643 168 572 q 168 785 168 714 q 167 926 168 856 l 335 926 q 334 786 335 857 q 333 644 333 715 q 333 500 333 572 l 333 376 q 361 203 333 269 q 441 108 389 138 q 565 78 493 78 q 692 109 640 78 q 772 209 744 140 q 800 386 800 278 l 800 926 l 886 926 l 886 371 q 843 150 886 238 q 720 20 800 63 q 531 -22 640 -22 m 43 850 l 43 926 l 476 926 l 476 850 l 293 839 l 219 839 l 43 850 m 656 850 l 656 926 l 1013 926 l 1013 850 l 858 840 l 819 840 l 656 850 m 564 997 q 465 1033 507 997 q 424 1129 424 1069 q 465 1225 424 1189 q 564 1261 507 1261 q 663 1225 622 1261 q 704 1129 704 1189 q 663 1033 704 1069 q 564 997 622 997 m 564 1056 q 616 1077 597 1056 q 635 1129 635 1099 q 616 1181 635 1160 q 564 1201 597 1201 q 513 1181 532 1201 q 493 1129 493 1160 q 513 1077 493 1099 q 564 1056 532 1056 z "},"Ű":{"ha":1051,"x_min":43,"x_max":1013,"o":"m 531 -22 q 340 17 421 -22 q 213 139 258 57 q 168 347 168 221 l 168 500 q 168 643 168 572 q 168 785 168 714 q 167 926 168 856 l 335 926 q 334 786 335 857 q 333 644 333 715 q 333 500 333 572 l 333 376 q 361 203 333 269 q 441 108 389 138 q 565 78 493 78 q 692 109 640 78 q 772 209 744 140 q 800 386 800 278 l 800 926 l 886 926 l 886 371 q 843 150 886 238 q 720 20 800 63 q 531 -22 640 -22 m 43 850 l 43 926 l 476 926 l 476 850 l 293 839 l 219 839 l 43 850 m 656 850 l 656 926 l 1013 926 l 1013 850 l 858 840 l 819 840 l 656 850 m 389 1014 l 465 1171 q 502 1221 483 1204 q 543 1238 521 1238 q 584 1223 568 1238 q 600 1185 600 1208 q 592 1151 600 1168 q 565 1114 583 1133 l 440 981 l 389 1014 m 619 1014 l 696 1171 q 733 1221 714 1204 q 775 1238 751 1238 q 815 1223 799 1238 q 832 1185 832 1208 q 823 1151 832 1168 q 796 1114 814 1133 l 671 981 l 619 1014 z "},"Ų":{"ha":1051,"x_min":42,"x_max":1013,"o":"m 219 839 l 42 850 l 42 926 l 476 926 l 476 850 l 293 839 l 219 839 m 654 -311 q 553 -277 590 -311 q 517 -183 517 -243 q 531 -112 517 -144 q 570 -55 544 -81 q 629 -11 596 -29 l 626 -4 q 583 -15 608 -10 q 525 -19 557 -19 q 338 19 418 -19 q 213 140 258 58 q 168 347 168 221 l 168 500 q 168 643 168 572 q 168 785 168 714 q 167 926 168 856 l 335 926 q 334 785 335 856 q 333 643 333 714 q 333 500 333 572 l 333 376 q 360 203 333 269 q 440 108 388 138 q 563 78 492 78 q 692 109 639 78 q 772 209 744 140 q 800 386 800 278 l 800 926 l 886 926 l 886 371 q 865 208 886 276 q 806 94 843 140 q 718 15 768 47 q 661 -33 682 -10 q 631 -83 640 -57 q 621 -139 621 -110 q 644 -199 621 -176 q 701 -222 667 -222 q 735 -218 719 -222 q 767 -208 751 -214 l 786 -261 q 733 -297 764 -283 q 654 -311 701 -311 m 824 840 l 656 850 l 656 926 l 1013 926 l 1013 850 l 863 840 l 824 840 z "},"Ŭ":{"ha":1051,"x_min":43,"x_max":1013,"o":"m 531 -22 q 340 17 421 -22 q 213 139 258 57 q 168 347 168 221 l 168 500 q 168 643 168 572 q 168 785 168 714 q 167 926 168 856 l 335 926 q 334 786 335 857 q 333 644 333 715 q 333 500 333 572 l 333 376 q 361 203 333 269 q 441 108 389 138 q 565 78 493 78 q 692 109 640 78 q 772 209 744 140 q 800 386 800 278 l 800 926 l 886 926 l 886 371 q 843 150 886 238 q 720 20 800 63 q 531 -22 640 -22 m 43 850 l 43 926 l 476 926 l 476 850 l 293 839 l 219 839 l 43 850 m 656 850 l 656 926 l 1013 926 l 1013 850 l 858 840 l 819 840 l 656 850 m 356 1192 l 417 1207 q 467 1133 431 1163 q 564 1104 504 1104 q 660 1133 624 1104 q 713 1207 696 1163 l 772 1192 q 739 1100 764 1142 q 671 1033 714 1058 q 564 1008 628 1008 q 457 1033 500 1008 q 390 1100 414 1058 q 356 1192 365 1142 z "},"Ǔ":{"ha":1051,"x_min":43,"x_max":1013,"o":"m 531 -22 q 340 17 421 -22 q 213 139 258 57 q 168 347 168 221 l 168 500 q 168 643 168 572 q 168 785 168 714 q 167 926 168 856 l 335 926 q 334 786 335 857 q 333 644 333 715 q 333 500 333 572 l 333 376 q 361 203 333 269 q 441 108 389 138 q 565 78 493 78 q 692 109 640 78 q 772 209 744 140 q 800 386 800 278 l 800 926 l 886 926 l 886 371 q 843 150 886 238 q 720 20 800 63 q 531 -22 640 -22 m 43 850 l 43 926 l 476 926 l 476 850 l 293 839 l 219 839 l 43 850 m 656 850 l 656 926 l 1013 926 l 1013 850 l 858 840 l 819 840 l 656 850 m 394 1211 l 626 1057 l 501 1057 l 733 1211 l 772 1172 l 614 1003 l 514 1003 l 356 1172 l 394 1211 z "},"Ǘ":{"ha":1051,"x_min":43,"x_max":1013,"o":"m 531 -22 q 340 17 421 -22 q 213 139 258 57 q 168 347 168 221 l 168 500 q 168 643 168 572 q 168 785 168 714 q 167 926 168 856 l 335 926 q 334 786 335 857 q 333 644 333 715 q 333 500 333 572 l 333 376 q 361 203 333 269 q 441 108 389 138 q 565 78 493 78 q 692 109 640 78 q 772 209 744 140 q 800 386 800 278 l 800 926 l 886 926 l 886 371 q 843 150 886 238 q 720 20 800 63 q 531 -22 640 -22 m 43 850 l 43 926 l 476 926 l 476 850 l 293 839 l 219 839 l 43 850 m 656 850 l 656 926 l 1013 926 l 1013 850 l 858 840 l 819 840 l 656 850 m 401 1017 q 340 1041 367 1017 q 314 1101 314 1065 q 340 1163 314 1139 q 401 1186 367 1186 q 463 1163 438 1186 q 488 1101 488 1139 q 463 1041 488 1065 q 401 1017 438 1017 m 544 1181 l 504 1229 l 596 1339 q 636 1374 617 1363 q 678 1386 656 1386 q 722 1371 704 1386 q 739 1329 739 1356 q 732 1301 739 1314 q 712 1275 725 1288 q 676 1251 699 1263 l 544 1181 m 726 1017 q 665 1041 690 1017 q 639 1101 639 1065 q 665 1163 639 1139 q 726 1186 690 1186 q 788 1163 763 1186 q 813 1101 813 1139 q 788 1041 813 1065 q 726 1017 763 1017 z "},"Ǚ":{"ha":1051,"x_min":43,"x_max":1013,"o":"m 531 -22 q 340 17 421 -22 q 213 139 258 57 q 168 347 168 221 l 168 500 q 168 643 168 572 q 168 785 168 714 q 167 926 168 856 l 335 926 q 334 786 335 857 q 333 644 333 715 q 333 500 333 572 l 333 376 q 361 203 333 269 q 441 108 389 138 q 565 78 493 78 q 692 109 640 78 q 772 209 744 140 q 800 386 800 278 l 800 926 l 886 926 l 886 371 q 843 150 886 238 q 720 20 800 63 q 531 -22 640 -22 m 43 850 l 43 926 l 476 926 l 476 850 l 293 839 l 219 839 l 43 850 m 656 850 l 656 926 l 1013 926 l 1013 850 l 858 840 l 819 840 l 656 850 m 401 1017 q 340 1041 365 1017 q 314 1101 314 1065 q 340 1163 314 1139 q 401 1186 365 1186 q 463 1163 438 1186 q 488 1101 488 1139 q 463 1041 488 1065 q 401 1017 438 1017 m 726 1017 q 665 1041 690 1017 q 639 1101 639 1065 q 665 1163 639 1139 q 726 1186 690 1186 q 788 1163 763 1186 q 813 1101 813 1139 q 788 1041 813 1065 q 726 1017 763 1017 m 394 1394 l 626 1240 l 501 1240 l 733 1394 l 772 1354 l 614 1185 l 514 1185 l 356 1354 l 394 1394 z "},"Ǜ":{"ha":1051,"x_min":43,"x_max":1013,"o":"m 531 -22 q 340 17 421 -22 q 213 139 258 57 q 168 347 168 221 l 168 500 q 168 643 168 572 q 168 785 168 714 q 167 926 168 856 l 335 926 q 334 786 335 857 q 333 644 333 715 q 333 500 333 572 l 333 376 q 361 203 333 269 q 441 108 389 138 q 565 78 493 78 q 692 109 640 78 q 772 209 744 140 q 800 386 800 278 l 800 926 l 886 926 l 886 371 q 843 150 886 238 q 720 20 800 63 q 531 -22 640 -22 m 43 850 l 43 926 l 476 926 l 476 850 l 293 839 l 219 839 l 43 850 m 656 850 l 656 926 l 1013 926 l 1013 850 l 858 840 l 819 840 l 656 850 m 451 1251 q 418 1274 432 1263 q 397 1300 404 1286 q 390 1328 390 1314 q 408 1370 390 1354 q 451 1386 425 1386 q 494 1374 475 1386 q 533 1339 513 1363 l 625 1229 l 586 1181 l 451 1251 m 401 1017 q 340 1041 365 1017 q 314 1101 314 1065 q 340 1163 314 1139 q 401 1186 365 1186 q 463 1163 438 1186 q 488 1101 488 1139 q 463 1041 488 1065 q 401 1017 438 1017 m 726 1017 q 665 1041 690 1017 q 639 1101 639 1065 q 665 1163 639 1139 q 726 1186 690 1186 q 788 1163 763 1186 q 813 1101 813 1139 q 788 1041 813 1065 q 726 1017 763 1017 z "},"Ǖ":{"ha":1051,"x_min":43,"x_max":1013,"o":"m 531 -22 q 340 17 421 -22 q 213 139 258 57 q 168 347 168 221 l 168 500 q 168 643 168 572 q 168 785 168 714 q 167 926 168 856 l 335 926 q 334 786 335 857 q 333 644 333 715 q 333 500 333 572 l 333 376 q 361 203 333 269 q 441 108 389 138 q 565 78 493 78 q 692 109 640 78 q 772 209 744 140 q 800 386 800 278 l 800 926 l 886 926 l 886 371 q 843 150 886 238 q 720 20 800 63 q 531 -22 640 -22 m 43 850 l 43 926 l 476 926 l 476 850 l 293 839 l 219 839 l 43 850 m 656 850 l 656 926 l 1013 926 l 1013 850 l 858 840 l 819 840 l 656 850 m 401 1017 q 340 1041 367 1017 q 314 1101 314 1065 q 340 1163 314 1139 q 401 1186 367 1186 q 463 1163 438 1186 q 488 1101 488 1139 q 463 1041 488 1065 q 401 1017 438 1017 m 726 1017 q 665 1041 690 1017 q 639 1101 639 1065 q 665 1163 639 1139 q 726 1186 690 1186 q 788 1163 763 1186 q 813 1101 813 1139 q 788 1041 813 1065 q 726 1017 763 1017 m 367 1249 l 367 1350 l 761 1350 l 761 1249 l 367 1249 z "},"Ụ":{"ha":1051,"x_min":43,"x_max":1013,"o":"m 531 -22 q 340 17 421 -22 q 213 139 258 57 q 168 347 168 221 l 168 500 q 168 643 168 572 q 168 785 168 714 q 167 926 168 856 l 335 926 q 334 786 335 857 q 333 644 333 715 q 333 500 333 572 l 333 376 q 361 203 333 269 q 441 108 389 138 q 565 78 493 78 q 692 109 640 78 q 772 209 744 140 q 800 386 800 278 l 800 926 l 886 926 l 886 371 q 843 150 886 238 q 720 20 800 63 q 531 -22 640 -22 m 43 850 l 43 926 l 476 926 l 476 850 l 293 839 l 219 839 l 43 850 m 656 850 l 656 926 l 1013 926 l 1013 850 l 858 840 l 819 840 l 656 850 z "},"Ủ":{"ha":1051,"x_min":43,"x_max":1013,"o":"m 531 -22 q 340 17 421 -22 q 213 139 258 57 q 168 347 168 221 l 168 500 q 168 643 168 572 q 168 785 168 714 q 167 926 168 856 l 335 926 q 334 786 335 857 q 333 644 333 715 q 333 500 333 572 l 333 376 q 361 203 333 269 q 441 108 389 138 q 565 78 493 78 q 692 109 640 78 q 772 209 744 140 q 800 386 800 278 l 800 926 l 886 926 l 886 371 q 843 150 886 238 q 720 20 800 63 q 531 -22 640 -22 m 43 850 l 43 926 l 476 926 l 476 850 l 293 839 l 219 839 l 43 850 m 656 850 l 656 926 l 1013 926 l 1013 850 l 858 840 l 819 840 l 656 850 m 532 990 l 522 1042 q 576 1057 558 1049 q 593 1083 593 1065 q 567 1115 593 1103 q 481 1131 542 1126 l 493 1233 q 633 1194 588 1226 q 679 1106 679 1161 q 641 1027 679 1056 q 532 990 603 999 z "},"Ư":{"ha":1051,"x_min":42,"x_max":1067,"o":"m 531 -22 q 340 17 421 -22 q 213 139 258 57 q 168 347 168 221 l 168 500 q 168 643 168 572 q 168 785 168 714 q 167 926 168 856 l 335 926 q 334 786 335 857 q 333 644 333 715 q 333 500 333 572 l 333 376 q 361 203 333 269 q 441 108 389 138 q 565 78 493 78 q 692 109 640 78 q 772 209 744 140 q 800 386 800 278 l 800 926 l 886 926 l 886 371 q 843 150 886 238 q 720 20 800 63 q 531 -22 640 -22 m 854 856 l 854 926 q 938 933 911 926 q 964 963 964 940 q 955 1003 964 985 q 937 1039 946 1021 q 928 1081 928 1057 q 944 1124 928 1106 q 993 1142 961 1142 q 1022 1138 1008 1142 q 1046 1126 1035 1135 q 1061 1088 1056 1111 q 1067 1038 1067 1064 q 1013 904 1067 949 q 854 856 960 860 m 42 850 l 42 926 l 476 926 l 476 850 l 293 839 l 219 839 l 42 850 m 656 850 l 656 926 l 844 926 l 844 840 l 818 840 l 656 850 z "},"Ứ":{"ha":1051,"x_min":42,"x_max":1067,"o":"m 531 -22 q 340 17 421 -22 q 213 139 258 57 q 168 347 168 221 l 168 500 q 168 643 168 572 q 168 785 168 714 q 167 926 168 856 l 335 926 q 334 786 335 857 q 333 644 333 715 q 333 500 333 572 l 333 376 q 361 203 333 269 q 441 108 389 138 q 565 78 493 78 q 692 109 640 78 q 772 209 744 140 q 800 386 800 278 l 800 926 l 886 926 l 886 371 q 843 150 886 238 q 720 20 800 63 q 531 -22 640 -22 m 854 856 l 854 926 q 938 933 911 926 q 964 963 964 940 q 955 1003 964 985 q 937 1039 946 1021 q 928 1081 928 1057 q 944 1124 928 1106 q 993 1142 961 1142 q 1022 1138 1008 1142 q 1046 1126 1035 1135 q 1061 1088 1056 1111 q 1067 1038 1067 1064 q 1013 904 1067 949 q 854 856 960 860 m 42 850 l 42 926 l 476 926 l 476 850 l 293 839 l 219 839 l 42 850 m 656 850 l 656 926 l 844 926 l 844 840 l 818 840 l 656 850 m 456 1040 q 524 1108 490 1075 q 593 1172 558 1140 q 641 1210 621 1199 q 683 1221 661 1221 q 726 1206 710 1221 q 743 1165 743 1190 q 727 1124 743 1143 q 674 1085 711 1104 q 583 1038 628 1061 q 493 990 539 1014 l 456 1040 z "},"Ự":{"ha":1051,"x_min":42,"x_max":1067,"o":"m 531 -22 q 340 17 421 -22 q 213 139 258 57 q 168 347 168 221 l 168 500 q 168 643 168 572 q 168 785 168 714 q 167 926 168 856 l 335 926 q 334 786 335 857 q 333 644 333 715 q 333 500 333 572 l 333 376 q 361 203 333 269 q 441 108 389 138 q 565 78 493 78 q 692 109 640 78 q 772 209 744 140 q 800 386 800 278 l 800 926 l 886 926 l 886 371 q 843 150 886 238 q 720 20 800 63 q 531 -22 640 -22 m 854 856 l 854 926 q 938 933 911 926 q 964 963 964 940 q 955 1003 964 985 q 937 1039 946 1021 q 928 1081 928 1057 q 944 1124 928 1106 q 993 1142 961 1142 q 1022 1138 1008 1142 q 1046 1126 1035 1135 q 1061 1088 1056 1111 q 1067 1038 1067 1064 q 1013 904 1067 949 q 854 856 960 860 m 42 850 l 42 926 l 476 926 l 476 850 l 293 839 l 219 839 l 42 850 m 656 850 l 656 926 l 844 926 l 844 840 l 818 840 l 656 850 z "},"Ừ":{"ha":1051,"x_min":42,"x_max":1067,"o":"m 531 -22 q 340 17 421 -22 q 213 139 258 57 q 168 347 168 221 l 168 500 q 168 643 168 572 q 168 785 168 714 q 167 926 168 856 l 335 926 q 334 786 335 857 q 333 644 333 715 q 333 500 333 572 l 333 376 q 361 203 333 269 q 441 108 389 138 q 565 78 493 78 q 692 109 640 78 q 772 209 744 140 q 800 386 800 278 l 800 926 l 886 926 l 886 371 q 843 150 886 238 q 720 20 800 63 q 531 -22 640 -22 m 854 856 l 854 926 q 938 933 911 926 q 964 963 964 940 q 955 1003 964 985 q 937 1039 946 1021 q 928 1081 928 1057 q 944 1124 928 1106 q 993 1142 961 1142 q 1022 1138 1008 1142 q 1046 1126 1035 1135 q 1061 1088 1056 1111 q 1067 1038 1067 1064 q 1013 904 1067 949 q 854 856 960 860 m 42 850 l 42 926 l 476 926 l 476 850 l 293 839 l 219 839 l 42 850 m 656 850 l 656 926 l 844 926 l 844 840 l 818 840 l 656 850 m 664 1040 l 626 990 q 536 1038 581 1014 q 446 1083 492 1061 q 392 1124 408 1104 q 376 1165 376 1143 q 393 1206 376 1190 q 436 1221 410 1221 q 478 1210 458 1221 q 526 1172 499 1199 q 596 1107 561 1140 q 664 1040 631 1074 z "},"Ử":{"ha":1051,"x_min":42,"x_max":1067,"o":"m 531 -22 q 340 17 421 -22 q 213 139 258 57 q 168 347 168 221 l 168 500 q 168 643 168 572 q 168 785 168 714 q 167 926 168 856 l 335 926 q 334 786 335 857 q 333 644 333 715 q 333 500 333 572 l 333 376 q 361 203 333 269 q 441 108 389 138 q 565 78 493 78 q 692 109 640 78 q 772 209 744 140 q 800 386 800 278 l 800 926 l 886 926 l 886 371 q 843 150 886 238 q 720 20 800 63 q 531 -22 640 -22 m 854 856 l 854 926 q 938 933 911 926 q 964 963 964 940 q 955 1003 964 985 q 937 1039 946 1021 q 928 1081 928 1057 q 944 1124 928 1106 q 993 1142 961 1142 q 1022 1138 1008 1142 q 1046 1126 1035 1135 q 1061 1088 1056 1111 q 1067 1038 1067 1064 q 1013 904 1067 949 q 854 856 960 860 m 42 850 l 42 926 l 476 926 l 476 850 l 293 839 l 219 839 l 42 850 m 656 850 l 656 926 l 844 926 l 844 840 l 818 840 l 656 850 m 528 990 l 518 1042 q 572 1057 554 1049 q 589 1083 589 1065 q 563 1115 589 1103 q 476 1131 538 1126 l 489 1233 q 629 1194 583 1226 q 675 1106 675 1161 q 637 1027 675 1056 q 528 990 599 999 z "},"Ữ":{"ha":1051,"x_min":42,"x_max":1067,"o":"m 531 -22 q 340 17 421 -22 q 213 139 258 57 q 168 347 168 221 l 168 500 q 168 643 168 572 q 168 785 168 714 q 167 926 168 856 l 335 926 q 334 786 335 857 q 333 644 333 715 q 333 500 333 572 l 333 376 q 361 203 333 269 q 441 108 389 138 q 565 78 493 78 q 692 109 640 78 q 772 209 744 140 q 800 386 800 278 l 800 926 l 886 926 l 886 371 q 843 150 886 238 q 720 20 800 63 q 531 -22 640 -22 m 854 856 l 854 926 q 938 933 911 926 q 964 963 964 940 q 955 1003 964 985 q 937 1039 946 1021 q 928 1081 928 1057 q 944 1124 928 1106 q 993 1142 961 1142 q 1022 1138 1008 1142 q 1046 1126 1035 1135 q 1061 1088 1056 1111 q 1067 1038 1067 1064 q 1013 904 1067 949 q 854 856 960 860 m 42 850 l 42 926 l 476 926 l 476 850 l 293 839 l 219 839 l 42 850 m 656 850 l 656 926 l 844 926 l 844 840 l 818 840 l 656 850 m 308 1018 q 360 1149 322 1103 q 458 1196 397 1196 q 520 1184 493 1196 q 572 1153 547 1172 q 620 1121 596 1136 q 674 1106 644 1106 q 725 1128 704 1106 q 760 1194 746 1151 l 817 1176 q 765 1046 801 1093 q 667 999 729 999 q 606 1010 633 999 q 556 1039 579 1022 q 506 1073 529 1057 q 451 1089 482 1089 q 400 1067 421 1089 q 365 1001 379 1044 l 308 1018 z "},"Ũ":{"ha":1051,"x_min":43,"x_max":1013,"o":"m 531 -22 q 340 17 421 -22 q 213 139 258 57 q 168 347 168 221 l 168 500 q 168 643 168 572 q 168 785 168 714 q 167 926 168 856 l 335 926 q 334 786 335 857 q 333 644 333 715 q 333 500 333 572 l 333 376 q 361 203 333 269 q 441 108 389 138 q 565 78 493 78 q 692 109 640 78 q 772 209 744 140 q 800 386 800 278 l 800 926 l 886 926 l 886 371 q 843 150 886 238 q 720 20 800 63 q 531 -22 640 -22 m 43 850 l 43 926 l 476 926 l 476 850 l 293 839 l 219 839 l 43 850 m 656 850 l 656 926 l 1013 926 l 1013 850 l 858 840 l 819 840 l 656 850 m 308 1018 q 360 1149 322 1103 q 458 1196 397 1196 q 520 1184 493 1196 q 572 1153 547 1172 q 620 1121 596 1136 q 674 1106 644 1106 q 725 1128 704 1106 q 760 1194 746 1151 l 817 1176 q 765 1046 801 1093 q 667 999 729 999 q 606 1010 633 999 q 556 1039 579 1022 q 506 1073 529 1057 q 451 1089 482 1089 q 400 1067 421 1089 q 365 1001 379 1044 l 308 1018 z "},"Ẃ":{"ha":1406,"x_min":18,"x_max":1393,"o":"m 371 -4 l 101 926 l 275 926 l 478 143 l 474 143 l 513 354 l 688 926 l 797 926 l 1018 140 l 1015 140 l 1057 356 l 1214 926 l 1304 926 l 1035 -4 l 914 -4 l 703 760 l 710 760 l 672 586 l 494 -4 l 371 -4 m 18 850 l 18 926 l 421 926 l 421 850 l 257 839 l 179 839 l 18 850 m 546 850 l 546 926 l 951 926 l 951 850 l 790 839 l 711 839 l 546 850 m 1071 850 l 1071 926 l 1393 926 l 1393 850 l 1251 839 l 1214 839 l 1071 850 m 640 1040 q 709 1108 675 1075 q 778 1172 743 1140 q 826 1210 806 1199 q 868 1221 846 1221 q 911 1206 894 1221 q 928 1165 928 1190 q 912 1124 928 1143 q 858 1085 896 1104 q 768 1038 813 1061 q 678 990 724 1014 l 640 1040 z "},"Ŵ":{"ha":1406,"x_min":18,"x_max":1393,"o":"m 371 -4 l 101 926 l 275 926 l 478 143 l 474 143 l 513 354 l 688 926 l 797 926 l 1018 140 l 1015 140 l 1057 356 l 1214 926 l 1304 926 l 1035 -4 l 914 -4 l 703 760 l 710 760 l 672 586 l 494 -4 l 371 -4 m 18 850 l 18 926 l 421 926 l 421 850 l 257 839 l 179 839 l 18 850 m 546 850 l 546 926 l 951 926 l 951 850 l 790 839 l 711 839 l 546 850 m 1071 850 l 1071 926 l 1393 926 l 1393 850 l 1251 839 l 1214 839 l 1071 850 m 778 1200 l 965 1028 l 931 983 l 686 1128 l 803 1128 l 558 983 l 524 1028 l 711 1200 l 778 1200 z "},"Ẅ":{"ha":1406,"x_min":18,"x_max":1393,"o":"m 371 -4 l 101 926 l 275 926 l 478 143 l 474 143 l 513 354 l 688 926 l 797 926 l 1018 140 l 1015 140 l 1057 356 l 1214 926 l 1304 926 l 1035 -4 l 914 -4 l 703 760 l 710 760 l 672 586 l 494 -4 l 371 -4 m 18 850 l 18 926 l 421 926 l 421 850 l 257 839 l 179 839 l 18 850 m 546 850 l 546 926 l 951 926 l 951 850 l 790 839 l 711 839 l 546 850 m 1071 850 l 1071 926 l 1393 926 l 1393 850 l 1251 839 l 1214 839 l 1071 850 m 585 1022 q 522 1047 549 1022 q 494 1111 494 1072 q 522 1174 494 1149 q 585 1199 549 1199 q 649 1174 622 1199 q 675 1111 675 1149 q 649 1047 675 1072 q 585 1022 622 1022 m 904 1022 q 840 1047 867 1022 q 814 1111 814 1072 q 840 1174 814 1149 q 904 1199 867 1199 q 967 1174 940 1199 q 994 1111 994 1149 q 967 1047 994 1072 q 904 1022 940 1022 z "},"Ẁ":{"ha":1406,"x_min":18,"x_max":1393,"o":"m 371 -4 l 101 926 l 275 926 l 478 143 l 474 143 l 513 354 l 688 926 l 797 926 l 1018 140 l 1015 140 l 1057 356 l 1214 926 l 1304 926 l 1035 -4 l 914 -4 l 703 760 l 710 760 l 672 586 l 494 -4 l 371 -4 m 18 850 l 18 926 l 421 926 l 421 850 l 257 839 l 179 839 l 18 850 m 546 850 l 546 926 l 951 926 l 951 850 l 790 839 l 711 839 l 546 850 m 1071 850 l 1071 926 l 1393 926 l 1393 850 l 1251 839 l 1214 839 l 1071 850 m 849 1040 l 811 990 q 721 1038 765 1014 q 631 1083 676 1061 q 577 1124 593 1104 q 561 1165 561 1143 q 578 1206 561 1190 q 621 1221 594 1221 q 663 1210 643 1221 q 711 1172 683 1199 q 781 1107 746 1140 q 849 1040 815 1074 z "},"Ý":{"ha":926,"x_min":24,"x_max":911,"o":"m 235 0 l 235 76 l 435 88 l 492 88 l 693 76 l 693 0 l 235 0 m 379 0 q 381 99 381 50 q 381 200 381 149 q 382 306 382 251 q 382 419 382 361 l 546 419 q 546 307 546 361 q 547 201 546 253 q 547 100 547 150 q 549 0 547 50 l 379 0 m 404 294 l 83 926 l 272 926 l 519 403 l 504 403 l 563 547 l 743 926 l 840 926 l 521 294 l 404 294 m 24 850 l 24 926 l 440 926 l 440 850 l 267 839 l 185 839 l 24 850 m 578 850 l 578 926 l 911 926 l 911 850 l 775 839 l 729 839 l 578 850 m 408 1040 q 477 1108 443 1075 q 546 1172 511 1140 q 594 1210 574 1199 q 636 1221 614 1221 q 679 1206 663 1221 q 696 1165 696 1190 q 680 1124 696 1143 q 626 1085 664 1104 q 536 1038 581 1061 q 446 990 492 1014 l 408 1040 z "},"Ÿ":{"ha":926,"x_min":24,"x_max":911,"o":"m 235 0 l 235 76 l 435 88 l 492 88 l 693 76 l 693 0 l 235 0 m 379 0 q 381 99 381 50 q 381 200 381 149 q 382 306 382 251 q 382 419 382 361 l 546 419 q 546 307 546 361 q 547 201 546 253 q 547 100 547 150 q 549 0 547 50 l 379 0 m 404 294 l 83 926 l 272 926 l 519 403 l 504 403 l 563 547 l 743 926 l 840 926 l 521 294 l 404 294 m 24 850 l 24 926 l 440 926 l 440 850 l 267 839 l 185 839 l 24 850 m 578 850 l 578 926 l 911 926 l 911 850 l 775 839 l 729 839 l 578 850 m 353 1022 q 290 1047 317 1022 q 263 1111 263 1072 q 290 1174 263 1149 q 353 1199 317 1199 q 417 1174 390 1199 q 443 1111 443 1149 q 417 1047 443 1072 q 353 1022 390 1022 m 672 1022 q 608 1047 635 1022 q 582 1111 582 1072 q 608 1174 582 1149 q 672 1199 635 1199 q 735 1174 708 1199 q 763 1111 763 1149 q 735 1047 763 1072 q 672 1022 708 1022 z "},"Ŷ":{"ha":926,"x_min":24,"x_max":911,"o":"m 235 0 l 235 76 l 435 88 l 492 88 l 693 76 l 693 0 l 235 0 m 379 0 q 381 99 381 50 q 381 200 381 149 q 382 306 382 251 q 382 419 382 361 l 546 419 q 546 307 546 361 q 547 201 546 253 q 547 100 547 150 q 549 0 547 50 l 379 0 m 404 294 l 83 926 l 272 926 l 519 403 l 504 403 l 563 547 l 743 926 l 840 926 l 521 294 l 404 294 m 24 850 l 24 926 l 440 926 l 440 850 l 267 839 l 185 839 l 24 850 m 578 850 l 578 926 l 911 926 l 911 850 l 775 839 l 729 839 l 578 850 m 546 1200 l 733 1028 l 699 983 l 454 1128 l 571 1128 l 326 983 l 292 1028 l 479 1200 l 546 1200 z "},"Ẏ":{"ha":926,"x_min":24,"x_max":911,"o":"m 235 0 l 235 76 l 435 88 l 492 88 l 693 76 l 693 0 l 235 0 m 379 0 q 381 99 381 50 q 381 200 381 149 q 382 306 382 251 q 382 419 382 361 l 546 419 q 546 307 546 361 q 547 201 546 253 q 547 100 547 150 q 549 0 547 50 l 379 0 m 404 294 l 83 926 l 272 926 l 519 403 l 504 403 l 563 547 l 743 926 l 840 926 l 521 294 l 404 294 m 24 850 l 24 926 l 440 926 l 440 850 l 267 839 l 185 839 l 24 850 m 578 850 l 578 926 l 911 926 l 911 850 l 775 839 l 729 839 l 578 850 m 513 1011 q 442 1039 471 1011 q 413 1108 413 1067 q 442 1178 413 1151 q 513 1206 471 1206 q 584 1178 556 1206 q 613 1108 613 1151 q 584 1039 613 1067 q 513 1011 556 1011 z "},"Ỵ":{"ha":926,"x_min":24,"x_max":911,"o":"m 235 0 l 235 76 l 435 88 l 492 88 l 693 76 l 693 0 l 235 0 m 379 0 q 381 99 381 50 q 381 200 381 149 q 382 306 382 251 q 382 419 382 361 l 546 419 q 546 307 546 361 q 547 201 546 253 q 547 100 547 150 q 549 0 547 50 l 379 0 m 404 294 l 83 926 l 272 926 l 519 403 l 504 403 l 563 547 l 743 926 l 840 926 l 521 294 l 404 294 m 24 850 l 24 926 l 440 926 l 440 850 l 267 839 l 185 839 l 24 850 m 578 850 l 578 926 l 911 926 l 911 850 l 775 839 l 729 839 l 578 850 z "},"Ỳ":{"ha":926,"x_min":24,"x_max":911,"o":"m 235 0 l 235 76 l 435 88 l 492 88 l 693 76 l 693 0 l 235 0 m 379 0 q 381 99 381 50 q 381 200 381 149 q 382 306 382 251 q 382 419 382 361 l 546 419 q 546 307 546 361 q 547 201 546 253 q 547 100 547 150 q 549 0 547 50 l 379 0 m 404 294 l 83 926 l 272 926 l 519 403 l 504 403 l 563 547 l 743 926 l 840 926 l 521 294 l 404 294 m 24 850 l 24 926 l 440 926 l 440 850 l 267 839 l 185 839 l 24 850 m 578 850 l 578 926 l 911 926 l 911 850 l 775 839 l 729 839 l 578 850 m 617 1040 l 579 990 q 489 1038 533 1014 q 399 1083 444 1061 q 345 1124 361 1104 q 329 1165 329 1143 q 346 1206 329 1190 q 389 1221 363 1221 q 431 1210 411 1221 q 479 1172 451 1199 q 549 1107 514 1140 q 617 1040 583 1074 z "},"Ỷ":{"ha":926,"x_min":24,"x_max":911,"o":"m 235 0 l 235 76 l 435 88 l 492 88 l 693 76 l 693 0 l 235 0 m 379 0 q 381 99 381 50 q 381 200 381 149 q 382 306 382 251 q 382 419 382 361 l 546 419 q 546 307 546 361 q 547 201 546 253 q 547 100 547 150 q 549 0 547 50 l 379 0 m 404 294 l 83 926 l 272 926 l 519 403 l 504 403 l 563 547 l 743 926 l 840 926 l 521 294 l 404 294 m 24 850 l 24 926 l 440 926 l 440 850 l 267 839 l 185 839 l 24 850 m 578 850 l 578 926 l 911 926 l 911 850 l 775 839 l 729 839 l 578 850 m 481 990 l 471 1042 q 524 1057 507 1049 q 542 1083 542 1065 q 516 1115 542 1103 q 429 1131 490 1126 l 442 1233 q 582 1194 536 1226 q 628 1106 628 1161 q 590 1027 628 1056 q 481 990 551 999 z "},"Ỹ":{"ha":926,"x_min":24,"x_max":911,"o":"m 235 0 l 235 76 l 435 88 l 492 88 l 693 76 l 693 0 l 235 0 m 379 0 q 381 99 381 50 q 381 200 381 149 q 382 306 382 251 q 382 419 382 361 l 546 419 q 546 307 546 361 q 547 201 546 253 q 547 100 547 150 q 549 0 547 50 l 379 0 m 404 294 l 83 926 l 272 926 l 519 403 l 504 403 l 563 547 l 743 926 l 840 926 l 521 294 l 404 294 m 24 850 l 24 926 l 440 926 l 440 850 l 267 839 l 185 839 l 24 850 m 578 850 l 578 926 l 911 926 l 911 850 l 775 839 l 729 839 l 578 850 m 257 1018 q 308 1149 271 1103 q 407 1196 346 1196 q 469 1184 442 1196 q 521 1153 496 1172 q 569 1121 544 1136 q 622 1106 593 1106 q 674 1128 653 1106 q 708 1194 694 1151 l 765 1176 q 714 1046 750 1093 q 615 999 678 999 q 555 1010 582 999 q 504 1039 528 1022 q 454 1073 478 1057 q 400 1089 431 1089 q 349 1067 369 1089 q 314 1001 328 1044 l 257 1018 z "},"Ź":{"ha":818,"x_min":33,"x_max":785,"o":"m 33 0 l 33 61 l 592 882 l 572 817 l 572 857 l 361 847 l 135 847 l 194 893 l 143 668 l 51 668 l 61 926 l 757 926 l 757 865 l 197 44 l 217 108 l 217 69 l 443 79 l 701 79 l 642 33 l 693 260 l 785 260 l 775 0 l 33 0 m 294 1040 q 363 1108 329 1075 q 432 1172 397 1140 q 480 1210 460 1199 q 522 1221 500 1221 q 565 1206 549 1221 q 582 1165 582 1190 q 566 1124 582 1143 q 513 1085 550 1104 q 422 1038 467 1061 q 332 990 378 1014 l 294 1040 z "},"Ž":{"ha":818,"x_min":33,"x_max":785,"o":"m 33 0 l 33 61 l 592 882 l 572 817 l 572 857 l 361 847 l 135 847 l 194 893 l 143 668 l 51 668 l 61 926 l 757 926 l 757 865 l 197 44 l 217 108 l 217 69 l 443 79 l 701 79 l 642 33 l 693 260 l 785 260 l 775 0 l 33 0 m 229 1211 l 461 1057 l 336 1057 l 568 1211 l 607 1172 l 449 1003 l 349 1003 l 190 1172 l 229 1211 z "},"Ż":{"ha":818,"x_min":33,"x_max":785,"o":"m 33 0 l 33 61 l 592 882 l 572 817 l 572 857 l 361 847 l 135 847 l 194 893 l 143 668 l 51 668 l 61 926 l 757 926 l 757 865 l 197 44 l 217 108 l 217 69 l 443 79 l 701 79 l 642 33 l 693 260 l 785 260 l 775 0 l 33 0 m 399 1011 q 328 1039 357 1011 q 299 1108 299 1067 q 328 1178 299 1151 q 399 1206 357 1206 q 470 1178 442 1206 q 499 1108 499 1151 q 470 1039 499 1067 q 399 1011 442 1011 z "},"Ẓ":{"ha":818,"x_min":33,"x_max":785,"o":"m 33 0 l 33 61 l 592 882 l 572 817 l 572 857 l 361 847 l 135 847 l 194 893 l 143 668 l 51 668 l 61 926 l 757 926 l 757 865 l 197 44 l 217 108 l 217 69 l 443 79 l 701 79 l 642 33 l 693 260 l 785 260 l 775 0 l 33 0 z "},"Ð":{"ha":1031,"x_min":50,"x_max":967,"o":"m 540 438 l 53 438 l 53 511 l 540 511 l 540 438 m 50 0 l 50 76 l 226 88 l 246 88 l 246 0 l 50 0 m 181 0 q 182 142 182 71 q 182 288 182 214 q 182 436 182 361 l 182 499 q 182 641 182 569 q 182 784 182 713 q 181 926 182 856 l 349 926 q 348 785 349 856 q 347 642 347 714 q 347 499 347 571 l 347 436 q 347 288 347 361 q 348 144 347 215 q 349 0 349 72 l 181 0 m 282 0 l 282 79 l 454 79 q 638 126 563 79 q 751 259 713 172 q 790 467 790 346 q 706 751 790 653 q 468 849 621 849 l 282 849 l 282 926 l 486 926 q 739 874 631 926 q 907 721 847 822 q 967 469 967 619 q 904 215 967 319 q 728 55 842 110 q 463 0 614 0 l 282 0 m 50 850 l 50 926 l 246 926 l 246 839 l 226 839 l 50 850 z "},"Þ":{"ha":876,"x_min":50,"x_max":833,"o":"m 275 210 l 275 288 l 429 288 q 611 340 556 288 q 667 481 667 393 q 613 617 667 569 q 438 664 558 664 l 286 664 l 286 742 l 451 742 q 664 710 579 742 q 791 622 749 679 q 833 482 833 564 q 812 377 833 426 q 742 290 790 328 q 617 231 694 253 q 426 210 539 210 l 275 210 m 181 0 q 182 142 182 71 q 182 285 182 213 q 182 429 182 357 l 182 499 q 182 641 182 569 q 182 784 182 713 q 181 926 182 856 l 349 926 q 348 785 349 856 q 347 642 347 714 q 347 500 347 571 l 347 429 q 347 287 347 358 q 348 143 347 215 q 349 0 349 71 l 181 0 m 247 839 l 50 850 l 50 926 l 493 926 l 493 850 l 307 839 l 247 839 m 50 0 l 50 76 l 238 88 l 297 88 l 493 76 l 493 0 l 50 0 z "},"Ŋ":{"ha":1058,"x_min":50,"x_max":1014,"o":"m 50 0 l 50 76 l 203 88 l 246 88 l 413 76 l 413 0 l 50 0 m 178 0 l 178 892 l 244 892 l 264 433 l 264 0 l 178 0 m 615 -189 q 525 -172 561 -189 q 481 -115 489 -156 q 510 -59 488 -76 q 571 -42 533 -42 q 626 -52 603 -42 q 678 -89 649 -62 l 719 -126 l 700 -126 l 713 -126 l 697 -126 q 762 -58 735 -94 q 804 35 789 -21 q 818 176 819 90 l 801 503 l 801 926 l 889 926 l 889 261 q 884 126 889 182 q 869 29 879 69 q 844 -42 860 -11 q 804 -100 828 -72 q 722 -167 768 -144 q 615 -189 675 -189 m 797 -4 l 249 776 l 222 776 l 196 844 l 54 850 l 54 926 l 326 926 l 828 206 l 858 206 l 854 -6 l 797 -4 m 825 839 l 654 850 l 654 926 l 1014 926 l 1014 850 l 867 839 l 825 839 z "},"Ə":{"ha":933,"x_min":64,"x_max":869,"o":"m 64 388 q 67 459 64 425 q 74 513 69 493 l 763 513 l 763 436 l 238 436 q 233 392 235 415 q 231 340 231 369 q 246 229 231 281 q 291 140 261 178 q 364 81 321 103 q 461 60 407 60 q 590 103 538 60 q 669 233 642 146 q 696 457 696 321 q 659 678 696 592 q 558 807 622 765 q 408 849 493 849 q 269 821 331 849 q 161 740 208 793 l 113 793 q 249 906 168 864 q 442 949 329 949 q 613 917 535 949 q 749 826 692 886 q 838 678 807 767 q 869 475 869 590 q 838 266 869 358 q 751 109 807 174 q 621 11 694 44 q 461 -22 547 -22 q 297 6 371 -22 q 172 86 224 33 q 92 215 119 139 q 64 388 64 292 z "},"à":{"ha":760,"x_min":61,"x_max":751,"o":"m 251 -21 q 117 26 172 -21 q 61 161 61 74 q 83 252 61 213 q 157 323 106 292 q 297 379 208 354 q 375 400 336 390 q 452 421 414 410 q 529 442 490 432 l 529 383 q 433 354 481 369 q 336 324 385 339 q 257 288 285 308 q 219 242 229 267 q 208 190 208 218 q 239 111 208 139 q 321 83 269 83 q 379 95 353 83 q 435 129 406 107 q 506 186 465 151 l 514 108 l 463 108 q 408 43 436 72 q 342 -3 379 14 q 251 -21 306 -21 m 618 -17 q 517 22 554 -17 q 475 135 479 61 l 471 138 l 471 465 q 456 564 471 528 q 410 615 442 600 q 331 631 379 631 q 265 624 297 631 q 200 604 233 618 l 260 663 l 242 542 q 214 471 236 493 q 157 449 192 449 q 103 467 122 449 q 79 511 85 485 q 174 651 96 599 q 374 703 251 703 q 506 678 451 703 q 590 601 561 654 q 619 458 619 547 l 619 150 q 634 96 619 113 q 674 79 649 79 q 703 85 690 79 q 728 99 717 90 l 751 50 q 697 1 729 19 q 618 -17 664 -17 m 454 822 l 404 785 q 353 831 379 808 q 300 877 326 853 q 244 925 274 901 q 201 971 214 953 q 189 1011 189 989 q 207 1054 189 1039 q 250 1069 225 1069 q 294 1055 275 1069 q 335 1007 313 1040 q 377 943 357 975 q 417 882 397 911 q 454 822 436 853 z "},"á":{"ha":760,"x_min":61,"x_max":751,"o":"m 251 -21 q 117 26 172 -21 q 61 161 61 74 q 83 252 61 213 q 157 323 106 292 q 297 379 208 354 q 375 400 336 390 q 452 421 414 410 q 529 442 490 432 l 529 383 q 433 354 481 369 q 336 324 385 339 q 257 288 285 308 q 219 242 229 267 q 208 190 208 218 q 239 111 208 139 q 321 83 269 83 q 379 95 353 83 q 435 129 406 107 q 506 186 465 151 l 514 108 l 463 108 q 408 43 436 72 q 342 -3 379 14 q 251 -21 306 -21 m 618 -17 q 517 22 554 -17 q 475 135 479 61 l 471 138 l 471 465 q 456 564 471 528 q 410 615 442 600 q 331 631 379 631 q 265 624 297 631 q 200 604 233 618 l 260 663 l 242 542 q 214 471 236 493 q 157 449 192 449 q 103 467 122 449 q 79 511 85 485 q 174 651 96 599 q 374 703 251 703 q 506 678 451 703 q 590 601 561 654 q 619 458 619 547 l 619 150 q 634 96 619 113 q 674 79 649 79 q 703 85 690 79 q 728 99 717 90 l 751 50 q 697 1 729 19 q 618 -17 664 -17 m 282 822 q 320 882 301 853 q 360 942 339 911 q 401 1007 381 974 q 442 1055 424 1040 q 486 1069 461 1069 q 528 1054 510 1069 q 547 1011 547 1039 q 535 970 547 989 q 492 925 522 951 q 437 877 464 901 q 384 831 410 853 q 332 785 358 808 l 282 822 z "},"â":{"ha":760,"x_min":61,"x_max":751,"o":"m 251 -21 q 117 26 172 -21 q 61 161 61 74 q 83 252 61 213 q 157 323 106 292 q 297 379 208 354 q 375 400 336 390 q 452 421 414 410 q 529 442 490 432 l 529 383 q 433 354 481 369 q 336 324 385 339 q 257 288 285 308 q 219 242 229 267 q 208 190 208 218 q 239 111 208 139 q 321 83 269 83 q 379 95 353 83 q 435 129 406 107 q 506 186 465 151 l 514 108 l 463 108 q 408 43 436 72 q 342 -3 379 14 q 251 -21 306 -21 m 618 -17 q 517 22 554 -17 q 475 135 479 61 l 471 138 l 471 465 q 456 564 471 528 q 410 615 442 600 q 331 631 379 631 q 265 624 297 631 q 200 604 233 618 l 260 663 l 242 542 q 214 471 236 493 q 157 449 192 449 q 103 467 122 449 q 79 511 85 485 q 174 651 96 599 q 374 703 251 703 q 506 678 451 703 q 590 601 561 654 q 619 458 619 547 l 619 150 q 634 96 619 113 q 674 79 649 79 q 703 85 690 79 q 728 99 717 90 l 751 50 q 697 1 729 19 q 618 -17 664 -17 m 543 772 l 313 979 l 429 979 l 199 772 l 154 813 l 338 1051 l 404 1051 l 588 813 l 543 772 z "},"ã":{"ha":760,"x_min":61,"x_max":751,"o":"m 251 -21 q 117 26 172 -21 q 61 161 61 74 q 83 252 61 213 q 157 323 106 292 q 297 379 208 354 q 375 400 336 390 q 452 421 414 410 q 529 442 490 432 l 529 383 q 433 354 481 369 q 336 324 385 339 q 257 288 285 308 q 219 242 229 267 q 208 190 208 218 q 239 111 208 139 q 321 83 269 83 q 379 95 353 83 q 435 129 406 107 q 506 186 465 151 l 514 108 l 463 108 q 408 43 436 72 q 342 -3 379 14 q 251 -21 306 -21 m 618 -17 q 517 22 554 -17 q 475 135 479 61 l 471 138 l 471 465 q 456 564 471 528 q 410 615 442 600 q 331 631 379 631 q 265 624 297 631 q 200 604 233 618 l 260 663 l 242 542 q 214 471 236 493 q 157 449 192 449 q 103 467 122 449 q 79 511 85 485 q 174 651 96 599 q 374 703 251 703 q 506 678 451 703 q 590 601 561 654 q 619 458 619 547 l 619 150 q 634 96 619 113 q 674 79 649 79 q 703 85 690 79 q 728 99 717 90 l 751 50 q 697 1 729 19 q 618 -17 664 -17 m 128 826 q 176 967 140 921 q 271 1014 211 1014 q 331 999 306 1014 q 378 968 356 985 q 424 931 403 949 q 474 913 446 913 q 522 935 503 913 q 553 1010 540 958 l 614 994 q 567 854 601 901 q 474 807 532 807 q 412 822 438 807 q 364 853 386 836 q 318 890 340 871 q 269 908 296 908 q 222 886 240 908 q 189 811 203 864 l 128 826 z "},"ä":{"ha":760,"x_min":61,"x_max":751,"o":"m 251 -21 q 117 26 172 -21 q 61 161 61 74 q 83 252 61 213 q 157 323 106 292 q 297 379 208 354 q 375 400 336 390 q 452 421 414 410 q 529 442 490 432 l 529 383 q 433 354 481 369 q 336 324 385 339 q 257 288 285 308 q 219 242 229 267 q 208 190 208 218 q 239 111 208 139 q 321 83 269 83 q 379 95 353 83 q 435 129 406 107 q 506 186 465 151 l 514 108 l 463 108 q 408 43 436 72 q 342 -3 379 14 q 251 -21 306 -21 m 618 -17 q 517 22 554 -17 q 475 135 479 61 l 471 138 l 471 465 q 456 564 471 528 q 410 615 442 600 q 331 631 379 631 q 265 624 297 631 q 200 604 233 618 l 260 663 l 242 542 q 214 471 236 493 q 157 449 192 449 q 103 467 122 449 q 79 511 85 485 q 174 651 96 599 q 374 703 251 703 q 506 678 451 703 q 590 601 561 654 q 619 458 619 547 l 619 150 q 634 96 619 113 q 674 79 649 79 q 703 85 690 79 q 728 99 717 90 l 751 50 q 697 1 729 19 q 618 -17 664 -17 m 221 832 q 156 857 183 832 q 129 921 129 882 q 156 985 129 960 q 221 1011 183 1011 q 285 985 258 1011 q 313 921 313 960 q 285 857 313 882 q 221 832 258 832 m 521 832 q 456 857 483 832 q 429 921 429 882 q 456 985 429 960 q 521 1011 483 1011 q 586 985 560 1011 q 613 921 613 960 q 586 857 613 882 q 521 832 560 832 z "},"ā":{"ha":760,"x_min":61,"x_max":751,"o":"m 251 -21 q 117 26 172 -21 q 61 161 61 74 q 83 252 61 213 q 157 323 106 292 q 297 379 208 354 q 375 400 336 390 q 452 421 414 410 q 529 442 490 432 l 529 383 q 433 354 481 369 q 336 324 385 339 q 257 288 285 308 q 219 242 229 267 q 208 190 208 218 q 239 111 208 139 q 321 83 269 83 q 379 95 353 83 q 435 129 406 107 q 506 186 465 151 l 514 108 l 463 108 q 408 43 436 72 q 342 -3 379 14 q 251 -21 306 -21 m 618 -17 q 517 22 554 -17 q 475 135 479 61 l 471 138 l 471 465 q 456 564 471 528 q 410 615 442 600 q 331 631 379 631 q 265 624 297 631 q 200 604 233 618 l 260 663 l 242 542 q 214 471 236 493 q 157 449 192 449 q 103 467 122 449 q 79 511 85 485 q 174 651 96 599 q 374 703 251 703 q 506 678 451 703 q 590 601 561 654 q 619 458 619 547 l 619 150 q 634 96 619 113 q 674 79 649 79 q 703 85 690 79 q 728 99 717 90 l 751 50 q 697 1 729 19 q 618 -17 664 -17 m 193 842 l 193 942 l 549 942 l 549 842 l 193 842 z "},"ă":{"ha":760,"x_min":61,"x_max":751,"o":"m 251 -21 q 117 26 172 -21 q 61 161 61 74 q 83 252 61 213 q 157 323 106 292 q 297 379 208 354 q 375 400 336 390 q 452 421 414 410 q 529 442 490 432 l 529 383 q 433 354 481 369 q 336 324 385 339 q 257 288 285 308 q 219 242 229 267 q 208 190 208 218 q 239 111 208 139 q 321 83 269 83 q 379 95 353 83 q 435 129 406 107 q 506 186 465 151 l 514 108 l 463 108 q 408 43 436 72 q 342 -3 379 14 q 251 -21 306 -21 m 618 -17 q 517 22 554 -17 q 475 135 479 61 l 471 138 l 471 465 q 456 564 471 528 q 410 615 442 600 q 331 631 379 631 q 265 624 297 631 q 200 604 233 618 l 260 663 l 242 542 q 214 471 236 493 q 157 449 192 449 q 103 467 122 449 q 79 511 85 485 q 174 651 96 599 q 374 703 251 703 q 506 678 451 703 q 590 601 561 654 q 619 458 619 547 l 619 150 q 634 96 619 113 q 674 79 649 79 q 703 85 690 79 q 728 99 717 90 l 751 50 q 697 1 729 19 q 618 -17 664 -17 m 154 1015 l 214 1031 q 269 940 232 975 q 371 906 307 906 q 473 940 436 906 q 528 1031 510 975 l 588 1015 q 566 935 582 974 q 523 869 550 897 q 458 824 496 840 q 371 807 421 807 q 284 824 322 807 q 219 869 246 840 q 176 935 192 897 q 154 1015 160 974 z "},"ắ":{"ha":760,"x_min":61,"x_max":751,"o":"m 251 -21 q 117 26 172 -21 q 61 161 61 74 q 83 252 61 213 q 157 323 106 292 q 297 379 208 354 q 375 400 336 390 q 452 421 414 410 q 529 442 490 432 l 529 383 q 433 354 481 369 q 336 324 385 339 q 257 288 285 308 q 219 242 229 267 q 208 190 208 218 q 239 111 208 139 q 321 83 269 83 q 379 95 353 83 q 435 129 406 107 q 506 186 465 151 l 514 108 l 463 108 q 408 43 436 72 q 342 -3 379 14 q 251 -21 306 -21 m 618 -17 q 517 22 554 -17 q 475 135 479 61 l 471 138 l 471 465 q 456 564 471 528 q 410 615 442 600 q 331 631 379 631 q 265 624 297 631 q 200 604 233 618 l 260 663 l 242 542 q 214 471 236 493 q 157 449 192 449 q 103 467 122 449 q 79 511 85 485 q 174 651 96 599 q 374 703 251 703 q 506 678 451 703 q 590 601 561 654 q 619 458 619 547 l 619 150 q 634 96 619 113 q 674 79 649 79 q 703 85 690 79 q 728 99 717 90 l 751 50 q 697 1 729 19 q 618 -17 664 -17 m 371 792 q 264 817 307 792 q 197 884 221 843 q 163 975 172 925 l 222 990 q 275 916 239 944 q 371 888 311 888 q 468 916 431 888 q 521 990 506 944 l 579 975 q 546 884 571 925 q 478 817 521 843 q 371 792 435 792 m 315 990 l 375 1107 q 399 1149 388 1132 q 425 1173 411 1165 q 457 1181 439 1181 q 498 1165 479 1181 q 517 1125 517 1150 q 505 1083 517 1103 q 461 1036 493 1063 l 364 950 l 315 990 z "},"ặ":{"ha":760,"x_min":61,"x_max":751,"o":"m 251 -21 q 117 26 172 -21 q 61 161 61 74 q 83 252 61 213 q 157 323 106 292 q 297 379 208 354 q 375 400 336 390 q 452 421 414 410 q 529 442 490 432 l 529 383 q 433 354 481 369 q 336 324 385 339 q 257 288 285 308 q 219 242 229 267 q 208 190 208 218 q 239 111 208 139 q 321 83 269 83 q 379 95 353 83 q 435 129 406 107 q 506 186 465 151 l 514 108 l 463 108 q 408 43 436 72 q 342 -3 379 14 q 251 -21 306 -21 m 618 -17 q 517 22 554 -17 q 475 135 479 61 l 471 138 l 471 465 q 456 564 471 528 q 410 615 442 600 q 331 631 379 631 q 265 624 297 631 q 200 604 233 618 l 260 663 l 242 542 q 214 471 236 493 q 157 449 192 449 q 103 467 122 449 q 79 511 85 485 q 174 651 96 599 q 374 703 251 703 q 506 678 451 703 q 590 601 561 654 q 619 458 619 547 l 619 150 q 634 96 619 113 q 674 79 649 79 q 703 85 690 79 q 728 99 717 90 l 751 50 q 697 1 729 19 q 618 -17 664 -17 m 154 1015 l 214 1031 q 269 940 232 975 q 371 906 307 906 q 473 940 436 906 q 528 1031 510 975 l 588 1015 q 566 935 582 974 q 523 869 550 897 q 458 824 496 840 q 371 807 421 807 q 284 824 322 807 q 219 869 246 840 q 176 935 192 897 q 154 1015 160 974 z "},"ằ":{"ha":760,"x_min":61,"x_max":751,"o":"m 251 -21 q 117 26 172 -21 q 61 161 61 74 q 83 252 61 213 q 157 323 106 292 q 297 379 208 354 q 375 400 336 390 q 452 421 414 410 q 529 442 490 432 l 529 383 q 433 354 481 369 q 336 324 385 339 q 257 288 285 308 q 219 242 229 267 q 208 190 208 218 q 239 111 208 139 q 321 83 269 83 q 379 95 353 83 q 435 129 406 107 q 506 186 465 151 l 514 108 l 463 108 q 408 43 436 72 q 342 -3 379 14 q 251 -21 306 -21 m 618 -17 q 517 22 554 -17 q 475 135 479 61 l 471 138 l 471 465 q 456 564 471 528 q 410 615 442 600 q 331 631 379 631 q 265 624 297 631 q 200 604 233 618 l 260 663 l 242 542 q 214 471 236 493 q 157 449 192 449 q 103 467 122 449 q 79 511 85 485 q 174 651 96 599 q 374 703 251 703 q 506 678 451 703 q 590 601 561 654 q 619 458 619 547 l 619 150 q 634 96 619 113 q 674 79 649 79 q 703 85 690 79 q 728 99 717 90 l 751 50 q 697 1 729 19 q 618 -17 664 -17 m 163 975 l 222 990 q 275 916 239 944 q 371 888 311 888 q 468 916 431 888 q 521 990 506 944 l 579 975 q 546 884 571 925 q 478 817 521 843 q 371 792 435 792 q 264 817 307 792 q 197 884 221 843 q 163 975 172 925 m 281 1036 q 237 1083 249 1063 q 225 1125 225 1103 q 244 1165 225 1150 q 285 1181 263 1181 q 317 1173 303 1181 q 343 1149 331 1165 q 367 1107 356 1132 l 426 990 l 378 950 l 281 1036 z "},"ẳ":{"ha":760,"x_min":61,"x_max":751,"o":"m 251 -21 q 117 26 172 -21 q 61 161 61 74 q 83 252 61 213 q 157 323 106 292 q 297 379 208 354 q 375 400 336 390 q 452 421 414 410 q 529 442 490 432 l 529 383 q 433 354 481 369 q 336 324 385 339 q 257 288 285 308 q 219 242 229 267 q 208 190 208 218 q 239 111 208 139 q 321 83 269 83 q 379 95 353 83 q 435 129 406 107 q 506 186 465 151 l 514 108 l 463 108 q 408 43 436 72 q 342 -3 379 14 q 251 -21 306 -21 m 618 -17 q 517 22 554 -17 q 475 135 479 61 l 471 138 l 471 465 q 456 564 471 528 q 410 615 442 600 q 331 631 379 631 q 265 624 297 631 q 200 604 233 618 l 260 663 l 242 542 q 214 471 236 493 q 157 449 192 449 q 103 467 122 449 q 79 511 85 485 q 174 651 96 599 q 374 703 251 703 q 506 678 451 703 q 590 601 561 654 q 619 458 619 547 l 619 150 q 634 96 619 113 q 674 79 649 79 q 703 85 690 79 q 728 99 717 90 l 751 50 q 697 1 729 19 q 618 -17 664 -17 z "},"ẵ":{"ha":760,"x_min":61,"x_max":751,"o":"m 251 -21 q 117 26 172 -21 q 61 161 61 74 q 83 252 61 213 q 157 323 106 292 q 297 379 208 354 q 375 400 336 390 q 452 421 414 410 q 529 442 490 432 l 529 383 q 433 354 481 369 q 336 324 385 339 q 257 288 285 308 q 219 242 229 267 q 208 190 208 218 q 239 111 208 139 q 321 83 269 83 q 379 95 353 83 q 435 129 406 107 q 506 186 465 151 l 514 108 l 463 108 q 408 43 436 72 q 342 -3 379 14 q 251 -21 306 -21 m 618 -17 q 517 22 554 -17 q 475 135 479 61 l 471 138 l 471 465 q 456 564 471 528 q 410 615 442 600 q 331 631 379 631 q 265 624 297 631 q 200 604 233 618 l 260 663 l 242 542 q 214 471 236 493 q 157 449 192 449 q 103 467 122 449 q 79 511 85 485 q 174 651 96 599 q 374 703 251 703 q 506 678 451 703 q 590 601 561 654 q 619 458 619 547 l 619 150 q 634 96 619 113 q 674 79 649 79 q 703 85 690 79 q 728 99 717 90 l 751 50 q 697 1 729 19 q 618 -17 664 -17 m 371 792 q 264 815 307 792 q 197 878 221 839 q 163 965 172 918 l 222 981 q 275 913 239 939 q 371 886 311 886 q 468 913 431 886 q 521 979 506 939 l 579 965 q 546 878 571 918 q 478 815 521 839 q 371 792 435 792 m 139 1031 q 185 1130 151 1093 q 274 1167 218 1167 q 329 1158 304 1167 q 379 1138 354 1149 q 426 1116 406 1125 q 472 1107 447 1107 q 520 1122 500 1107 q 554 1167 540 1138 l 603 1144 q 558 1046 590 1083 q 469 1008 525 1008 q 413 1017 439 1008 q 363 1038 388 1026 q 316 1059 338 1050 q 269 1068 294 1068 q 222 1053 242 1068 q 188 1008 201 1038 l 139 1031 z "},"ǎ":{"ha":760,"x_min":61,"x_max":751,"o":"m 251 -21 q 117 26 172 -21 q 61 161 61 74 q 83 252 61 213 q 157 323 106 292 q 297 379 208 354 q 375 400 336 390 q 452 421 414 410 q 529 442 490 432 l 529 383 q 433 354 481 369 q 336 324 385 339 q 257 288 285 308 q 219 242 229 267 q 208 190 208 218 q 239 111 208 139 q 321 83 269 83 q 379 95 353 83 q 435 129 406 107 q 506 186 465 151 l 514 108 l 463 108 q 408 43 436 72 q 342 -3 379 14 q 251 -21 306 -21 m 618 -17 q 517 22 554 -17 q 475 135 479 61 l 471 138 l 471 465 q 456 564 471 528 q 410 615 442 600 q 331 631 379 631 q 265 624 297 631 q 200 604 233 618 l 260 663 l 242 542 q 214 471 236 493 q 157 449 192 449 q 103 467 122 449 q 79 511 85 485 q 174 651 96 599 q 374 703 251 703 q 506 678 451 703 q 590 601 561 654 q 619 458 619 547 l 619 150 q 634 96 619 113 q 674 79 649 79 q 703 85 690 79 q 728 99 717 90 l 751 50 q 697 1 729 19 q 618 -17 664 -17 m 210 1054 l 433 857 l 308 857 l 532 1054 l 576 1018 l 421 806 l 321 806 l 165 1018 l 210 1054 z "},"ấ":{"ha":760,"x_min":61,"x_max":751,"o":"m 251 -21 q 117 26 172 -21 q 61 161 61 74 q 83 252 61 213 q 157 323 106 292 q 297 379 208 354 q 375 400 336 390 q 452 421 414 410 q 529 442 490 432 l 529 383 q 433 354 481 369 q 336 324 385 339 q 257 288 285 308 q 219 242 229 267 q 208 190 208 218 q 239 111 208 139 q 321 83 269 83 q 379 95 353 83 q 435 129 406 107 q 506 186 465 151 l 514 108 l 463 108 q 408 43 436 72 q 342 -3 379 14 q 251 -21 306 -21 m 618 -17 q 517 22 554 -17 q 475 135 479 61 l 471 138 l 471 465 q 456 564 471 528 q 410 615 442 600 q 331 631 379 631 q 265 624 297 631 q 200 604 233 618 l 260 663 l 242 542 q 214 471 236 493 q 157 449 192 449 q 103 467 122 449 q 79 511 85 485 q 174 651 96 599 q 374 703 251 703 q 506 678 451 703 q 590 601 561 654 q 619 458 619 547 l 619 150 q 634 96 619 113 q 674 79 649 79 q 703 85 690 79 q 728 99 717 90 l 751 50 q 697 1 729 19 q 618 -17 664 -17 m 189 765 l 151 810 l 333 978 l 408 978 l 590 810 l 553 765 l 313 907 l 429 907 l 189 765 m 558 910 l 511 953 l 571 1061 q 606 1108 588 1093 q 649 1124 625 1124 q 690 1108 672 1124 q 708 1068 708 1093 q 697 1028 708 1047 q 657 988 686 1010 l 558 910 z "},"ậ":{"ha":760,"x_min":61,"x_max":751,"o":"m 251 -21 q 117 26 172 -21 q 61 161 61 74 q 83 252 61 213 q 157 323 106 292 q 297 379 208 354 q 375 400 336 390 q 452 421 414 410 q 529 442 490 432 l 529 383 q 433 354 481 369 q 336 324 385 339 q 257 288 285 308 q 219 242 229 267 q 208 190 208 218 q 239 111 208 139 q 321 83 269 83 q 379 95 353 83 q 435 129 406 107 q 506 186 465 151 l 514 108 l 463 108 q 408 43 436 72 q 342 -3 379 14 q 251 -21 306 -21 m 618 -17 q 517 22 554 -17 q 475 135 479 61 l 471 138 l 471 465 q 456 564 471 528 q 410 615 442 600 q 331 631 379 631 q 265 624 297 631 q 200 604 233 618 l 260 663 l 242 542 q 214 471 236 493 q 157 449 192 449 q 103 467 122 449 q 79 511 85 485 q 174 651 96 599 q 374 703 251 703 q 506 678 451 703 q 590 601 561 654 q 619 458 619 547 l 619 150 q 634 96 619 113 q 674 79 649 79 q 703 85 690 79 q 728 99 717 90 l 751 50 q 697 1 729 19 q 618 -17 664 -17 m 543 772 l 313 979 l 429 979 l 199 772 l 154 813 l 338 1051 l 404 1051 l 588 813 l 543 772 z "},"ầ":{"ha":760,"x_min":39,"x_max":751,"o":"m 251 -21 q 117 26 172 -21 q 61 161 61 74 q 83 252 61 213 q 157 323 106 292 q 297 379 208 354 q 375 400 336 390 q 452 421 414 410 q 529 442 490 432 l 529 383 q 433 354 481 369 q 336 324 385 339 q 257 288 285 308 q 219 242 229 267 q 208 190 208 218 q 239 111 208 139 q 321 83 269 83 q 379 95 353 83 q 435 129 406 107 q 506 186 465 151 l 514 108 l 463 108 q 408 43 436 72 q 342 -3 379 14 q 251 -21 306 -21 m 618 -17 q 517 22 554 -17 q 475 135 479 61 l 471 138 l 471 465 q 456 564 471 528 q 410 615 442 600 q 331 631 379 631 q 265 624 297 631 q 200 604 233 618 l 260 663 l 242 542 q 214 471 236 493 q 157 449 192 449 q 103 467 122 449 q 79 511 85 485 q 174 651 96 599 q 374 703 251 703 q 506 678 451 703 q 590 601 561 654 q 619 458 619 547 l 619 150 q 634 96 619 113 q 674 79 649 79 q 703 85 690 79 q 728 99 717 90 l 751 50 q 697 1 729 19 q 618 -17 664 -17 m 90 988 q 51 1028 63 1010 q 39 1068 39 1047 q 57 1108 39 1093 q 99 1124 75 1124 q 141 1108 122 1124 q 176 1061 160 1093 l 236 953 l 189 910 l 90 988 m 189 765 l 151 810 l 333 978 l 408 978 l 590 810 l 553 765 l 313 907 l 429 907 l 189 765 z "},"ẩ":{"ha":760,"x_min":61,"x_max":751,"o":"m 251 -21 q 117 26 172 -21 q 61 161 61 74 q 83 252 61 213 q 157 323 106 292 q 297 379 208 354 q 375 400 336 390 q 452 421 414 410 q 529 442 490 432 l 529 383 q 433 354 481 369 q 336 324 385 339 q 257 288 285 308 q 219 242 229 267 q 208 190 208 218 q 239 111 208 139 q 321 83 269 83 q 379 95 353 83 q 435 129 406 107 q 506 186 465 151 l 514 108 l 463 108 q 408 43 436 72 q 342 -3 379 14 q 251 -21 306 -21 m 618 -17 q 517 22 554 -17 q 475 135 479 61 l 471 138 l 471 465 q 456 564 471 528 q 410 615 442 600 q 331 631 379 631 q 265 624 297 631 q 200 604 233 618 l 260 663 l 242 542 q 214 471 236 493 q 157 449 192 449 q 103 467 122 449 q 79 511 85 485 q 174 651 96 599 q 374 703 251 703 q 506 678 451 703 q 590 601 561 654 q 619 458 619 547 l 619 150 q 634 96 619 113 q 674 79 649 79 q 703 85 690 79 q 728 99 717 90 l 751 50 q 697 1 729 19 q 618 -17 664 -17 m 189 765 l 151 810 l 333 974 l 408 974 l 590 810 l 553 765 l 313 901 l 429 901 l 189 765 m 542 954 q 593 974 576 961 q 610 1008 610 986 q 599 1038 610 1026 q 565 1056 589 1049 q 501 1068 542 1063 l 514 1171 q 615 1147 575 1165 q 676 1100 656 1129 q 696 1031 696 1071 q 659 941 696 974 q 553 901 622 908 l 542 954 z "},"ẫ":{"ha":760,"x_min":61,"x_max":751,"o":"m 251 -21 q 117 26 172 -21 q 61 161 61 74 q 83 252 61 213 q 157 323 106 292 q 297 379 208 354 q 375 400 336 390 q 452 421 414 410 q 529 442 490 432 l 529 383 q 433 354 481 369 q 336 324 385 339 q 257 288 285 308 q 219 242 229 267 q 208 190 208 218 q 239 111 208 139 q 321 83 269 83 q 379 95 353 83 q 435 129 406 107 q 506 186 465 151 l 514 108 l 463 108 q 408 43 436 72 q 342 -3 379 14 q 251 -21 306 -21 m 618 -17 q 517 22 554 -17 q 475 135 479 61 l 471 138 l 471 465 q 456 564 471 528 q 410 615 442 600 q 331 631 379 631 q 265 624 297 631 q 200 604 233 618 l 260 663 l 242 542 q 214 471 236 493 q 157 449 192 449 q 103 467 122 449 q 79 511 85 485 q 174 651 96 599 q 374 703 251 703 q 506 678 451 703 q 590 601 561 654 q 619 458 619 547 l 619 150 q 634 96 619 113 q 674 79 649 79 q 703 85 690 79 q 728 99 717 90 l 751 50 q 697 1 729 19 q 618 -17 664 -17 m 189 765 l 151 810 l 332 963 l 410 963 l 590 810 l 553 765 l 313 894 l 429 894 l 189 765 m 136 1013 q 183 1112 149 1075 q 272 1149 217 1149 q 329 1140 304 1149 q 379 1119 354 1132 q 427 1099 406 1107 q 474 1090 449 1090 q 523 1106 503 1090 q 556 1149 543 1121 l 606 1126 q 559 1028 592 1065 q 469 990 526 990 q 413 999 439 990 q 363 1019 388 1008 q 316 1042 338 1033 q 268 1050 294 1050 q 220 1035 240 1050 q 186 992 200 1021 l 136 1013 z "},"ạ":{"ha":760,"x_min":61,"x_max":751,"o":"m 251 -21 q 117 26 172 -21 q 61 161 61 74 q 83 252 61 213 q 157 323 106 292 q 297 379 208 354 q 375 400 336 390 q 452 421 414 410 q 529 442 490 432 l 529 383 q 433 354 481 369 q 336 324 385 339 q 257 288 285 308 q 219 242 229 267 q 208 190 208 218 q 239 111 208 139 q 321 83 269 83 q 379 95 353 83 q 435 129 406 107 q 506 186 465 151 l 514 108 l 463 108 q 408 43 436 72 q 342 -3 379 14 q 251 -21 306 -21 m 618 -17 q 517 22 554 -17 q 475 135 479 61 l 471 138 l 471 465 q 456 564 471 528 q 410 615 442 600 q 331 631 379 631 q 265 624 297 631 q 200 604 233 618 l 260 663 l 242 542 q 214 471 236 493 q 157 449 192 449 q 103 467 122 449 q 79 511 85 485 q 174 651 96 599 q 374 703 251 703 q 506 678 451 703 q 590 601 561 654 q 619 458 619 547 l 619 150 q 634 96 619 113 q 674 79 649 79 q 703 85 690 79 q 728 99 717 90 l 751 50 q 697 1 729 19 q 618 -17 664 -17 z "},"ả":{"ha":760,"x_min":61,"x_max":751,"o":"m 251 -21 q 117 26 172 -21 q 61 161 61 74 q 83 252 61 213 q 157 323 106 292 q 297 379 208 354 q 375 400 336 390 q 452 421 414 410 q 529 442 490 432 l 529 383 q 433 354 481 369 q 336 324 385 339 q 257 288 285 308 q 219 242 229 267 q 208 190 208 218 q 239 111 208 139 q 321 83 269 83 q 379 95 353 83 q 435 129 406 107 q 506 186 465 151 l 514 108 l 463 108 q 408 43 436 72 q 342 -3 379 14 q 251 -21 306 -21 m 618 -17 q 517 22 554 -17 q 475 135 479 61 l 471 138 l 471 465 q 456 564 471 528 q 410 615 442 600 q 331 631 379 631 q 265 624 297 631 q 200 604 233 618 l 260 663 l 242 542 q 214 471 236 493 q 157 449 192 449 q 103 467 122 449 q 79 511 85 485 q 174 651 96 599 q 374 703 251 703 q 506 678 451 703 q 590 601 561 654 q 619 458 619 547 l 619 150 q 634 96 619 113 q 674 79 649 79 q 703 85 690 79 q 728 99 717 90 l 751 50 q 697 1 729 19 q 618 -17 664 -17 m 340 768 l 326 821 q 382 844 364 829 q 400 883 400 860 q 375 926 400 911 q 288 949 350 940 l 300 1053 q 440 1006 394 1044 q 486 904 486 968 q 449 812 486 847 q 340 768 411 776 z "},"å":{"ha":760,"x_min":61,"x_max":751,"o":"m 251 -21 q 117 26 172 -21 q 61 161 61 74 q 83 252 61 213 q 157 323 106 292 q 297 379 208 354 q 375 400 336 390 q 452 421 414 410 q 529 442 490 432 l 529 383 q 433 354 481 369 q 336 324 385 339 q 257 288 285 308 q 219 242 229 267 q 208 190 208 218 q 239 111 208 139 q 321 83 269 83 q 379 95 353 83 q 435 129 406 107 q 506 186 465 151 l 514 108 l 463 108 q 408 43 436 72 q 342 -3 379 14 q 251 -21 306 -21 m 618 -17 q 517 22 554 -17 q 475 135 479 61 l 471 138 l 471 465 q 456 564 471 528 q 410 615 442 600 q 331 631 379 631 q 265 624 297 631 q 200 604 233 618 l 260 663 l 242 542 q 214 471 236 493 q 157 449 192 449 q 103 467 122 449 q 79 511 85 485 q 174 651 96 599 q 374 703 251 703 q 506 678 451 703 q 590 601 561 654 q 619 458 619 547 l 619 150 q 634 96 619 113 q 674 79 649 79 q 703 85 690 79 q 728 99 717 90 l 751 50 q 697 1 729 19 q 618 -17 664 -17 m 371 840 q 430 865 408 840 q 451 924 451 890 q 430 982 451 957 q 371 1007 408 1007 q 313 982 335 1007 q 290 924 290 957 q 312 865 290 890 q 371 840 333 840 m 371 778 q 263 818 308 778 q 218 924 218 858 q 263 1029 218 989 q 371 1069 308 1069 q 479 1030 435 1069 q 524 924 524 990 q 479 818 524 858 q 371 778 435 778 z "},"ą":{"ha":760,"x_min":61,"x_max":751,"o":"m 251 -21 q 117 26 172 -21 q 61 161 61 74 q 83 252 61 213 q 157 323 106 292 q 297 379 208 354 q 375 400 336 390 q 452 421 414 410 q 529 442 490 432 l 529 383 q 433 354 481 369 q 336 324 385 339 q 257 288 285 308 q 219 242 229 267 q 208 190 208 218 q 239 111 208 139 q 321 83 269 83 q 379 95 353 83 q 435 129 406 107 q 506 186 465 151 l 514 108 l 463 108 q 408 43 436 72 q 342 -3 379 14 q 251 -21 306 -21 m 599 -311 q 499 -277 536 -311 q 463 -185 463 -243 q 503 -84 463 -126 q 613 -15 544 -42 l 608 -28 q 603 -17 606 -22 q 600 -7 601 -12 q 513 35 546 0 q 475 135 479 69 l 471 138 l 471 465 q 456 564 471 528 q 410 615 442 600 q 331 631 379 631 q 269 624 299 631 q 206 604 239 618 l 260 663 l 242 542 q 214 471 236 493 q 157 449 192 449 q 103 467 122 449 q 79 511 85 485 q 131 611 90 568 q 233 678 171 654 q 374 703 296 703 q 506 678 451 703 q 590 601 561 654 q 619 458 619 547 l 619 150 q 634 96 619 113 q 674 79 649 79 q 702 85 689 79 q 728 99 715 90 l 751 49 q 722 19 738 32 q 679 -10 706 7 q 619 -47 644 -28 q 581 -90 594 -67 q 567 -143 567 -112 q 589 -200 567 -178 q 646 -222 611 -222 q 681 -218 664 -222 q 713 -208 697 -214 l 732 -261 q 678 -297 708 -283 q 599 -311 647 -311 z "},"æ":{"ha":1151,"x_min":61,"x_max":1096,"o":"m 260 -21 q 117 26 174 -21 q 61 163 61 74 q 84 252 61 214 q 158 322 107 290 q 297 379 210 353 q 372 401 333 390 q 450 422 410 411 q 528 440 490 432 l 528 382 q 428 353 479 369 q 335 324 376 338 q 258 285 285 306 q 219 242 231 265 q 208 192 208 219 q 240 112 208 140 q 324 83 272 83 q 389 96 360 83 q 449 132 418 108 q 524 193 481 156 l 544 136 l 525 136 q 443 49 482 83 q 360 -3 404 14 q 260 -21 317 -21 m 814 -18 q 632 25 708 -18 q 513 147 556 68 q 471 333 471 226 l 471 464 q 456 563 471 526 q 411 615 442 599 q 335 631 381 631 q 269 624 300 631 q 206 604 238 618 l 261 661 l 242 539 q 214 468 236 490 q 157 446 192 446 q 103 465 122 446 q 79 510 83 483 q 131 610 90 567 q 233 678 171 654 q 374 703 296 703 q 515 664 458 703 q 586 536 571 625 l 554 540 q 659 661 590 619 q 807 703 728 703 q 956 670 893 703 q 1053 574 1018 638 q 1088 421 1088 511 q 1085 371 1088 394 q 1078 332 1082 347 l 558 332 l 558 400 l 899 400 q 937 425 928 407 q 946 469 946 443 q 929 558 946 522 q 881 611 913 593 q 803 629 849 629 q 710 600 751 629 q 645 510 668 571 q 622 351 622 449 q 651 206 622 265 q 730 116 679 147 q 849 85 781 85 q 963 108 915 85 q 1049 179 1010 132 l 1096 140 q 986 25 1050 68 q 814 -18 922 -18 z "},"ç":{"ha":728,"x_min":61,"x_max":681,"o":"m 400 -18 q 219 25 296 -18 q 102 147 143 68 q 61 335 61 226 q 106 528 61 446 q 230 657 151 611 q 404 703 308 703 q 540 679 482 703 q 633 617 597 656 q 679 532 668 578 q 656 480 674 499 q 603 461 638 461 q 544 484 565 461 q 515 544 524 507 l 482 668 l 568 597 q 503 622 538 613 q 425 631 468 631 q 318 598 365 631 q 245 503 271 565 q 219 353 219 442 q 247 205 219 264 q 324 117 275 146 q 438 88 374 88 q 515 99 481 88 q 577 132 549 111 q 629 181 606 153 l 681 135 q 618 58 654 93 q 529 3 582 24 q 400 -18 476 -18 m 367 -122 l 386 6 l 447 6 l 432 -107 l 403 -74 q 491 -91 454 -78 q 549 -129 528 -104 q 569 -190 569 -154 q 526 -277 569 -243 q 400 -311 482 -311 q 344 -306 367 -311 q 307 -296 321 -300 l 321 -240 q 353 -247 336 -243 q 389 -250 369 -250 q 446 -234 426 -250 q 465 -189 465 -218 q 442 -143 465 -160 q 367 -122 419 -126 z "},"ć":{"ha":728,"x_min":61,"x_max":681,"o":"m 400 -18 q 219 25 296 -18 q 102 147 143 68 q 61 335 61 226 q 106 528 61 446 q 230 657 151 611 q 404 703 308 703 q 540 679 482 703 q 633 617 597 656 q 679 532 668 578 q 656 480 674 499 q 603 461 638 461 q 544 484 565 461 q 515 544 524 507 l 482 668 l 568 597 q 503 622 538 613 q 425 631 468 631 q 318 598 365 631 q 245 503 271 565 q 219 353 219 442 q 247 205 219 264 q 324 117 275 146 q 438 88 374 88 q 515 99 481 88 q 577 132 549 111 q 629 181 606 153 l 681 135 q 618 58 654 93 q 529 3 582 24 q 400 -18 476 -18 m 321 822 q 359 882 340 853 q 399 942 378 911 q 440 1007 419 974 q 481 1055 463 1040 q 525 1069 500 1069 q 567 1054 549 1069 q 586 1011 586 1039 q 574 970 586 989 q 531 925 561 951 q 476 877 503 901 q 423 831 449 853 q 371 785 397 808 l 321 822 z "}}}
